<?xml version="1.0" encoding="UTF-8"?><svg id="Camada_2" xmlns="http://www.w3.org/2000/svg" viewBox="0 0 555.89 90"><defs><style>.cls-1{fill:#fff;}.cls-2{fill:#1da1f2;}</style></defs><g id="Camada_1-2"><g><g><path class="cls-1" d="M171.09,68l-14.36-33.93-14.55,33.93h-7.62l18.95-44.33c.29-.66,.73-1.19,1.33-1.58,.6-.39,1.25-.59,1.95-.59s1.33,.2,1.89,.59c.56,.39,.98,.92,1.27,1.58l18.76,44.33h-7.62Z"/><path class="cls-1" d="M199.91,65.74c-3.08-1.8-5.52-4.23-7.34-7.31-1.82-3.07-2.72-6.43-2.72-10.06V22.19h6.81v26.19c0,2.39,.6,4.6,1.79,6.62,1.2,2.02,2.81,3.62,4.83,4.8,2.02,1.18,4.25,1.76,6.69,1.76s4.6-.59,6.62-1.76c2.02-1.18,3.63-2.78,4.83-4.8,1.2-2.02,1.79-4.23,1.79-6.62V22.19h6.81v26.19c0,3.63-.91,6.99-2.72,10.06-1.82,3.08-4.25,5.51-7.31,7.31-3.06,1.8-6.4,2.69-10.03,2.69s-6.99-.9-10.06-2.69Z"/><path class="cls-1" d="M268.67,51.97h-12.01v16.04h-6.81V25.78c0-.99,.36-1.84,1.08-2.54,.72-.7,1.58-1.05,2.57-1.05h18.7c2.72,0,5.24,.69,7.55,2.07,2.31,1.38,4.15,3.25,5.51,5.6,1.36,2.35,2.04,4.89,2.04,7.62,0,3.47-1.05,6.48-3.16,9.04-2.1,2.56-4.83,4.23-8.17,5.01l11.58,16.47h-7.74l-11.14-16.04Zm-12.01-6.38h15.54c2.35,0,4.32-.78,5.91-2.35,1.59-1.57,2.38-3.49,2.38-5.76,0-1.49-.37-2.89-1.11-4.21-.74-1.32-1.75-2.36-3.03-3.13-1.28-.76-2.66-1.15-4.15-1.15h-15.54v16.59Z"/><path class="cls-1" d="M334.98,68l-14.36-33.93-14.55,33.93h-7.62l18.95-44.33c.29-.66,.73-1.19,1.33-1.58,.6-.39,1.25-.59,1.95-.59s1.33,.2,1.89,.59c.56,.39,.98,.92,1.27,1.58l18.76,44.33h-7.62Z"/><path class="cls-1" d="M353.12,63.91l2.85-6.13c5.49,2.68,11.31,4.02,17.46,4.02,4.42,0,7.85-.63,10.31-1.89,2.46-1.26,3.68-2.96,3.68-5.11,0-1.77-.59-3.15-1.76-4.12-1.18-.97-2.68-1.66-4.52-2.07-1.84-.41-4.26-.76-7.27-1.05-4.33-.5-7.76-1.03-10.28-1.61-2.52-.58-4.74-1.71-6.66-3.4-1.92-1.69-2.88-4.19-2.88-7.49,0-2.77,.88-5.18,2.63-7.24,1.75-2.06,4.17-3.65,7.24-4.77,3.07-1.11,6.53-1.67,10.37-1.67,3.14,0,6.29,.32,9.47,.96,3.18,.64,6.13,1.54,8.85,2.69l-2.66,6.13c-5.12-2.15-10.34-3.22-15.66-3.22-4.17,0-7.43,.59-9.78,1.76s-3.53,2.96-3.53,5.36c0,1.57,.6,2.77,1.79,3.59,1.2,.83,2.58,1.38,4.15,1.67,1.57,.29,3.92,.6,7.06,.93,4.04,.41,7.48,.98,10.31,1.7,2.83,.72,5.22,2.02,7.18,3.9,1.96,1.88,2.94,4.53,2.94,7.96,0,2.77-.91,5.19-2.72,7.27-1.82,2.08-4.32,3.71-7.52,4.86-3.2,1.16-6.78,1.73-10.74,1.73-7.27,0-14.03-1.59-20.31-4.77Z"/><path class="cls-1" d="M420.39,65.43c-3.61-2.13-6.47-5.02-8.58-8.67-2.1-3.65-3.16-7.62-3.16-11.92s1.05-8.3,3.16-11.89c2.11-3.59,4.95-6.43,8.54-8.51,3.59-2.08,7.53-3.13,11.83-3.13s8.11,1.04,11.7,3.13c3.59,2.08,6.45,4.92,8.58,8.51,2.13,3.59,3.19,7.55,3.19,11.89s-1.05,8.32-3.16,11.95c-2.11,3.63-4.95,6.51-8.54,8.64-3.59,2.13-7.51,3.19-11.76,3.19s-8.18-1.06-11.79-3.19Zm20.18-5.82c2.54-1.55,4.55-3.64,6.04-6.28,1.49-2.64,2.23-5.51,2.23-8.61s-.75-5.86-2.26-8.42c-1.51-2.56-3.53-4.58-6.07-6.07-2.54-1.49-5.31-2.23-8.33-2.23s-5.81,.75-8.39,2.26c-2.58,1.51-4.61,3.54-6.1,6.1-1.49,2.56-2.23,5.39-2.23,8.48s.75,5.89,2.26,8.51c1.51,2.62,3.54,4.71,6.1,6.25,2.56,1.55,5.34,2.32,8.36,2.32s5.85-.77,8.39-2.32Z"/><path class="cls-1" d="M476.7,29v12.69h25.32v6.81h-25.32v19.5h-6.81V25.78c0-.99,.36-1.84,1.08-2.54,.72-.7,1.58-1.05,2.57-1.05h30.34v6.81h-27.18Z"/><path class="cls-1" d="M555.89,29h-16.1v39.01h-6.81V29h-16.1v-6.81h39.01v6.81Z"/></g><path class="cls-2" d="M17.79,90c-4.89,0-9.62-2.05-13.12-5.94-5.28-5.85-6.15-14.04-2.22-20.87L33.73,8.93C36.95,3.34,42.73,0,49.18,0h0c6.46,0,12.23,3.34,15.46,8.93l31.28,54.26c3.94,6.83,3.07,15.02-2.22,20.87-5.28,5.85-13.34,7.55-20.54,4.33l-22.33-10c-1.05-.47-2.26-.47-3.31,0l-22.33,10c-2.42,1.08-4.94,1.61-7.41,1.61ZM42.9,14.22L11.62,68.48c-1.94,3.37-.81,6.59,.9,8.49,1.71,1.89,4.8,3.35,8.35,1.76l22.33-10c3.8-1.7,8.16-1.7,11.97,0l22.33,10c3.55,1.59,6.64,.13,8.35-1.76,1.71-1.89,2.84-5.12,.9-8.49L55.47,14.22c-1.31-2.27-3.66-3.63-6.29-3.63s-4.97,1.36-6.29,3.63h0Z"/></g></g></svg>