<?xml version="1.0" encoding="UTF-8"?><svg id="Camada_2" xmlns="http://www.w3.org/2000/svg" viewBox="0 0 102.18 90"><defs><style>.cls-1{fill:#1da1f2;}</style></defs><g id="Camada_1-2"><path class="cls-1" d="M82.55,90H19.63c-7.21,0-13.61-3.76-17.11-10.06-3.51-6.3-3.34-13.72,.46-19.84L34.43,9.28C38.03,3.47,44.26,0,51.09,0s13.06,3.47,16.66,9.28l31.46,50.82c3.79,6.13,3.96,13.55,.46,19.84-3.51,6.3-9.91,10.06-17.11,10.06ZM51.09,12c-2.69,0-5.04,1.31-6.45,3.6L13.17,66.42c-1.47,2.37-1.54,5.25-.18,7.69,1.36,2.44,3.84,3.9,6.63,3.9h62.92c2.79,0,5.27-1.46,6.63-3.9,1.36-2.44,1.29-5.31-.18-7.69L57.54,15.6c-1.41-2.28-3.77-3.6-6.45-3.6Z"/></g></svg>