<?xml version="1.0" encoding="UTF-8"?><svg id="Camada_2" xmlns="http://www.w3.org/2000/svg" viewBox="0 0 102.18 102.18"><defs><style>.cls-1{fill:#fff;}.cls-2{fill:#1da1f2;}</style></defs><g id="Camada_1-2"><rect class="cls-1" width="102.18" height="102.18"/><path class="cls-2" d="M82.55,96.09H19.63c-7.21,0-13.61-3.76-17.11-10.06-3.51-6.3-3.34-13.72,.46-19.84L34.43,15.37c3.6-5.81,9.82-9.28,16.66-9.28s13.06,3.47,16.66,9.28l31.46,50.82c3.79,6.13,3.96,13.55,.46,19.84-3.51,6.3-9.91,10.06-17.11,10.06ZM51.09,18.09c-2.69,0-5.04,1.31-6.45,3.6L13.17,72.5c-1.47,2.37-1.54,5.25-.18,7.69,1.36,2.44,3.84,3.9,6.63,3.9h62.92c2.79,0,5.27-1.46,6.63-3.9,1.36-2.44,1.29-5.31-.18-7.69L57.54,21.68c-1.41-2.28-3.77-3.6-6.45-3.6Z"/></g></svg>