<svg xmlns="http://www.w3.org/2000/svg" xmlns:xlink="http://www.w3.org/1999/xlink" width="140" height="140" viewBox="0 0 140 140"><defs><clipPath id="a"><rect width="140" height="99.473" fill="none"/></clipPath></defs><g transform="translate(5322 10096)"><rect width="140" height="140" transform="translate(-5322 -10096)" fill="none"/><g transform="translate(-5322 -10076)" style="isolation:isolate"><g transform="translate(0 0)" clip-path="url(#a)"><path d="M110.364.406,107.213,6l-.8-.505.053-.046-5.342-3.223a.076.076,0,0,0-.105.1l1.533,2.7c0,.02-.012.039-.015.059l-.812,5.939a1.751,1.751,0,0,1-.435.9l-.97,1.072.049-.071L98.643,12.1l-4.937,4.394a.078.078,0,0,0,.012.126l2.893,1.745a.4.4,0,0,0,.2.053l3.562.042-.951,4.082a.132.132,0,0,0,.059.141l2.682,1.617.222.134c.279.164.767-.063,1.094-.615l3.5-5.908a1.44,1.44,0,0,1,.687-.629l4.821-1.724c.627-.225,1.122-1.244.837-1.726l-2.19-3.7a.99.99,0,0,1,.016-.82l2.38-6.224c.171-.447.1-.788-.1-.933L110.5.37a.1.1,0,0,0-.137.036" transform="translate(-13.013 -0.049)" fill="#febd33"/><path d="M104.2,24.426l-.222-.134-2.681-1.617a.13.13,0,0,1-.059-.14l.95-4.083-3.561-.041a.408.408,0,0,1-.2-.054L95.894,16.83l-2.188,1.948a.079.079,0,0,0,.012.126l2.893,1.745a.4.4,0,0,0,.2.053l3.561.041-.95,4.083a.129.129,0,0,0,.059.14l2.682,1.618.222.133c.279.164.767-.062,1.094-.615l.966-1.629a.411.411,0,0,1-.25-.049" transform="translate(-13.013 -2.338)" fill="#feedcc"/><path d="M111.769,17.129a1.443,1.443,0,0,0-.687.63l-.95,1.6,4.646-1.661c.628-.225,1.123-1.245.838-1.726l-.107-.181Z" transform="translate(-15.299 -2.194)" fill="#febd33"/><path d="M113.324,15.02a1.628,1.628,0,0,1-.792.706l-4.82,1.724a1.272,1.272,0,0,0-.572.535l-3.5,5.907c-.385.648-.986.933-1.4.692l-2.906-1.752a.349.349,0,0,1-.159-.38l.888-3.815L96.774,18.6a.615.615,0,0,1-.31-.084l-2.895-1.746a.3.3,0,0,1-.045-.478L98.571,11.8l1.721.825.8-.883a1.524,1.524,0,0,0,.38-.778l.811-5.933L100.793,2.4a.3.3,0,0,1,.41-.4l5.6,3.376-.058.051.356.226L110.137.262a.319.319,0,0,1,.444-.116l2.935,1.78a.984.984,0,0,1,.189,1.2l-2.38,6.225a.8.8,0,0,0-.031.629l2.19,3.7a1.148,1.148,0,0,1,.014.973,2.081,2.081,0,0,1-.175.367m-6.555,2.725a1.653,1.653,0,0,1,.793-.71l4.821-1.724a1.364,1.364,0,0,0,.7-.808.757.757,0,0,0,.02-.6l-2.19-3.7a1.189,1.189,0,0,1,0-1.01l2.38-6.224c.136-.355.084-.6-.022-.677l-2.814-1.7-3.2,5.684-1.24-.786.047-.042L101.449,2.66l1.3,2.293-.026.127-.814,5.941a1.972,1.972,0,0,1-.489,1.014l-.971,1.072-.158-.126-.05.105-1.595-.765L93.961,16.49l2.729,1.646a.177.177,0,0,0,.09.022l3.835.045-1,4.286,2.848,1.718c.146.085.535-.087.791-.539l3.5-5.907.009-.015" transform="translate(-12.978 -0.014)" fill="#120d0c"/><path d="M93.814,15.02l4.45-4.913a1.746,1.746,0,0,0,.434-.9l.813-5.939c.106-.772.888-1.491,1.324-1.214l3.35,2.123a.611.611,0,0,0,.678-.124L109.72.439c.632-.471,1.1.019.788.829l-2.379,6.224a.987.987,0,0,0-.016.82l2.19,3.7c.285.481-.21,1.5-.838,1.726l-4.82,1.724a1.437,1.437,0,0,0-.687.629L100.454,22c-.456.769-1.228.909-1.306.238l-.6-5.159c-.031-.267-.184-.428-.409-.431L93.784,16.6c-.567-.007-.549-.939.03-1.579" transform="translate(-12.97 -0.035)" fill="#feedcc"/><path d="M101.035,21.82l3.177-5.357a1.443,1.443,0,0,1,.687-.63l4.821-1.724c.627-.224,1.122-1.244.837-1.726l-2.19-3.7a.994.994,0,0,1,.015-.82l1.8-4.709-3.212,2.394a.611.611,0,0,1-.678.123L104.613,4.6a.378.378,0,0,1-.172-.053l-1.677-1.063c-.443-.034-1.051.6-1.144,1.273l-.812,5.938a1.757,1.757,0,0,1-.435.9l-4.45,4.913a1.84,1.84,0,0,0-.312.479l2.783.033a.423.423,0,0,1,.409.43l.078.673,1.367.016a.423.423,0,0,1,.409.43Z" transform="translate(-13.282 -0.438)" fill="#febd33"/><path d="M110.3,13.206a1.632,1.632,0,0,1-.792.706l-4.82,1.724a1.2,1.2,0,0,0-.572.535l-3.5,5.907a1.3,1.3,0,0,1-1.221.762.644.644,0,0,1-.493-.611l-.6-5.16c-.018-.155-.083-.234-.192-.235l-4.355-.051a.6.6,0,0,1-.561-.373,1.6,1.6,0,0,1,.43-1.574l4.45-4.913a1.533,1.533,0,0,0,.38-.778l.812-5.938a1.909,1.909,0,0,1,.966-1.379.711.711,0,0,1,.695.008l3.35,2.123c.09.057.258.013.428-.115L109.553.227a.79.79,0,0,1,.965-.107,1,1,0,0,1,.16,1.191L108.3,7.536a.805.805,0,0,0-.031.629l2.19,3.7a1.148,1.148,0,0,1,.014.973,2.08,2.08,0,0,1-.175.367m-6.555,2.725a1.653,1.653,0,0,1,.793-.71l4.821-1.724a1.372,1.372,0,0,0,.7-.808.757.757,0,0,0,.02-.6l-2.19-3.7a1.186,1.186,0,0,1,0-1.01l2.379-6.224c.137-.358.089-.6-.015-.683S110,.446,109.815.58L104.959,4.2a.816.816,0,0,1-.927.133l-3.35-2.123a.3.3,0,0,0-.273.019,1.446,1.446,0,0,0-.716,1.038L98.88,9.207a1.982,1.982,0,0,1-.489,1.014l-4.45,4.913a1.21,1.21,0,0,0-.352,1.1.16.16,0,0,0,.162.108l4.355.051a.641.641,0,0,1,.625.624l.6,5.159c.016.136.065.214.146.232.156.033.508-.105.751-.556l3.5-5.907.009-.015" transform="translate(-12.934 0)" fill="#120d0c"/><path d="M112.559,14.238l2.985,1.8.17-.706-2.343-4.366L110.259,9.09l.348.756,2.042,3.4.209.5Z" transform="translate(-15.316 -1.263)" fill="#120d0c"/><rect width="0.644" height="3.473" transform="matrix(0.516, -0.856, 0.856, 0.516, 91.173, 15.926)" fill="#16110d"/><rect width="0.644" height="3.473" transform="matrix(0.516, -0.856, 0.856, 0.516, 87.515, 21.99)" fill="#16110d"/><path d="M113.182,1.7l2.925,1.764.306-.78-.265-.514L113.364.49Z" transform="translate(-15.722 -0.068)" fill="#120d0c"/><path d="M156.637,89.235l-6.45,2.557-.326-.967.075,0-2.3-6.339a.082.082,0,0,0-.158.015l-.549,3.314c-.017.015-.037.025-.053.04l-4.719,4.439a1.894,1.894,0,0,1-.975.458l-1.545.241.09-.027-.889-1.869-7.137.338a.085.085,0,0,0-.076.113l1.246,3.434a.433.433,0,0,0,.132.181l2.966,2.456L132.4,100.4a.14.14,0,0,0-.045.158l1.155,3.183.1.263c.123.328.687.468,1.337.227l6.96-2.584a1.559,1.559,0,0,1,1.007-.062l5.223,1.827c.679.239,1.789-.283,1.877-.882l.675-4.6a1.071,1.071,0,0,1,.571-.678l6.23-3.615c.447-.259.621-.593.553-.85L156.776,89.3a.106.106,0,0,0-.139-.063" transform="translate(-18.284 -11.728)" fill="#febd33"/><path d="M136.682,104.415l-.1-.263-1.155-3.183a.14.14,0,0,1,.046-.158l3.574-2.786-2.966-2.456a.423.423,0,0,1-.131-.181l-1.089-3-3.163.15a.084.084,0,0,0-.075.114l1.246,3.433a.425.425,0,0,0,.131.182l2.966,2.456-3.574,2.786a.14.14,0,0,0-.046.158l1.155,3.183.1.263c.123.328.687.469,1.338.227l1.919-.712a.452.452,0,0,1-.177-.212" transform="translate(-18.284 -12.834)" fill="#feedcc"/><path d="M147.836,103.537a1.551,1.551,0,0,0-1.006.063l-1.887.7,5.035,1.762c.68.238,1.789-.283,1.877-.882l.034-.225Z" transform="translate(-20.134 -14.375)" fill="#febd33"/><path d="M149.158,103.547a1.764,1.764,0,0,1-1.145.055l-5.223-1.828a1.38,1.38,0,0,0-.845.061l-6.96,2.583c-.764.282-1.464.114-1.644-.367l-1.251-3.449a.376.376,0,0,1,.123-.427l3.34-2.6L132.815,95.3a.676.676,0,0,1-.2-.281l-1.246-3.436a.322.322,0,0,1,.034-.289.319.319,0,0,1,.252-.143l7.3-.346.887,1.864,1.274-.2a1.645,1.645,0,0,0,.847-.4l4.714-4.435.536-3.225a.32.32,0,0,1,.616-.057l2.41,6.642-.083,0,.146.431,6.216-2.465a.344.344,0,0,1,.452.2l1.258,3.492c.11.412-.144.84-.657,1.137l-6.231,3.615a.871.871,0,0,0-.454.507l-.675,4.6a1.244,1.244,0,0,1-.649.827,2.237,2.237,0,0,1-.4.19m-7.361-2.165a1.787,1.787,0,0,1,1.15-.058l5.223,1.827a1.477,1.477,0,0,0,1.139-.2.819.819,0,0,0,.424-.49l.676-4.6a1.285,1.285,0,0,1,.686-.849l6.231-3.615c.355-.206.478-.446.442-.583l-1.206-3.345L150,92.068l-.508-1.5.068,0-1.987-5.476-.467,2.81-.108.09-4.721,4.441a2.141,2.141,0,0,1-1.1.519l-1.545.241-.047-.214-.114.054-.821-1.726-6.77.32,1.175,3.239a.187.187,0,0,0,.06.079l3.193,2.644-3.751,2.925,1.226,3.379c.064.17.508.29,1.031.085l6.961-2.584.017-.006" transform="translate(-18.246 -11.69)" fill="#120d0c"/><path d="M132.808,90.215l7.079-1.1a1.9,1.9,0,0,0,.974-.458l4.72-4.44c.614-.578,1.76-.648,1.938-.12l1.373,4.061a.662.662,0,0,0,.654.357l6.543.258c.852.034.91.762.1,1.233l-6.23,3.614a1.072,1.072,0,0,0-.571.679l-.675,4.6c-.088.6-1.2,1.119-1.877.882l-5.223-1.828a1.565,1.565,0,0,0-1.007.063l-6.959,2.583c-.907.337-1.651-.07-1.26-.687l3-4.744a.458.458,0,0,0-.052-.64l-3.626-3c-.472-.391.177-1.163,1.1-1.307" transform="translate(-18.274 -11.632)" fill="#feedcc"/><path d="M134.5,100.633l6.312-2.343a1.556,1.556,0,0,1,1.006-.062l5.223,1.827c.68.238,1.789-.283,1.877-.882l.676-4.6a1.065,1.065,0,0,1,.57-.678l4.714-2.735-4.327-.171a.66.66,0,0,1-.653-.356l-.69-2.039a.417.417,0,0,1-.108-.161l-.688-2.034a1.564,1.564,0,0,0-1.826.293l-4.719,4.439a1.9,1.9,0,0,1-.975.458l-7.079,1.1a1.969,1.969,0,0,0-.587.191l2.316,1.919a.458.458,0,0,1,.052.64l-.391.618,1.137.942a.458.458,0,0,1,.052.64Z" transform="translate(-18.507 -11.976)" fill="#febd33"/><path d="M147.862,99.909a1.758,1.758,0,0,1-1.145.054l-5.223-1.827a1.306,1.306,0,0,0-.845.061l-6.96,2.583a1.411,1.411,0,0,1-1.545-.189.7.7,0,0,1,0-.848l3-4.745c.09-.142.09-.253,0-.328l-3.626-3a.645.645,0,0,1-.218-.694,1.736,1.736,0,0,1,1.432-1.031l7.079-1.1a1.658,1.658,0,0,0,.848-.4L145.38,84a2.058,2.058,0,0,1,1.749-.5.764.764,0,0,1,.578.479l1.373,4.061c.037.11.208.187.437.2l6.542.259a.854.854,0,0,1,.884.567c.1.387-.163.812-.674,1.109l-6.231,3.615a.873.873,0,0,0-.455.507l-.675,4.6a1.243,1.243,0,0,1-.649.828,2.237,2.237,0,0,1-.4.19M140.5,97.745a1.788,1.788,0,0,1,1.15-.059l5.224,1.828a1.476,1.476,0,0,0,1.138-.2.826.826,0,0,0,.424-.49l.675-4.6a1.283,1.283,0,0,1,.686-.849l6.231-3.615c.358-.208.485-.448.452-.583-.029-.117-.2-.2-.441-.206l-6.543-.259a.882.882,0,0,1-.87-.518l-1.373-4.062a.324.324,0,0,0-.243-.17,1.563,1.563,0,0,0-1.307.387l-4.72,4.44a2.144,2.144,0,0,1-1.1.519l-7.079,1.1a1.305,1.305,0,0,0-1.045.688.173.173,0,0,0,.062.2l3.625,3a.691.691,0,0,1,.1.95l-3,4.744c-.079.126-.09.225-.034.294a.935.935,0,0,0,1.009.042l6.96-2.583.017-.006" transform="translate(-18.236 -11.594)" fill="#120d0c"/><path d="M150.605,101.293l1.285,3.542.623-.478,1-5.262-1.34-3.691-.221.871-.592,4.242-.165.564Z" transform="translate(-20.921 -13.253)" fill="#120d0c"/><rect width="0.578" height="3.754" transform="translate(122.633 86.375) rotate(-19.944)" fill="#16110d"/><rect width="0.578" height="3.754" transform="translate(115.435 88.986) rotate(-19.944)" fill="#16110d"/><path d="M159.771,91.2l1.26,3.471.787-.448.127-.612-1.2-3.3Z" transform="translate(-22.194 -12.544)" fill="#120d0c"/><path d="M34.678,49.58l-7.26-7.829,1.206-1.007.047.106,7.815-6.829a.126.126,0,0,0-.108-.218l-5.063,1.057c-.029-.016-.056-.039-.086-.053l-9-4.3a2.91,2.91,0,0,1-1.2-1.143l-1.206-2.082.089.115L22.1,25.08,17.646,15.029a.131.131,0,0,0-.2-.046l-4.233,3.7a.654.654,0,0,0-.186.289L11.149,24.6,5.162,21.019a.214.214,0,0,0-.252.022L.986,24.47l-.325.283C.26,25.113.371,26,1.08,26.8l7.582,8.547a2.4,2.4,0,0,1,.649,1.409L9.6,45.268c.038,1.107,1.4,2.409,2.311,2.2l6.975-1.591a1.647,1.647,0,0,1,1.291.44l8.655,6.927c.62.5,1.2.56,1.527.319l4.31-3.749a.164.164,0,0,0,.013-.236" transform="translate(-0.06 -2.077)" fill="#febd33"/><path d="M3.376,28.787,3.7,28.5l3.923-3.428a.215.215,0,0,1,.253-.023l5.987,3.576,1.872-5.622a.66.66,0,0,1,.187-.289l3.7-3.232L17.645,15.03a.13.13,0,0,0-.2-.046l-4.233,3.7a.655.655,0,0,0-.187.289L11.149,24.6,5.162,21.019a.217.217,0,0,0-.253.023L.985,24.471l-.325.284c-.4.359-.29,1.247.418,2.047l2.092,2.357a.683.683,0,0,1,.2-.371" transform="translate(-0.06 -2.077)" fill="#feedcc"/><path d="M13.461,44.356a2.4,2.4,0,0,0-.649-1.409l-2.055-2.316.276,8.2c.037,1.108,1.4,2.409,2.31,2.2l.34-.078Z" transform="translate(-1.494 -5.644)" fill="#febd33"/><path d="M9.888,46.835a2.714,2.714,0,0,1-.717-1.613L8.885,36.71a2.119,2.119,0,0,0-.556-1.177L.746,26.985c-.831-.939-.977-2.036-.387-2.563l4.25-3.716a.58.58,0,0,1,.682-.06l5.594,3.342,1.728-5.19a1.024,1.024,0,0,1,.291-.447l4.235-3.7a.5.5,0,0,1,.433-.111.493.493,0,0,1,.347.283L22.476,25.1,20.3,27.406l.995,1.717a2.538,2.538,0,0,0,1.04,1l8.986,4.3,4.925-1.027a.492.492,0,0,1,.424.852l-8.188,7.156-.052-.116-.537.449,7,7.546a.532.532,0,0,1-.041.762l-4.31,3.749a1.637,1.637,0,0,1-2-.309l-8.655-6.927a1.337,1.337,0,0,0-.979-.369l-6.977,1.592a1.912,1.912,0,0,1-1.547-.47,3.463,3.463,0,0,1-.493-.464M8.9,35.068a2.755,2.755,0,0,1,.722,1.617L9.9,45.2a2.263,2.263,0,0,0,.924,1.522,1.261,1.261,0,0,0,.939.336l6.975-1.592a1.981,1.981,0,0,1,1.6.511L29,52.9c.5.394.908.437,1.082.308l4.129-3.593-7.38-7.959L28.7,40.093l.043.1,6.75-5.9-4.293.9-.189-.105-9-4.3a3.278,3.278,0,0,1-1.357-1.29L19.45,27.406l.28-.187-.14-.132,2.019-2.141L17.38,15.412,13.389,18.9a.291.291,0,0,0-.081.13l-2.015,6.053L5.008,21.331.843,24.971c-.211.187-.133.891.451,1.528l7.581,8.548.02.022" transform="translate(0 -2.018)" fill="#120d0c"/><path d="M20.578,15.967,26.1,25.508a2.916,2.916,0,0,0,1.2,1.143l9,4.3c1.172.559,1.912,2.163,1.252,2.714L32.489,37.9a1.016,1.016,0,0,0-.148,1.137l3.27,9.531c.426,1.241-.586,1.73-1.713.828l-8.655-6.927a1.647,1.647,0,0,0-1.291-.441l-6.975,1.591c-.908.208-2.273-1.094-2.311-2.2L14.381,32.9a2.4,2.4,0,0,0-.649-1.409L6.15,22.945c-.987-1.113-.818-2.407.285-2.19l8.478,1.666a.7.7,0,0,0,.889-.43l2.29-6.874c.3-.895,1.768-.393,2.487.849" transform="translate(-0.764 -2.037)" fill="#feedcc"/><path d="M7.17,24.131l6.876,7.751a2.4,2.4,0,0,1,.649,1.409l.286,8.512c.037,1.108,1.4,2.409,2.31,2.2l6.976-1.592a1.648,1.648,0,0,1,1.291.441l6.548,5.241-2.164-6.3a1.017,1.017,0,0,1,.148-1.136l2.542-2.124a.64.64,0,0,1,.17-.246l2.535-2.118c.279-.685-.414-1.968-1.436-2.457l-9-4.3a2.916,2.916,0,0,1-1.2-1.143L18.18,18.727a3.049,3.049,0,0,0-.6-.737l-1.463,4.392a.7.7,0,0,1-.89.431l-1.1-.217L13.4,24.752a.705.705,0,0,1-.89.43Z" transform="translate(-0.996 -2.499)" fill="#febd33"/><path d="M14.959,42.978a2.716,2.716,0,0,1-.716-1.613l-.286-8.512a2.006,2.006,0,0,0-.557-1.177L5.817,23.129a2.169,2.169,0,0,1-.588-2.321,1.071,1.071,0,0,1,1.218-.471L14.925,22c.255.05.413-.013.47-.186l2.29-6.874a1,1,0,0,1,.875-.7,2.674,2.674,0,0,1,2.277,1.48l5.526,9.542a2.548,2.548,0,0,0,1.04,1l9,4.3a3.169,3.169,0,0,1,1.694,2.229,1.178,1.178,0,0,1-.365,1.1l-5.062,4.231c-.137.115-.152.4-.037.737L35.9,48.384a1.314,1.314,0,0,1-.321,1.584,1.668,1.668,0,0,1-1.968-.35l-8.655-6.927a1.338,1.338,0,0,0-.98-.369L17,43.913a1.908,1.908,0,0,1-1.548-.47,3.508,3.508,0,0,1-.493-.464m-.993-11.767a2.751,2.751,0,0,1,.723,1.617l.286,8.513a2.272,2.272,0,0,0,.924,1.521,1.257,1.257,0,0,0,.939.336l6.976-1.591a1.976,1.976,0,0,1,1.6.511l8.655,6.927c.5.4.913.446,1.088.323.152-.107.171-.393.05-.747l-3.271-9.531a1.357,1.357,0,0,1,.26-1.536l5.062-4.231a.5.5,0,0,0,.108-.442,2.407,2.407,0,0,0-1.283-1.661l-9-4.3a3.3,3.3,0,0,1-1.358-1.289L20.2,16.091a2.014,2.014,0,0,0-1.569-1.118.265.265,0,0,0-.254.2l-2.289,6.873a1.067,1.067,0,0,1-1.307.673L6.307,21.055c-.224-.044-.373,0-.441.115a1.439,1.439,0,0,0,.5,1.472l7.581,8.548.019.022" transform="translate(-0.705 -1.978)" fill="#120d0c"/><path d="M16.345,47.367l-4.366,3.815,1.032.626,8.1-1.5,4.551-3.977-1.374.167-6.414,1.512-.9.077Z" transform="translate(-1.664 -6.436)" fill="#120d0c"/><rect width="5.779" height="0.759" transform="translate(8.838 33.739) rotate(-41.18)" fill="#120d0c"/><rect width="5.778" height="0.758" transform="translate(1.085 24.867) rotate(-41.18)" fill="#120d0c"/><path d="M37.1,54.614l-4.279,3.74,1.08.88.95-.159,4.072-3.558Z" transform="translate(-4.56 -7.587)" fill="#120d0c"/><rect width="7.138" height="0.569" transform="matrix(0.978, -0.21, 0.21, 0.978, 11.381, 45.49)" fill="#febd33"/><path d="M34.3,60.127a1.417,1.417,0,0,1-1.162-.57l.47-.32a.937.937,0,0,0,1.187.216l.212.529a1.907,1.907,0,0,1-.708.146" transform="translate(-4.603 -8.229)" fill="#febd33"/><path d="M61.141,114.358a.407.407,0,0,1,0,.77,1.472,1.472,0,0,1-1.333,0,.407.407,0,0,1,0-.77,1.472,1.472,0,0,1,1.333,0" transform="translate(-8.27 -15.864)" fill="#16110d"/><path d="M57.094,112.022a.407.407,0,0,1,0,.77,1.472,1.472,0,0,1-1.333,0,.406.406,0,0,1,0-.77,1.472,1.472,0,0,1,1.333,0" transform="translate(-7.708 -15.539)" fill="#16110d"/><path d="M53.047,109.685a.407.407,0,0,1,0,.77,1.477,1.477,0,0,1-1.333,0,.407.407,0,0,1,0-.77,1.472,1.472,0,0,1,1.333,0" transform="translate(-7.145 -15.214)" fill="#16110d"/><path d="M49,107.348a.407.407,0,0,1,0,.77,1.472,1.472,0,0,1-1.333,0,.406.406,0,0,1,0-.77,1.472,1.472,0,0,1,1.333,0" transform="translate(-6.583 -14.89)" fill="#16110d"/><path d="M48.854,103.079a.406.406,0,0,1,0,.77,1.472,1.472,0,0,1-1.333,0,.406.406,0,0,1,0-.77,1.472,1.472,0,0,1,1.333,0" transform="translate(-6.563 -14.297)" fill="#16110d"/><path d="M52.9,100.742a.406.406,0,0,1,0,.77,1.477,1.477,0,0,1-1.333,0,.407.407,0,0,1,0-.77,1.472,1.472,0,0,1,1.333,0" transform="translate(-7.125 -13.972)" fill="#16110d"/><path d="M67.946,114.416a1.475,1.475,0,0,1,1.333,0,.407.407,0,0,1,0,.77,1.475,1.475,0,0,1-1.333,0,.406.406,0,0,1,0-.77" transform="translate(-9.4 -15.872)" fill="#16110d"/><path d="M73.331,112.076a.407.407,0,0,1,0,.77,1.472,1.472,0,0,1-1.333,0,.406.406,0,0,1,0-.77,1.472,1.472,0,0,1,1.333,0" transform="translate(-9.963 -15.547)" fill="#16110d"/><path d="M77.378,109.74a.406.406,0,0,1,0,.77,1.472,1.472,0,0,1-1.333,0,.407.407,0,0,1,0-.77,1.472,1.472,0,0,1,1.333,0" transform="translate(-10.525 -15.222)" fill="#16110d"/><path d="M81.425,107.4a.407.407,0,0,1,0,.77,1.477,1.477,0,0,1-1.333,0,.407.407,0,0,1,0-.77,1.472,1.472,0,0,1,1.333,0" transform="translate(-11.088 -14.897)" fill="#16110d"/><path d="M85.473,105.066a.407.407,0,0,1,0,.77,1.472,1.472,0,0,1-1.333,0,.406.406,0,0,1,0-.77,1.472,1.472,0,0,1,1.333,0" transform="translate(-11.65 -14.573)" fill="#16110d"/><path d="M89.52,102.73a.406.406,0,0,1,0,.77,1.472,1.472,0,0,1-1.333,0,.407.407,0,0,1,0-.77,1.472,1.472,0,0,1,1.333,0" transform="translate(-12.212 -14.248)" fill="#16110d"/><path d="M93.567,100.393a.407.407,0,0,1,0,.77,1.472,1.472,0,0,1-1.333,0,.407.407,0,0,1,0-.77,1.472,1.472,0,0,1,1.333,0" transform="translate(-12.774 -13.924)" fill="#16110d"/><path d="M97.614,98.056a.407.407,0,0,1,0,.77,1.477,1.477,0,0,1-1.333,0,.407.407,0,0,1,0-.77,1.472,1.472,0,0,1,1.333,0" transform="translate(-13.336 -13.599)" fill="#16110d"/><path d="M101.662,95.72a.407.407,0,0,1,0,.77,1.472,1.472,0,0,1-1.333,0,.406.406,0,0,1,0-.77,1.472,1.472,0,0,1,1.333,0" transform="translate(-13.899 -13.275)" fill="#16110d"/><path d="M105.709,93.383a.406.406,0,0,1,0,.77,1.472,1.472,0,0,1-1.333,0,.407.407,0,0,1,0-.77,1.472,1.472,0,0,1,1.333,0" transform="translate(-14.461 -12.95)" fill="#16110d"/><path d="M109.756,91.046a.407.407,0,0,1,0,.77,1.477,1.477,0,0,1-1.333,0,.407.407,0,0,1,0-.77,1.472,1.472,0,0,1,1.333,0" transform="translate(-15.023 -12.625)" fill="#16110d"/><path d="M113.8,88.71a.406.406,0,0,1,0,.77,1.472,1.472,0,0,1-1.333,0,.406.406,0,0,1,0-.77,1.472,1.472,0,0,1,1.333,0" transform="translate(-15.585 -12.301)" fill="#16110d"/><path d="M117.851,86.373a.406.406,0,0,1,0,.77,1.472,1.472,0,0,1-1.333,0,.407.407,0,0,1,0-.77,1.472,1.472,0,0,1,1.333,0" transform="translate(-16.148 -11.976)" fill="#16110d"/><path d="M121.9,84.036a.407.407,0,0,1,0,.77,1.472,1.472,0,0,1-1.333,0,.407.407,0,0,1,0-.77,1.472,1.472,0,0,1,1.333,0" transform="translate(-16.71 -11.651)" fill="#16110d"/><path d="M125.945,81.7a.407.407,0,0,1,0,.77,1.477,1.477,0,0,1-1.333,0,.406.406,0,0,1,0-.77,1.472,1.472,0,0,1,1.333,0" transform="translate(-17.272 -11.327)" fill="#16110d"/><path d="M63.864,112.055a1.475,1.475,0,0,1,1.333,0,.407.407,0,0,1,0,.77,1.475,1.475,0,0,1-1.333,0,.406.406,0,0,1,0-.77" transform="translate(-8.833 -15.544)" fill="#16110d"/><path d="M69.248,109.715a.407.407,0,0,1,0,.77,1.477,1.477,0,0,1-1.333,0,.406.406,0,0,1,0-.77,1.472,1.472,0,0,1,1.333,0" transform="translate(-9.396 -15.219)" fill="#16110d"/><path d="M73.3,107.378a.406.406,0,0,1,0,.77,1.472,1.472,0,0,1-1.333,0,.406.406,0,0,1,0-.77,1.472,1.472,0,0,1,1.333,0" transform="translate(-9.958 -14.894)" fill="#16110d"/><path d="M77.343,105.042a.407.407,0,0,1,0,.77,1.472,1.472,0,0,1-1.333,0,.407.407,0,0,1,0-.77,1.472,1.472,0,0,1,1.333,0" transform="translate(-10.52 -14.569)" fill="#16110d"/><path d="M81.39,102.705a.407.407,0,0,1,0,.77,1.477,1.477,0,0,1-1.333,0,.406.406,0,0,1,0-.77,1.472,1.472,0,0,1,1.333,0" transform="translate(-11.083 -14.245)" fill="#16110d"/><path d="M85.437,100.368a.406.406,0,0,1,0,.77,1.472,1.472,0,0,1-1.333,0,.407.407,0,0,1,0-.77,1.472,1.472,0,0,1,1.333,0" transform="translate(-11.645 -13.92)" fill="#16110d"/><path d="M89.485,98.032a.407.407,0,0,1,0,.77,1.472,1.472,0,0,1-1.333,0,.407.407,0,0,1,0-.77,1.472,1.472,0,0,1,1.333,0" transform="translate(-12.207 -13.596)" fill="#16110d"/><path d="M93.532,95.7a.407.407,0,0,1,0,.77,1.472,1.472,0,0,1-1.333,0,.407.407,0,0,1,0-.77,1.472,1.472,0,0,1,1.333,0" transform="translate(-12.769 -13.271)" fill="#16110d"/><path d="M97.579,93.358a.406.406,0,0,1,0,.77,1.477,1.477,0,0,1-1.333,0,.406.406,0,0,1,0-.77,1.472,1.472,0,0,1,1.333,0" transform="translate(-13.331 -12.946)" fill="#16110d"/><path d="M101.626,91.022a.406.406,0,0,1,0,.77,1.472,1.472,0,0,1-1.333,0,.407.407,0,0,1,0-.77,1.472,1.472,0,0,1,1.333,0" transform="translate(-13.894 -12.622)" fill="#16110d"/><path d="M105.674,88.685a.407.407,0,0,1,0,.77,1.472,1.472,0,0,1-1.333,0,.407.407,0,0,1,0-.77,1.472,1.472,0,0,1,1.333,0" transform="translate(-14.456 -12.297)" fill="#16110d"/><path d="M109.721,86.348a.407.407,0,0,1,0,.77,1.477,1.477,0,0,1-1.333,0,.406.406,0,0,1,0-.77,1.472,1.472,0,0,1,1.333,0" transform="translate(-15.018 -11.973)" fill="#16110d"/><path d="M113.768,84.012a.406.406,0,0,1,0,.77,1.472,1.472,0,0,1-1.333,0,.406.406,0,0,1,0-.77,1.472,1.472,0,0,1,1.333,0" transform="translate(-15.58 -11.648)" fill="#16110d"/><path d="M117.816,81.675a.407.407,0,0,1,0,.77,1.472,1.472,0,0,1-1.333,0,.407.407,0,0,1,0-.77,1.472,1.472,0,0,1,1.333,0" transform="translate(-16.143 -11.324)" fill="#16110d"/><path d="M121.863,79.338a.407.407,0,0,1,0,.77,1.472,1.472,0,0,1-1.333,0,.406.406,0,0,1,0-.77,1.472,1.472,0,0,1,1.333,0" transform="translate(-16.705 -10.999)" fill="#16110d"/><path d="M125.91,77a.406.406,0,0,1,0,.77,1.477,1.477,0,0,1-1.333,0,.407.407,0,0,1,0-.77,1.472,1.472,0,0,1,1.333,0" transform="translate(-17.267 -10.674)" fill="#16110d"/><path d="M59.817,109.718a1.475,1.475,0,0,1,1.333,0,.407.407,0,0,1,0,.77,1.475,1.475,0,0,1-1.333,0,.406.406,0,0,1,0-.77" transform="translate(-8.271 -15.219)" fill="#16110d"/><path d="M65.2,107.378a.407.407,0,0,1,0,.77,1.472,1.472,0,0,1-1.333,0,.407.407,0,0,1,0-.77,1.472,1.472,0,0,1,1.333,0" transform="translate(-8.834 -14.894)" fill="#16110d"/><path d="M69.248,105.042a.407.407,0,0,1,0,.77,1.472,1.472,0,0,1-1.333,0,.407.407,0,0,1,0-.77,1.472,1.472,0,0,1,1.333,0" transform="translate(-9.396 -14.569)" fill="#16110d"/><path d="M73.3,102.705a.407.407,0,0,1,0,.77,1.477,1.477,0,0,1-1.333,0,.406.406,0,0,1,0-.77,1.472,1.472,0,0,1,1.333,0" transform="translate(-9.958 -14.245)" fill="#16110d"/><path d="M77.343,100.368a.406.406,0,0,1,0,.77,1.472,1.472,0,0,1-1.333,0,.407.407,0,0,1,0-.77,1.472,1.472,0,0,1,1.333,0" transform="translate(-10.52 -13.92)" fill="#16110d"/><path d="M81.39,98.032a.407.407,0,0,1,0,.77,1.472,1.472,0,0,1-1.333,0,.407.407,0,0,1,0-.77,1.472,1.472,0,0,1,1.333,0" transform="translate(-11.083 -13.596)" fill="#16110d"/><path d="M85.438,95.7a.407.407,0,0,1,0,.77,1.477,1.477,0,0,1-1.333,0,.406.406,0,0,1,0-.77,1.472,1.472,0,0,1,1.333,0" transform="translate(-11.645 -13.271)" fill="#16110d"/><path d="M89.485,93.358a.406.406,0,0,1,0,.77,1.472,1.472,0,0,1-1.333,0,.406.406,0,0,1,0-.77,1.472,1.472,0,0,1,1.333,0" transform="translate(-12.207 -12.946)" fill="#16110d"/><path d="M93.532,91.022a.407.407,0,0,1,0,.77,1.472,1.472,0,0,1-1.333,0,.407.407,0,0,1,0-.77,1.472,1.472,0,0,1,1.333,0" transform="translate(-12.769 -12.622)" fill="#16110d"/><path d="M97.579,88.685a.407.407,0,0,1,0,.77,1.472,1.472,0,0,1-1.333,0,.406.406,0,0,1,0-.77,1.472,1.472,0,0,1,1.333,0" transform="translate(-13.331 -12.297)" fill="#16110d"/><path d="M101.626,86.348a.406.406,0,0,1,0,.77,1.477,1.477,0,0,1-1.333,0,.407.407,0,0,1,0-.77,1.472,1.472,0,0,1,1.333,0" transform="translate(-13.894 -11.973)" fill="#16110d"/><path d="M105.674,84.012a.407.407,0,0,1,0,.77,1.472,1.472,0,0,1-1.333,0,.406.406,0,0,1,0-.77,1.472,1.472,0,0,1,1.333,0" transform="translate(-14.456 -11.648)" fill="#16110d"/><path d="M109.721,81.675a.407.407,0,0,1,0,.77,1.472,1.472,0,0,1-1.333,0,.407.407,0,0,1,0-.77,1.472,1.472,0,0,1,1.333,0" transform="translate(-15.018 -11.324)" fill="#16110d"/><path d="M113.768,79.338a.407.407,0,0,1,0,.77,1.472,1.472,0,0,1-1.333,0,.406.406,0,0,1,0-.77,1.472,1.472,0,0,1,1.333,0" transform="translate(-15.58 -10.999)" fill="#16110d"/><path d="M117.816,77a.406.406,0,0,1,0,.77,1.472,1.472,0,0,1-1.333,0,.407.407,0,0,1,0-.77,1.472,1.472,0,0,1,1.333,0" transform="translate(-16.143 -10.674)" fill="#16110d"/><path d="M55.77,107.381a1.475,1.475,0,0,1,1.333,0,.407.407,0,0,1,0,.77,1.475,1.475,0,0,1-1.333,0,.406.406,0,0,1,0-.77" transform="translate(-7.709 -14.894)" fill="#16110d"/><path d="M61.154,105.042a.407.407,0,0,1,0,.77,1.472,1.472,0,0,1-1.333,0,.406.406,0,0,1,0-.77,1.472,1.472,0,0,1,1.333,0" transform="translate(-8.272 -14.569)" fill="#16110d"/><path d="M65.2,102.705a.406.406,0,0,1,0,.77,1.472,1.472,0,0,1-1.333,0,.407.407,0,0,1,0-.77,1.472,1.472,0,0,1,1.333,0" transform="translate(-8.834 -14.245)" fill="#16110d"/><path d="M69.248,100.368a.407.407,0,0,1,0,.77,1.472,1.472,0,0,1-1.333,0,.407.407,0,0,1,0-.77,1.472,1.472,0,0,1,1.333,0" transform="translate(-9.396 -13.92)" fill="#16110d"/><path d="M73.3,98.032a.407.407,0,0,1,0,.77,1.472,1.472,0,0,1-1.333,0,.406.406,0,0,1,0-.77,1.472,1.472,0,0,1,1.333,0" transform="translate(-9.958 -13.596)" fill="#16110d"/><path d="M77.343,95.7a.406.406,0,0,1,0,.77,1.477,1.477,0,0,1-1.333,0,.407.407,0,0,1,0-.77,1.472,1.472,0,0,1,1.333,0" transform="translate(-10.52 -13.271)" fill="#16110d"/><path d="M81.39,93.358a.406.406,0,0,1,0,.77,1.472,1.472,0,0,1-1.333,0,.406.406,0,0,1,0-.77,1.472,1.472,0,0,1,1.333,0" transform="translate(-11.083 -12.946)" fill="#16110d"/><path d="M85.438,91.022a.407.407,0,0,1,0,.77,1.472,1.472,0,0,1-1.333,0,.407.407,0,0,1,0-.77,1.472,1.472,0,0,1,1.333,0" transform="translate(-11.645 -12.622)" fill="#16110d"/><path d="M89.53,88.711a.407.407,0,0,1,0,.77,1.472,1.472,0,0,1-1.333,0Z" transform="translate(-12.252 -12.323)" fill="#16110d"/><path d="M92.2,86.348a1.472,1.472,0,0,1,1.333,0,.406.406,0,0,1,0,.77,1.477,1.477,0,0,1-1.333,0,.407.407,0,0,1,0-.77" transform="translate(-12.769 -11.973)" fill="#16110d"/><path d="M97.579,84.012a.406.406,0,0,1,0,.77,1.472,1.472,0,0,1-1.333,0,.406.406,0,0,1,0-.77,1.472,1.472,0,0,1,1.333,0" transform="translate(-13.331 -11.648)" fill="#16110d"/><path d="M101.627,81.675a.407.407,0,0,1,0,.77,1.472,1.472,0,0,1-1.333,0,.406.406,0,0,1,0-.77,1.472,1.472,0,0,1,1.333,0" transform="translate(-13.894 -11.324)" fill="#16110d"/><path d="M105.674,79.338a.406.406,0,0,1,0,.77,1.477,1.477,0,0,1-1.333,0,.407.407,0,0,1,0-.77,1.472,1.472,0,0,1,1.333,0" transform="translate(-14.456 -10.999)" fill="#16110d"/><path d="M109.721,77a.407.407,0,0,1,0,.77,1.472,1.472,0,0,1-1.333,0,.407.407,0,0,1,0-.77,1.472,1.472,0,0,1,1.333,0" transform="translate(-15.018 -10.674)" fill="#16110d"/><path d="M113.768,74.665a.407.407,0,0,1,0,.77,1.472,1.472,0,0,1-1.333,0,.406.406,0,0,1,0-.77,1.472,1.472,0,0,1,1.333,0" transform="translate(-15.58 -10.35)" fill="#16110d"/><path d="M51.722,105.045a1.475,1.475,0,0,1,1.333,0,.407.407,0,0,1,0,.77,1.475,1.475,0,0,1-1.333,0,.406.406,0,0,1,0-.77" transform="translate(-7.147 -14.57)" fill="#16110d"/><path d="M57.107,102.705a.407.407,0,0,1,0,.77,1.472,1.472,0,0,1-1.333,0,.407.407,0,0,1,0-.77,1.472,1.472,0,0,1,1.333,0" transform="translate(-7.709 -14.245)" fill="#16110d"/><path d="M101.672,77.028a.406.406,0,0,1,0,.77,1.472,1.472,0,0,1-1.333,0Z" transform="translate(-13.938 -10.7)" fill="#16110d"/><path d="M89.067,74.6l.007-10.157L102.686,72.3,102.68,82.46Z" transform="translate(-12.372 -8.952)" fill="#ffbe2e"/><path d="M89.074,63.292l12.436-7.146L115.123,64l-12.436,7.146Z" transform="translate(-12.373 -7.799)" fill="#ffbe2e"/><path d="M89.3,67.185l12.24-7.03,13.613,7.86L102.6,74.836Z" transform="translate(-12.405 -8.356)" fill="#fec"/><path d="M101.417,55.374,88.4,62.852,88.4,73.673l14.188,8.192L115.6,74.387l.007-10.821Zm.6,24.83-12.463-7.2.007-8.827,12.462,7.194ZM90.134,63.186,101.415,56.7,113.876,63.9l-11.281,6.482Z" transform="translate(-12.28 -7.692)" fill="#16110d"/><path d="M68.326,81.455V38.314l13.613,7.86v43.14Z" transform="translate(-9.491 -5.322)" fill="#ffbe2e"/><path d="M68.326,37.161l12.436-7.146,13.613,7.859L81.939,45.021Z" transform="translate(-9.491 -4.169)" fill="#ffbe2e"/><path d="M68.553,41.055l12.24-7.03,13.613,7.86L81.855,48.706Z" transform="translate(-9.523 -4.727)" fill="#fec"/><path d="M80.669,29.244,67.657,36.722V80.528l14.188,8.192,13.012-7.478V37.436Zm.6,57.814L68.808,79.864V38.052L81.27,45.246Zm-11.884-50,11.281-6.483,12.461,7.194L81.847,44.25Z" transform="translate(-9.398 -4.062)" fill="#16110d"/><path d="M47.659,97.659v-14.2l13.613,7.859v14.2Z" transform="translate(-6.62 -11.593)" fill="#ffbe2e"/><path d="M47.659,82.306,60.1,75.16l13.613,7.859L61.272,90.165Z" transform="translate(-6.62 -10.441)" fill="#ffbe2e"/><path d="M47.886,86.2l12.24-7.03L73.74,87.03,61.188,93.85Z" transform="translate(-6.652 -10.998)" fill="#fec"/><path d="M60,74.388,46.991,81.866V96.732l14.188,8.192,13.012-7.479V82.58Zm.6,28.874L48.142,96.068V83.2L60.6,90.39ZM48.72,82.2,60,75.717l12.461,7.194L61.181,89.394Z" transform="translate(-6.528 -10.333)" fill="#16110d"/><path d="M91.219,50.254l1.27-.732V67.2L90.7,68.237V53.346a4.4,4.4,0,0,1-.834,1.12,5.259,5.259,0,0,1-1.061.839V53.858a6.368,6.368,0,0,0,1.4-1.5,7.435,7.435,0,0,0,1.013-2.1" transform="translate(-12.336 -6.879)" fill="#fec"/></g></g></g></svg>