<svg xmlns="http://www.w3.org/2000/svg" xmlns:xlink="http://www.w3.org/1999/xlink" width="140" height="140" viewBox="0 0 140 140"><defs><clipPath id="a"><rect width="140" height="88.685" fill="rgba(0,0,0,0)"/></clipPath></defs><g transform="translate(6282 10096)"><rect width="140" height="140" transform="translate(-6282 -10096)" fill="none"/><g transform="translate(-6282 -10070)" style="isolation:isolate"><g transform="translate(0 0)" clip-path="url(#a)"><path d="M154.3,24.138,133.5,12.132a1.123,1.123,0,0,0-1.086-.112.79.79,0,0,0-.115.072l-3.009,1.814a.259.259,0,0,0-.091.347l1.627,2.937V28.567a4.126,4.126,0,0,0,1.723,3.293l16.384,9.459,3.214,4.065,3.237-1.957a1.492,1.492,0,0,0,.634-1.414V27.43a4.127,4.127,0,0,0-1.724-3.293" transform="translate(-16.389 -1.513)" fill="#febd33"/><path d="M154.163,25.577,133.369,13.572a1.12,1.12,0,0,0-1.086-.112.938.938,0,0,0-.116.071l-3.008,1.815a.259.259,0,0,0-.091.346l1.627,2.937V30.007a4.128,4.128,0,0,0,1.723,3.293L148.8,42.758l1.714,1.438,3.46-.678c.387-.2,1.91.654,1.91-.064V28.87a4.127,4.127,0,0,0-1.724-3.293" transform="translate(-16.372 -1.696)" fill="#feedcc"/><path d="M152.009,45.815l-3.372-4.266-16.323-9.424a4.471,4.471,0,0,1-1.908-3.612V17.232l-1.579-2.854a.627.627,0,0,1,.219-.839l3.012-1.816a.93.93,0,0,1,.139-.085,1.486,1.486,0,0,1,1.438.122l20.793,12.005a4.467,4.467,0,0,1,1.907,3.611V41.96A1.844,1.844,0,0,1,155.5,43.7Zm-22.486-31.7,1.621,2.928V28.513a3.784,3.784,0,0,0,1.538,2.973l16.49,9.549,3.012,3.811,2.957-1.788a1.179,1.179,0,0,0,.456-1.1V27.376a3.784,3.784,0,0,0-1.538-2.973l-20.793-12a.8.8,0,0,0-.734-.1.566.566,0,0,0-.069.043Z" transform="translate(-16.335 -1.46)" fill="#15100c"/><path d="M150.915,45.59l-20.793-12a4.129,4.129,0,0,1-1.724-3.293V15.71c0-1.27.772-1.853,1.724-1.3l20.793,12a4.127,4.127,0,0,1,1.724,3.293V44.288c0,1.269-.772,1.852-1.724,1.3" transform="translate(-16.291 -1.802)" fill="#febd33"/><path d="M151.547,46.114a1.752,1.752,0,0,1-.87-.257h0l-20.793-12a4.47,4.47,0,0,1-1.907-3.612V15.656a1.883,1.883,0,0,1,.78-1.713,1.462,1.462,0,0,1,1.5.091l20.793,12.005a4.471,4.471,0,0,1,1.908,3.612V44.235a1.881,1.881,0,0,1-.78,1.712,1.239,1.239,0,0,1-.627.167m-.5-.9a.773.773,0,0,0,.759.091,1.216,1.216,0,0,0,.411-1.073V29.651a3.784,3.784,0,0,0-1.539-2.973L129.883,14.673a.778.778,0,0,0-.758-.091,1.217,1.217,0,0,0-.411,1.074V30.24a3.785,3.785,0,0,0,1.538,2.973l20.793,12.005Z" transform="translate(-16.237 -1.748)" fill="#15100c"/><path d="M143.211,39.941l-1.651-.953a1.782,1.782,0,0,1-.744-1.422V26.553c0-.548.333-.8.744-.563l1.651.953a1.783,1.783,0,0,1,.745,1.422V39.378c0,.548-.334.8-.745.563" transform="translate(-17.866 -3.286)" fill="#feedcc"/><path d="M142.477,38.339A.961.961,0,0,1,142,38.2l-1.651-.953a2.124,2.124,0,0,1-.929-1.742V24.492a1.013,1.013,0,0,1,.441-.921.85.85,0,0,1,.857.038l1.65.953a2.13,2.13,0,0,1,.93,1.743V37.317a1.018,1.018,0,0,1-.443.923.751.751,0,0,1-.375.1m-2.243-14.13h-.007c-.012.005-.073.079-.073.282V35.5a1.422,1.422,0,0,0,.561,1.1l1.651.953c.072.043.111.044.118.039s.072-.079.072-.283V26.305A1.425,1.425,0,0,0,142,25.2l-1.65-.953a.244.244,0,0,0-.111-.04" transform="translate(-17.689 -2.978)" fill="#15100c"/><path d="M148.536,43.62l-1.925-1.111a1.455,1.455,0,0,1-.607-1.16V34.195c0-.448.272-.653.607-.459l1.925,1.111a1.454,1.454,0,0,1,.608,1.16v7.154c0,.447-.272.653-.608.459" transform="translate(-18.525 -4.271)" fill="#feedcc"/><path d="M147.748,42a.856.856,0,0,1-.428-.123L145.4,40.767a1.8,1.8,0,0,1-.792-1.479V32.134a.892.892,0,0,1,.394-.811.755.755,0,0,1,.767.032l1.925,1.111a1.805,1.805,0,0,1,.792,1.48V41.1a.892.892,0,0,1-.395.811.682.682,0,0,1-.34.09m-.058-.761a.221.221,0,0,0,.046.021c-.011-.012.008-.067.008-.161V33.947a1.1,1.1,0,0,0-.423-.841L145.4,31.993c-.03-.029-.054.029-.054.141v7.153a1.1,1.1,0,0,0,.423.84Z" transform="translate(-18.347 -3.963)" fill="#15100c"/><path d="M138.419,38.4,136.33,37.2a1.256,1.256,0,0,1-.526-1V33.419c0-.386.235-.564.526-.4l2.089,1.206a1.259,1.259,0,0,1,.525,1v2.775c0,.387-.235.565-.525.4" transform="translate(-17.23 -4.182)" fill="#feedcc"/><path d="M137.6,36.775a.792.792,0,0,1-.394-.112h0l-2.089-1.207a1.616,1.616,0,0,1-.71-1.323V31.359a.82.82,0,0,1,.367-.745.7.7,0,0,1,.712.028l2.089,1.207a1.616,1.616,0,0,1,.71,1.323v2.775a.82.82,0,0,1-.365.744.626.626,0,0,1-.32.086M135.147,31.3a.542.542,0,0,0,0,.059v2.775a.91.91,0,0,0,.341.685l2.058,1.187a.545.545,0,0,0,0-.059V33.171a.908.908,0,0,0-.341-.684Z" transform="translate(-17.053 -3.874)" fill="#15100c"/><path d="M155.738,29.8l3.284-1.986.369,1.631-.049,15.1-.585.9-2.9,1.621.254-14.581Z" transform="translate(-19.76 -3.529)" fill="#16110d"/><path d="M124.3,100.624a.354.354,0,0,1,0,.671,1.287,1.287,0,0,1-1.163,0,.355.355,0,0,1,0-.671,1.287,1.287,0,0,1,1.163,0" transform="translate(-15.593 -12.749)" fill="#16110d"/><path d="M127.783,98.614a.355.355,0,0,1,0,.671,1.287,1.287,0,0,1-1.163,0,.354.354,0,0,1,0-.671,1.287,1.287,0,0,1,1.163,0" transform="translate(-16.035 -12.494)" fill="#16110d"/><path d="M131.264,96.6a.354.354,0,0,1,0,.671,1.287,1.287,0,0,1-1.163,0,.355.355,0,0,1,0-.671,1.287,1.287,0,0,1,1.163,0" transform="translate(-16.476 -12.239)" fill="#16110d"/><path d="M134.746,94.594a.354.354,0,0,1,0,.671,1.287,1.287,0,0,1-1.163,0,.355.355,0,0,1,0-.671,1.287,1.287,0,0,1,1.163,0" transform="translate(-16.918 -11.984)" fill="#16110d"/><path d="M138.227,92.584a.354.354,0,0,1,0,.671,1.287,1.287,0,0,1-1.163,0,.355.355,0,0,1,0-.671,1.287,1.287,0,0,1,1.163,0" transform="translate(-17.36 -11.729)" fill="#16110d"/><path d="M117.338,100.624a.354.354,0,0,1,0,.671,1.287,1.287,0,0,1-1.163,0,.355.355,0,0,1,0-.671,1.287,1.287,0,0,1,1.163,0" transform="translate(-14.709 -12.749)" fill="#16110d"/><path d="M120.819,98.614a.354.354,0,0,1,0,.671,1.287,1.287,0,0,1-1.163,0,.355.355,0,0,1,0-.671,1.287,1.287,0,0,1,1.163,0" transform="translate(-15.151 -12.494)" fill="#16110d"/><path d="M124.3,96.6a.354.354,0,0,1,0,.671,1.287,1.287,0,0,1-1.163,0,.355.355,0,0,1,0-.671,1.287,1.287,0,0,1,1.163,0" transform="translate(-15.593 -12.239)" fill="#16110d"/><path d="M127.783,94.594a.355.355,0,0,1,0,.671,1.287,1.287,0,0,1-1.163,0,.354.354,0,0,1,0-.671,1.287,1.287,0,0,1,1.163,0" transform="translate(-16.035 -11.984)" fill="#16110d"/><path d="M131.264,92.584a.354.354,0,0,1,0,.671,1.287,1.287,0,0,1-1.163,0,.355.355,0,0,1,0-.671,1.287,1.287,0,0,1,1.163,0" transform="translate(-16.476 -11.729)" fill="#16110d"/><path d="M134.746,90.574a.354.354,0,0,1,0,.671,1.287,1.287,0,0,1-1.163,0,.355.355,0,0,1,0-.671,1.287,1.287,0,0,1,1.163,0" transform="translate(-16.918 -11.474)" fill="#16110d"/><path d="M138.227,88.564a.354.354,0,0,1,0,.671,1.287,1.287,0,0,1-1.163,0,.355.355,0,0,1,0-.671,1.287,1.287,0,0,1,1.163,0" transform="translate(-17.36 -11.219)" fill="#16110d"/><path d="M113.856,98.614a.354.354,0,0,1,0,.671,1.287,1.287,0,0,1-1.163,0,.355.355,0,0,1,0-.671,1.287,1.287,0,0,1,1.163,0" transform="translate(-14.268 -12.494)" fill="#16110d"/><path d="M117.338,96.6a.354.354,0,0,1,0,.671,1.287,1.287,0,0,1-1.163,0,.354.354,0,0,1,0-.671,1.287,1.287,0,0,1,1.163,0" transform="translate(-14.709 -12.239)" fill="#16110d"/><path d="M120.819,94.594a.354.354,0,0,1,0,.671,1.287,1.287,0,0,1-1.163,0,.355.355,0,0,1,0-.671,1.287,1.287,0,0,1,1.163,0" transform="translate(-15.151 -11.984)" fill="#16110d"/><path d="M124.3,92.584a.354.354,0,0,1,0,.671,1.287,1.287,0,0,1-1.163,0,.355.355,0,0,1,0-.671,1.287,1.287,0,0,1,1.163,0" transform="translate(-15.593 -11.729)" fill="#16110d"/><path d="M127.783,90.574a.354.354,0,0,1,0,.671,1.287,1.287,0,0,1-1.163,0,.355.355,0,0,1,0-.671,1.287,1.287,0,0,1,1.163,0" transform="translate(-16.035 -11.474)" fill="#16110d"/><path d="M131.264,88.564a.354.354,0,0,1,0,.671,1.287,1.287,0,0,1-1.163,0,.355.355,0,0,1,0-.671,1.287,1.287,0,0,1,1.163,0" transform="translate(-16.476 -11.219)" fill="#16110d"/><path d="M134.746,86.553a.354.354,0,0,1,0,.671,1.287,1.287,0,0,1-1.163,0,.355.355,0,0,1,0-.671,1.287,1.287,0,0,1,1.163,0" transform="translate(-16.918 -10.964)" fill="#16110d"/><path d="M110.375,96.6a.354.354,0,0,1,0,.671,1.287,1.287,0,0,1-1.163,0,.355.355,0,0,1,0-.671,1.287,1.287,0,0,1,1.163,0" transform="translate(-13.826 -12.239)" fill="#16110d"/><path d="M113.856,94.594a.354.354,0,0,1,0,.671,1.287,1.287,0,0,1-1.163,0,.355.355,0,0,1,0-.671,1.287,1.287,0,0,1,1.163,0" transform="translate(-14.268 -11.984)" fill="#16110d"/><path d="M117.338,93.271a1.287,1.287,0,0,1-1.163,0,.354.354,0,0,1,0-.671c.321-.185,1.484.486,1.163.671" transform="translate(-14.709 -11.745)" fill="#16110d"/><path d="M106.893,94.594a.354.354,0,0,1,0,.671,1.287,1.287,0,0,1-1.163,0,.355.355,0,0,1,0-.671,1.287,1.287,0,0,1,1.163,0" transform="translate(-13.384 -11.984)" fill="#16110d"/><path d="M110.375,92.584a.354.354,0,0,1,0,.671,1.287,1.287,0,0,1-1.163,0,.355.355,0,0,1,0-.671,1.287,1.287,0,0,1,1.163,0" transform="translate(-13.826 -11.729)" fill="#16110d"/><path d="M103.381,92.563a.354.354,0,0,1,0,.671,1.287,1.287,0,0,1-1.163,0,.355.355,0,0,1,0-.671,1.287,1.287,0,0,1,1.163,0" transform="translate(-12.939 -11.726)" fill="#16110d"/><path d="M106.863,90.553a.354.354,0,0,1,0,.671,1.287,1.287,0,0,1-1.163,0,.355.355,0,0,1,0-.671,1.287,1.287,0,0,1,1.163,0" transform="translate(-13.38 -11.471)" fill="#16110d"/><path d="M99.9,90.553a.354.354,0,0,1,0,.671,1.287,1.287,0,0,1-1.163,0,.355.355,0,0,1,0-.671,1.287,1.287,0,0,1,1.163,0" transform="translate(-12.497 -11.471)" fill="#16110d"/><path d="M103.381,88.543a.354.354,0,0,1,0,.671,1.287,1.287,0,0,1-1.163,0,.355.355,0,0,1,0-.671,1.287,1.287,0,0,1,1.163,0" transform="translate(-12.939 -11.216)" fill="#16110d"/><path d="M99.9,86.532a.354.354,0,0,1,0,.671,1.287,1.287,0,0,1-1.163,0,.354.354,0,0,1,0-.671,1.287,1.287,0,0,1,1.163,0" transform="translate(-12.497 -10.961)" fill="#16110d"/><path d="M115.061,90.435l-13.291-7.673V67.415l13.291,7.673Z" transform="translate(-12.912 -8.553)" fill="#ffbe2e"/><path d="M128.352,66.3l-13.291,7.674L101.77,66.3l13.291-7.673Z" transform="translate(-12.912 -7.438)" fill="#ffbe2e"/><path d="M128.7,69.341l-10.865,6.22-13.291-7.674,10.865-6.219Z" transform="translate(-13.265 -7.824)" fill="#fec"/><path d="M115,58.109l-13.289,7.674-.391.24V81.806l13.29,7.674.39.225.39-.224,13.292-7.675v-15.8Zm0,.9,12.51,7.222-6.28,3.626L115,73.457l-1.961-1.132L102.5,66.233ZM102.1,81.356V66.91l12.51,7.223V88.578Z" transform="translate(-12.856 -7.373)" fill="#16110d"/><path d="M112.941,87.8l-2.028-1.171a1.409,1.409,0,0,1-.588-1.124V83.372c0-.433.264-.632.588-.445l2.028,1.172a1.409,1.409,0,0,1,.588,1.124v2.132c0,.433-.264.632-.588.444" transform="translate(-13.998 -10.513)" fill="#16110d"/><path d="M31.432,97.189a.28.28,0,0,1,0,.531,1.015,1.015,0,0,1-.919,0,.28.28,0,0,1,0-.531,1.015,1.015,0,0,1,.919,0" transform="translate(-3.847 -12.317)" fill="#16110d"/><path d="M34.186,95.6a.28.28,0,0,1,0,.531,1.015,1.015,0,0,1-.919,0,.28.28,0,0,1,0-.531,1.015,1.015,0,0,1,.919,0" transform="translate(-4.197 -12.115)" fill="#16110d"/><path d="M28.678,95.6a.28.28,0,0,1,0,.531,1.015,1.015,0,0,1-.919,0,.28.28,0,0,1,0-.531,1.015,1.015,0,0,1,.919,0" transform="translate(-3.498 -12.115)" fill="#16110d"/><path d="M31.432,94.008a.28.28,0,0,1,0,.531,1.015,1.015,0,0,1-.919,0,.28.28,0,0,1,0-.531,1.015,1.015,0,0,1,.919,0" transform="translate(-3.847 -11.914)" fill="#16110d"/><path d="M25.923,94.008a.28.28,0,0,1,0,.531,1.015,1.015,0,0,1-.919,0,.28.28,0,0,1,0-.531,1.015,1.015,0,0,1,.919,0" transform="translate(-3.148 -11.914)" fill="#16110d"/><path d="M28.678,92.418a.28.28,0,0,1,0,.531,1.016,1.016,0,0,1-.919,0,.28.28,0,0,1,0-.531,1.015,1.015,0,0,1,.919,0" transform="translate(-3.498 -11.712)" fill="#16110d"/><path d="M23.169,92.418a.28.28,0,0,1,0,.531,1.016,1.016,0,0,1-.919,0,.28.28,0,0,1,0-.531,1.015,1.015,0,0,1,.919,0" transform="translate(-2.799 -11.712)" fill="#16110d"/><path d="M25.923,90.828a.28.28,0,0,1,0,.531,1.015,1.015,0,0,1-.919,0,.28.28,0,0,1,0-.531,1.015,1.015,0,0,1,.919,0" transform="translate(-3.148 -11.51)" fill="#16110d"/><path d="M20.415,90.828a.28.28,0,0,1,0,.531,1.015,1.015,0,0,1-.919,0,.28.28,0,0,1,0-.531,1.015,1.015,0,0,1,.919,0" transform="translate(-2.449 -11.51)" fill="#16110d"/><path d="M23.169,89.238a.28.28,0,0,1,0,.531,1.015,1.015,0,0,1-.919,0,.28.28,0,0,1,0-.531,1.015,1.015,0,0,1,.919,0" transform="translate(-2.799 -11.308)" fill="#16110d"/><path d="M17.637,89.221a.28.28,0,0,1,0,.531,1.017,1.017,0,0,1-.92,0,.28.28,0,0,1,0-.531,1.017,1.017,0,0,1,.92,0" transform="translate(-2.097 -11.306)" fill="#16110d"/><path d="M20.391,87.631a.28.28,0,0,1,0,.531,1.015,1.015,0,0,1-.919,0,.28.28,0,0,1,0-.531,1.015,1.015,0,0,1,.919,0" transform="translate(-2.446 -11.104)" fill="#16110d"/><path d="M14.882,87.631a.28.28,0,0,1,0,.531,1.015,1.015,0,0,1-.919,0,.28.28,0,0,1,0-.531,1.015,1.015,0,0,1,.919,0" transform="translate(-1.747 -11.104)" fill="#16110d"/><path d="M17.637,86.041a.28.28,0,0,1,0,.531,1.017,1.017,0,0,1-.92,0,.28.28,0,0,1,0-.531,1.017,1.017,0,0,1,.92,0" transform="translate(-2.097 -10.903)" fill="#16110d"/><path d="M12.128,86.041a.28.28,0,0,1,0,.531,1.015,1.015,0,0,1-.919,0,.28.28,0,0,1,0-.531,1.016,1.016,0,0,1,.919,0" transform="translate(-1.398 -10.903)" fill="#16110d"/><path d="M14.882,84.45a.28.28,0,0,1,0,.531,1.015,1.015,0,0,1-.919,0,.28.28,0,0,1,0-.531,1.015,1.015,0,0,1,.919,0" transform="translate(-1.747 -10.701)" fill="#16110d"/><path d="M9.374,84.45a.28.28,0,0,1,0,.531,1.015,1.015,0,0,1-.919,0,.28.28,0,0,1,0-.531,1.015,1.015,0,0,1,.919,0" transform="translate(-1.048 -10.701)" fill="#16110d"/><path d="M12.128,82.86a.28.28,0,0,1,0,.531,1.015,1.015,0,0,1-.919,0,.28.28,0,0,1,0-.531,1.015,1.015,0,0,1,.919,0" transform="translate(-1.398 -10.499)" fill="#16110d"/><path d="M6.619,82.86a.28.28,0,0,1,0,.531,1.015,1.015,0,0,1-.919,0,.28.28,0,0,1,0-.531,1.015,1.015,0,0,1,.919,0" transform="translate(-0.699 -10.499)" fill="#16110d"/><path d="M9.374,81.27a.28.28,0,0,1,0,.531,1.015,1.015,0,0,1-.919,0,.28.28,0,0,1,0-.531,1.015,1.015,0,0,1,.919,0" transform="translate(-1.048 -10.297)" fill="#16110d"/><path d="M3.865,81.27a.28.28,0,0,1,0,.531,1.015,1.015,0,0,1-.919,0,.28.28,0,0,1,0-.531,1.015,1.015,0,0,1,.919,0" transform="translate(-0.35 -10.297)" fill="#16110d"/><path d="M6.619,79.68a.28.28,0,0,1,0,.531,1.015,1.015,0,0,1-.919,0,.28.28,0,0,1,0-.531,1.015,1.015,0,0,1,.919,0" transform="translate(-0.699 -10.096)" fill="#16110d"/><path d="M1.111,79.68a.28.28,0,0,1,0,.531,1.015,1.015,0,0,1-.919,0,.28.28,0,0,1,0-.531,1.015,1.015,0,0,1,.919,0" transform="translate(0 -10.096)" fill="#16110d"/><path d="M3.865,78.09a.28.28,0,0,1,0,.531,1.015,1.015,0,0,1-.919,0,.28.28,0,0,1,0-.531,1.015,1.015,0,0,1,.919,0" transform="translate(-0.35 -9.894)" fill="#16110d"/><path d="M1.111,76.5a.28.28,0,0,1,0,.531,1.015,1.015,0,0,1-.919,0,.28.28,0,0,1,0-.531,1.015,1.015,0,0,1,.919,0" transform="translate(0 -9.692)" fill="#16110d"/><path d="M37.049,96.934a.28.28,0,0,1,0,.531,1.015,1.015,0,0,1-.919,0,.28.28,0,0,1,0-.531,1.015,1.015,0,0,1,.919,0" transform="translate(-4.56 -12.285)" fill="#16110d"/><path d="M36.949,94.029a.28.28,0,0,1,0,.531,1.016,1.016,0,0,1-.919,0,.28.28,0,0,1,0-.531,1.015,1.015,0,0,1,.919,0" transform="translate(-4.547 -11.916)" fill="#16110d"/><path d="M39.7,92.439a.28.28,0,0,1,0,.531,1.015,1.015,0,0,1-.919,0,.28.28,0,0,1,0-.531,1.015,1.015,0,0,1,.919,0" transform="translate(-4.897 -11.714)" fill="#16110d"/><path d="M42.458,90.849a.28.28,0,0,1,0,.531,1.015,1.015,0,0,1-.919,0,.28.28,0,0,1,0-.531,1.015,1.015,0,0,1,.919,0" transform="translate(-5.246 -11.513)" fill="#16110d"/><path d="M45.212,89.258a.28.28,0,0,1,0,.531,1.015,1.015,0,0,1-.919,0,.28.28,0,0,1,0-.531,1.015,1.015,0,0,1,.919,0" transform="translate(-5.596 -11.311)" fill="#16110d"/><path d="M47.966,87.668a.28.28,0,0,1,0,.531,1.015,1.015,0,0,1-.919,0,.28.28,0,0,1,0-.531,1.015,1.015,0,0,1,.919,0" transform="translate(-5.945 -11.109)" fill="#16110d"/><path d="M50.721,86.078a.28.28,0,0,1,0,.531,1.015,1.015,0,0,1-.919,0,.28.28,0,0,1,0-.531,1.015,1.015,0,0,1,.919,0" transform="translate(-6.294 -10.907)" fill="#16110d"/><path d="M53.475,84.488a.28.28,0,0,1,0,.531,1.015,1.015,0,0,1-.919,0,.28.28,0,0,1,0-.531,1.015,1.015,0,0,1,.919,0" transform="translate(-6.644 -10.706)" fill="#16110d"/><path d="M56.23,82.9a.28.28,0,0,1,0,.531,1.015,1.015,0,0,1-.919,0,.28.28,0,0,1,0-.531,1.015,1.015,0,0,1,.919,0" transform="translate(-6.993 -10.504)" fill="#16110d"/><path d="M58.984,81.307a.28.28,0,0,1,0,.531,1.015,1.015,0,0,1-.919,0,.28.28,0,0,1,0-.531,1.015,1.015,0,0,1,.919,0" transform="translate(-7.343 -10.302)" fill="#16110d"/><path d="M61.738,79.717a.28.28,0,0,1,0,.531,1.015,1.015,0,0,1-.919,0,.28.28,0,0,1,0-.531,1.015,1.015,0,0,1,.919,0" transform="translate(-7.692 -10.1)" fill="#16110d"/><path d="M38.887,95.367a1.015,1.015,0,0,1,.919,0,.28.28,0,0,1,0,.531,1.015,1.015,0,0,1-.919,0,.28.28,0,0,1,0-.531" transform="translate(-4.91 -12.086)" fill="#16110d"/><path d="M42.566,93.774a.28.28,0,0,1,0,.531,1.016,1.016,0,0,1-.919,0,.28.28,0,0,1,0-.531,1.015,1.015,0,0,1,.919,0" transform="translate(-5.26 -11.884)" fill="#16110d"/><path d="M45.32,92.184a.28.28,0,0,1,0,.531,1.015,1.015,0,0,1-.919,0,.28.28,0,0,1,0-.531,1.015,1.015,0,0,1,.919,0" transform="translate(-5.609 -11.682)" fill="#16110d"/><path d="M48.075,90.594a.28.28,0,0,1,0,.531,1.017,1.017,0,0,1-.92,0,.28.28,0,0,1,0-.531,1.017,1.017,0,0,1,.92,0" transform="translate(-5.959 -11.48)" fill="#16110d"/><path d="M50.829,89a.28.28,0,0,1,0,.531,1.015,1.015,0,0,1-.919,0,.28.28,0,0,1,0-.531,1.015,1.015,0,0,1,.919,0" transform="translate(-6.308 -11.279)" fill="#16110d"/><path d="M53.583,87.414a.28.28,0,0,1,0,.531,1.015,1.015,0,0,1-.919,0,.28.28,0,0,1,0-.531,1.015,1.015,0,0,1,.919,0" transform="translate(-6.658 -11.077)" fill="#16110d"/><path d="M56.338,85.823a.28.28,0,0,1,0,.531,1.017,1.017,0,0,1-.92,0,.28.28,0,0,1,0-.531,1.017,1.017,0,0,1,.92,0" transform="translate(-7.007 -10.875)" fill="#16110d"/><path d="M59.092,84.233a.28.28,0,0,1,0,.531,1.015,1.015,0,0,1-.919,0,.28.28,0,0,1,0-.531,1.015,1.015,0,0,1,.919,0" transform="translate(-7.357 -10.673)" fill="#16110d"/><path d="M61.846,82.643a.28.28,0,0,1,0,.531,1.016,1.016,0,0,1-.919,0,.28.28,0,0,1,0-.531,1.016,1.016,0,0,1,.919,0" transform="translate(-7.706 -10.472)" fill="#16110d"/><path d="M53.707,67.322,29.421,81.1,1.611,65.138,25.9,51.36Z" transform="translate(-0.204 -6.516)" fill="#febd33"/><path d="M1.611,67.141v6.485l27.81,15.962V83.1Z" transform="translate(-0.204 -8.519)" fill="#febd33"/><path d="M57.748,69.642v6.485L33.462,89.905V83.42Z" transform="translate(-4.246 -8.836)" fill="#120d0c"/><path d="M54.049,67.026l-.4-.23L25.84,50.835,1.553,64.613l-.4.231v6.944L28.962,87.749l.4.23.4-.23L53.849,74.085l.2-.114V67.026ZM25.84,51.754l27.009,15.5L34.1,77.956l-4.732,2.619L2.354,65.073ZM1.953,71.327V65.762l27.009,15.5v5.565Zm51.3,2.184L29.763,86.829V81.264L53.249,67.945Z" transform="translate(-0.146 -6.45)" fill="#120d0c"/><path d="M26.121,51.36l-14,7.874a8.16,8.16,0,0,1-8.712-.248c-.512,5.086,4.8,9.419,7.023,11a6.6,6.6,0,0,0,.809.555L29.645,81.1,53.931,67.322Z" transform="translate(-0.428 -6.516)" fill="#febd33"/><path d="M11.495,71.024,29.9,81.587,51.372,69.422l-24.8-14.233-14,7.874a8.137,8.137,0,0,1-8.37-.026c1.362,3.474,4.8,6.24,6.48,7.432a6.441,6.441,0,0,0,.809.555" transform="translate(-0.534 -7.002)" fill="#fbeacc"/><path d="M29.587,81.494l-18.6-10.677a6.751,6.751,0,0,1-.859-.589c-2.321-1.646-7.7-6.073-7.17-11.347l.071-.7.568.422a7.689,7.689,0,0,0,8.272.222l14.2-7.989,27.79,15.951a.542.542,0,0,1,0,.942ZM3.719,59.611c0,4.58,4.765,8.475,6.889,9.982a6.235,6.235,0,0,0,.776.534l18.2,10.449L53.073,67.257l-27.009-15.5-13.8,7.759a8.591,8.591,0,0,1-8.546.1" transform="translate(-0.37 -6.45)" fill="#120d0c"/><path d="M29.195,85.652l-27.81-15.6.395-.441,27.809,15.6Z" transform="translate(-0.176 -8.832)" fill="#120d0c"/><path d="M29.192,88.505,1.382,72.614l.4-.438L29.59,88.068Z" transform="translate(-0.175 -9.158)" fill="#120d0c"/><path d="M33.689,86.184v-.7L57.579,72.074l-.029.7Z" transform="translate(-4.274 -9.145)" fill="#febd33"/><path d="M33.689,88.614v-.7L57.579,74.5l-.029.7Z" transform="translate(-4.274 -9.453)" fill="#febd33"/><path d="M24.616,66.467l4.429.867a1.2,1.2,0,0,0,.676-.061l3.748-1.615c.488-.21,1.182-.006,1.174.345l-.06,2.7c0,.14.114.271.311.352l3.819,1.559c.5.2.375.647-.206.751l-4.467.8a.674.674,0,0,0-.484.279l-1.388,2.578a1.012,1.012,0,0,1-1.3.12l-2.7-2.206a.981.981,0,0,0-.609-.179l-4.677.035c-.609,0-.962-.4-.6-.678l2.8-2.164a.289.289,0,0,0,.107-.39L23.685,67c-.2-.333.355-.65.932-.538" transform="translate(-2.808 -8.32)" fill="#febd33"/><path d="M31.42,73.423a1.278,1.278,0,0,1-.8-.251l-2.7-2.2a.669.669,0,0,0-.407-.108l-4.677.034a1.09,1.09,0,0,1-1.032-.556.6.6,0,0,1,.238-.687l2.8-2.164-1.474-2.537a.573.573,0,0,1,.028-.637,1.257,1.257,0,0,1,1.236-.37l4.43.867a.875.875,0,0,0,.49-.042L33.3,63.151a1.453,1.453,0,0,1,1.3.093.644.644,0,0,1,.313.549l-.059,2.7c0-.017.035.02.114.052l3.819,1.559a.693.693,0,0,1,.5.7.836.836,0,0,1-.773.658l-4.468.8a.421.421,0,0,0-.261.119L32.4,72.959a.94.94,0,0,1-.677.435,1.559,1.559,0,0,1-.3.03m-3.9-3.2a1.276,1.276,0,0,1,.8.251l2.7,2.2a.767.767,0,0,0,.58.091.393.393,0,0,0,.244-.114l1.388-2.579a.968.968,0,0,1,.705-.44l4.467-.8a.493.493,0,0,0,.244-.1c-.017-.006-.046-.027-.1-.05l-3.82-1.559a.715.715,0,0,1-.506-.651l.06-2.7a.832.832,0,0,0-.733-.048L29.8,65.346a1.493,1.493,0,0,1-.861.082l-4.429-.868a.677.677,0,0,0-.6.117l1.5,2.509a.6.6,0,0,1-.187.8l-2.8,2.165c-.01.013.13.112.395.112h.008l4.677-.035Z" transform="translate(-2.762 -7.998)" fill="#120d0c"/><path d="M92.164,11.151,85.694,7.138a3.373,3.373,0,0,0-.57-.38l-.363-.2,0,0C81.883,5.067,78,5.369,73.723,7.84,64.876,12.947,57.7,25.371,57.7,35.587c0,5.073,1.77,8.646,4.634,10.334v0l6.848,4.264,1.426-3.164.575-.956a18.819,18.819,0,0,0,2.538-1.232C82.571,39.729,89.744,27.3,89.744,17.089q0-.923-.079-1.779Z" transform="translate(-7.321 -0.717)" fill="#ffbe2e"/><path d="M92.255,13.236,85.785,9.223a3.373,3.373,0,0,0-.57-.38l-.363-.2,0,0c-2.873-1.5-6.756-1.194-11.034,1.277-8.847,5.108-16.02,17.531-16.02,27.748,0,5.073,4.428,6.961,7.292,8.649l1.905,1.08,3.276,1.98.434-.272.575-.956a18.818,18.818,0,0,0,2.538-1.232c8.848-5.108,16.021-17.531,16.021-27.748q0-.923-.079-1.779Z" transform="translate(-7.333 -0.982)" fill="#fec"/><path d="M69.312,50.761l-7.356-4.583C58.89,44.313,57.2,40.536,57.2,35.524c0-10.339,7.285-22.956,16.239-28.126,4.112-2.373,8.045-2.88,11.129-1.445l.01-.012.689.371a2.562,2.562,0,0,1,.446.283l.169.126L92.7,10.944,90.048,15.35c.045.548.069,1.111.069,1.675,0,10.34-7.285,22.957-16.239,28.127a19.619,19.619,0,0,1-2.458,1.2l-.5.829Zm-6.6-5.143,6.218,3.873,1.221-2.709.676-1.129.138-.053a18.81,18.81,0,0,0,2.48-1.2c8.713-5.031,15.8-17.309,15.8-27.371,0-.587-.026-1.171-.077-1.739l-.013-.141,2.35-3.912L85.188,7.29a1.91,1.91,0,0,0-.334-.21l-.363-.193C81.636,5.4,77.867,5.851,73.878,8.154c-8.713,5.031-15.8,17.309-15.8,27.37,0,4.742,1.569,8.278,4.419,9.959Z" transform="translate(-7.258 -0.654)" fill="#16110d"/><path d="M97.93,22.188c0,10.216-7.174,22.64-16.02,27.748s-16.021.967-16.021-9.249,7.173-22.64,16.021-27.748,16.02-.967,16.02,9.249" transform="translate(-8.36 -1.364)" fill="#16110d"/><path d="M74.688,52.5a8.66,8.66,0,0,1-4.39-1.132c-3.167-1.828-4.91-5.646-4.91-10.75,0-10.339,7.285-22.956,16.239-28.126,4.42-2.551,8.6-2.951,11.764-1.122S98.3,17.02,98.3,22.124c0,10.34-7.284,22.957-16.238,28.127A15,15,0,0,1,74.688,52.5M89,11.118a14.133,14.133,0,0,0-6.934,2.135c-8.714,5.031-15.8,17.309-15.8,27.37,0,4.779,1.588,8.328,4.474,9.994s6.753,1.267,10.892-1.122c8.713-5.031,15.8-17.309,15.8-27.371,0-4.779-1.588-8.327-4.474-9.993A7.813,7.813,0,0,0,89,11.118" transform="translate(-8.296 -1.3)" fill="#16110d"/><path d="M96.151,23.991c-.036,8.772-6.267,19.464-13.918,23.881s-13.823.887-13.787-7.885,6.267-19.464,13.918-23.881,13.823-.887,13.787,7.885" transform="translate(-8.684 -1.802)" fill="#ffbe2e"/><path d="M82.646,33.679l5.807-10.445c.168-.3.451-.249.363.061L84.511,34.05Z" transform="translate(-10.486 -2.923)" fill="#16110d"/><path d="M84.64,34.378l-2.573-.513,6.025-10.837a.588.588,0,0,1,.717-.333.5.5,0,0,1,.248.643Zm-1.564-.98,1.158.23,3.287-8.213Z" transform="translate(-10.412 -2.875)" fill="#16110d"/><path d="M86.108,32.757A4.781,4.781,0,0,1,83.946,36.5c-1.194.689-2.163.13-2.163-1.249a4.781,4.781,0,0,1,2.163-3.746c1.194-.69,2.163-.131,2.163,1.249" transform="translate(-10.376 -3.96)" fill="#ffbe2e"/><path d="M86.971,34a4.781,4.781,0,0,1-2.163,3.747c-1.194.69-2.163.13-2.163-1.249a4.781,4.781,0,0,1,2.163-3.747c1.194-.69,2.163-.131,2.163,1.249" transform="translate(-10.486 -4.118)" fill="#fec"/><path d="M82.931,37.08a1.428,1.428,0,0,1-.726-.189,1.828,1.828,0,0,1-.8-1.684,5.074,5.074,0,0,1,2.326-4.029,1.638,1.638,0,0,1,2.654,1.532,5.073,5.073,0,0,1-2.327,4.029,2.283,2.283,0,0,1-1.131.341m1.931-5.588a1.644,1.644,0,0,0-.8.252,4.426,4.426,0,0,0-2,3.463,1,1,0,0,0,1.671.966,4.425,4.425,0,0,0,2-3.463,1.217,1.217,0,0,0-.47-1.117.8.8,0,0,0-.4-.1" transform="translate(-10.329 -3.912)" fill="#16110d"/><path d="M84.228,21.755l-.057.033c-.211.121-.382-.008-.382-.289V19.141a.912.912,0,0,1,.382-.729l.057-.033c.21-.121.382.008.382.289v2.358a.914.914,0,0,1-.382.729" transform="translate(-10.631 -2.326)" fill="#16110d"/><path d="M86.937,20.574h0c-.219.058-.348-.126-.29-.413l.545-2.66a.846.846,0,0,1,.5-.625c.218-.058.348.127.29.413l-.545,2.66a.845.845,0,0,1-.5.625" transform="translate(-10.992 -2.14)" fill="#16110d"/><path d="M89.487,20.314h0c-.2-.017-.264-.268-.15-.561l1.052-2.711c.114-.292.364-.514.56-.5s.264.269.15.561l-1.051,2.711c-.114.292-.364.514-.561.5" transform="translate(-11.328 -2.099)" fill="#16110d"/><path d="M91.677,21.01h0c-.161-.093-.161-.392,0-.67l1.487-2.577c.16-.278.421-.428.581-.335s.159.393,0,.67l-1.489,2.577c-.16.277-.419.427-.579.334" transform="translate(-11.616 -2.208)" fill="#16110d"/><path d="M93.357,22.613h0a.693.693,0,0,1,.15-.733l1.822-2.267c.2-.244.447-.312.56-.15a.693.693,0,0,1-.15.733l-1.821,2.267c-.2.244-.447.311-.561.15" transform="translate(-11.838 -2.458)" fill="#16110d"/><path d="M94.414,25.016h0a.846.846,0,0,1,.29-.747l2.033-1.8c.218-.194.444-.174.5.045a.847.847,0,0,1-.29.747l-2.033,1.8c-.218.195-.444.175-.5-.045" transform="translate(-11.977 -2.834)" fill="#16110d"/><path d="M94.774,28.05h0a.851.851,0,0,1,.355-.678l2.213-1.278c.2-.114.355.007.355.268a.851.851,0,0,1-.355.679l-2.213,1.277c-.2.114-.355-.006-.355-.268" transform="translate(-12.025 -3.305)" fill="#16110d"/><path d="M94.414,31.519h0a.85.85,0,0,1,.5-.625l2.033-.544c.218-.058.348.126.29.412a.848.848,0,0,1-.5.625l-2.033.544c-.219.059-.348-.126-.29-.412" transform="translate(-11.977 -3.849)" fill="#16110d"/><path d="M93.357,35.153h0c.114-.292.364-.514.561-.5l1.821.163c.2.017.264.268.15.56s-.364.514-.56.5l-1.822-.162c-.2-.017-.264-.269-.15-.561" transform="translate(-11.838 -4.397)" fill="#16110d"/><path d="M74.778,45.726h0a.693.693,0,0,1-.15.733l-1.822,2.267c-.2.244-.447.311-.56.15a.693.693,0,0,1,.15-.733l1.821-2.267c.2-.244.447-.311.561-.15" transform="translate(-9.159 -5.791)" fill="#16110d"/><path d="M73.692,43.391h0a.848.848,0,0,1-.29.747l-2.033,1.8c-.218.194-.444.174-.5-.045a.85.85,0,0,1,.29-.747l2.033-1.8c.218-.195.444-.175.5.045" transform="translate(-8.99 -5.483)" fill="#16110d"/><path d="M73.32,40.437h0a.848.848,0,0,1-.355.678l-2.213,1.278c-.2.114-.355-.007-.355-.268a.851.851,0,0,1,.355-.679l2.213-1.277c.2-.114.355.007.355.268" transform="translate(-8.932 -5.091)" fill="#16110d"/><path d="M73.692,37.072h0a.848.848,0,0,1-.5.625l-2.033.544c-.218.058-.348-.126-.29-.412a.848.848,0,0,1,.5-.625l2.033-.544c.218-.059.348.126.29.412" transform="translate(-8.99 -4.65)" fill="#16110d"/><path d="M74.778,33.493h0c-.114.292-.364.514-.561.5L72.4,33.827c-.2-.017-.264-.269-.15-.561s.364-.514.56-.5l1.822.163c.2.017.264.268.15.56" transform="translate(-9.159 -4.158)" fill="#16110d"/><path d="M76.507,29.893h0c-.161.278-.42.427-.58.334l-1.488-.858c-.16-.093-.16-.392,0-.67s.42-.428.58-.335l1.488.859c.16.093.16.392,0,.67" transform="translate(-9.429 -3.595)" fill="#16110d"/><path d="M78.761,26.6h0c-.2.244-.447.312-.561.15l-1.051-1.5a.694.694,0,0,1,.149-.733c.2-.244.447-.311.561-.15l1.052,1.5a.693.693,0,0,1-.15.733" transform="translate(-9.781 -3.08)" fill="#16110d"/><path d="M81.384,23.826h0c-.219.194-.444.174-.5-.045l-.545-2.033a.849.849,0,0,1,.29-.747c.219-.194.444-.174.5.045l.545,2.032a.846.846,0,0,1-.29.747" transform="translate(-10.191 -2.648)" fill="#16110d"/><path d="M84.228,21.755l-.057.033c-.211.121-.382-.008-.382-.289V19.141a.912.912,0,0,1,.382-.729l.057-.033c.21-.121.382.008.382.289v2.358a.914.914,0,0,1-.382.729" transform="translate(-10.631 -2.326)" fill="#16110d"/><path d="M89.028,44.54,80.089,49.7c-.471.272-.852-.017-.852-.643v-1a2.038,2.038,0,0,1,.852-1.627l8.939-5.161c.471-.272.851.017.851.643v1a2.038,2.038,0,0,1-.851,1.627" transform="translate(-10.053 -5.223)" fill="#fec"/><path d="M78.629,49.417a.752.752,0,0,1-.381-.1,1.069,1.069,0,0,1-.458-.973v-1A2.37,2.37,0,0,1,78.8,45.43l8.94-5.161a.866.866,0,0,1,.884-.045,1.07,1.07,0,0,1,.458.972v1a2.365,2.365,0,0,1-1.015,1.91l-8.94,5.161a1,1,0,0,1-.5.146m9.617-8.639a.4.4,0,0,0-.174.058L79.132,46a1.742,1.742,0,0,0-.687,1.345v1c0,.228.066.368.131.405s.183-.017.229-.045l8.94-5.161a1.734,1.734,0,0,0,.688-1.344v-1c0-.227-.065-.367-.131-.4a.1.1,0,0,0-.056-.014" transform="translate(-9.87 -5.091)" fill="#16110d"/><path d="M84.114,5.707l1.809-2.148a.187.187,0,0,0-.031-.3L81.418.721C81.4.711,81.384.7,81.367.692l.052.029L81.289.66A1.552,1.552,0,0,0,79.8.725l-6.714,4.04a3.143,3.143,0,0,0-1.523,2.693v4.135l4.521,2.556,5.465-7.2.959-.829Z" transform="translate(-9.08 -0.064)" fill="#ffbe2e"/><path d="M84.114,7.908,85.923,5.76a.187.187,0,0,0-.031-.3L81.418,2.922c-.017-.01-.034-.02-.052-.029l.052.029-.129-.061a1.552,1.552,0,0,0-1.488.065l-6.714,4.04a3.143,3.143,0,0,0-1.523,2.693l.162,1.755,4.2,2.237,5.622-4.5.959-.829Z" transform="translate(-9.08 -0.343)" fill="#fec"/><path d="M76.139,14.653l-5.074-2.869V7.394A3.6,3.6,0,0,1,72.8,4.328L79.513.288A1.979,1.979,0,0,1,81.414.2L81.5.245l0,0,4.537,2.572a.622.622,0,0,1,.107,1.008L84.3,6.032l-1.642.423-.846.732Zm-4.2-3.378,3.967,2.242,5.3-6.961,1.036-.9,1.571-.405L85.35,3.424,81.04.991a1.119,1.119,0,0,0-1.077.045l-6.714,4.04a2.72,2.72,0,0,0-1.311,2.319Z" transform="translate(-9.017 0)" fill="#16110d"/><path d="M85.143,3.75,78.429,7.79a3.137,3.137,0,0,0-1.509,2.476V14.6a25.677,25.677,0,0,1,5.316-4.194,15.888,15.888,0,0,1,5.3-2.17V5.1a1.581,1.581,0,0,0-2.4-1.355" transform="translate(-9.759 -0.447)" fill="#ffbe2e"/><path d="M76.908,15.109l-.488-.3V10.2a3.589,3.589,0,0,1,1.72-2.85l6.714-4.04a2.017,2.017,0,0,1,3.058,1.728V8.554l-.373.054a15.136,15.136,0,0,0-5.148,2.116,25.24,25.24,0,0,0-5.224,4.125ZM85.3,4.061,78.59,8.1a2.707,2.707,0,0,0-1.3,2.132V13.5a25.191,25.191,0,0,1,4.662-3.537,17.027,17.027,0,0,1,5.084-2.159V5.041A1.144,1.144,0,0,0,85.3,4.061" transform="translate(-9.696 -0.383)" fill="#16110d"/><path d="M75.971,50.06a7.388,7.388,0,0,1-3.759-.97c-2.688-1.559-4.159-4.81-4.141-9.153.036-8.861,6.354-19.7,14.081-24.164,3.826-2.208,7.428-2.557,10.14-.983,2.687,1.559,4.158,4.81,4.14,9.154-.036,8.861-6.354,19.7-14.082,24.163a12.983,12.983,0,0,1-6.379,1.953M88.529,14.475a12.34,12.34,0,0,0-6.05,1.866c-7.548,4.358-13.718,14.944-13.753,23.6-.017,4.1,1.338,7.147,3.815,8.584,2.5,1.45,5.869,1.1,9.482-.984,7.548-4.358,13.719-14.944,13.754-23.6h0c.017-4.1-1.338-7.148-3.814-8.585a6.752,6.752,0,0,0-3.434-.882" transform="translate(-8.637 -1.753)" fill="#16110d"/><path d="M59.4,29.344l7.231,4.213L65.293,38.2l-.422,3.874.218,3.875.982,3.219,1.018,2.714L60.484,47.4l-1.95-3.411-.775-3.961.13-4.3.616-3.21Z" transform="translate(-7.328 -3.723)" fill="#16110d"/><path d="M71.671,7.992l4.569,2.7v4.478l-4.676-2.76Z" transform="translate(-9.08 -1.014)" fill="#16110d"/><path d="M67.1,59.026a.258.258,0,0,1,0,.488.936.936,0,0,1-.845,0,.257.257,0,0,1,0-.488.936.936,0,0,1,.845,0" transform="translate(-8.384 -7.476)" fill="#16110d"/><path d="M69.635,57.565a.258.258,0,0,1,0,.488.936.936,0,0,1-.845,0,.258.258,0,0,1,0-.488.936.936,0,0,1,.845,0" transform="translate(-8.706 -7.291)" fill="#16110d"/><path d="M64.572,57.565a.258.258,0,0,1,0,.488.936.936,0,0,1-.845,0,.258.258,0,0,1,0-.488.936.936,0,0,1,.845,0" transform="translate(-8.063 -7.291)" fill="#16110d"/><path d="M67.1,56.1a.258.258,0,0,1,0,.488.936.936,0,0,1-.845,0,.258.258,0,0,1,0-.488.936.936,0,0,1,.845,0" transform="translate(-8.385 -7.105)" fill="#16110d"/><path d="M62.041,56.1a.258.258,0,0,1,0,.488.936.936,0,0,1-.845,0,.257.257,0,0,1,0-.488.936.936,0,0,1,.845,0" transform="translate(-7.742 -7.105)" fill="#16110d"/><path d="M64.572,54.642a.258.258,0,0,1,0,.488.936.936,0,0,1-.845,0,.258.258,0,0,1,0-.488.936.936,0,0,1,.845,0" transform="translate(-8.063 -6.92)" fill="#16110d"/><path d="M62.041,53.181a.258.258,0,0,1,0,.488.936.936,0,0,1-.845,0,.258.258,0,0,1,0-.488.936.936,0,0,1,.845,0" transform="translate(-7.742 -6.735)" fill="#16110d"/><path d="M79.859,63.176a.258.258,0,0,1,0,.488.936.936,0,0,1-.845,0,.257.257,0,0,1,0-.488.936.936,0,0,1,.845,0" transform="translate(-10.003 -8.003)" fill="#16110d"/><path d="M82.39,61.715a.258.258,0,0,1,0,.488.936.936,0,0,1-.845,0,.258.258,0,0,1,0-.488.936.936,0,0,1,.845,0" transform="translate(-10.324 -7.817)" fill="#16110d"/><path d="M84.921,60.253a.258.258,0,0,1,0,.488.936.936,0,0,1-.845,0,.258.258,0,0,1,0-.488.936.936,0,0,1,.845,0" transform="translate(-10.645 -7.632)" fill="#16110d"/><path d="M87.452,58.792a.258.258,0,0,1,0,.488.936.936,0,0,1-.845,0,.258.258,0,0,1,0-.488.936.936,0,0,1,.845,0" transform="translate(-10.966 -7.447)" fill="#16110d"/><path d="M89.983,57.331a.258.258,0,0,1,0,.488.936.936,0,0,1-.845,0,.257.257,0,0,1,0-.488.936.936,0,0,1,.845,0" transform="translate(-11.287 -7.261)" fill="#16110d"/><path d="M92.514,55.869a.258.258,0,0,1,0,.488.936.936,0,0,1-.845,0,.258.258,0,0,1,0-.488.936.936,0,0,1,.845,0" transform="translate(-11.608 -7.076)" fill="#16110d"/><path d="M95.046,54.408a.258.258,0,0,1,0,.488.936.936,0,0,1-.845,0,.258.258,0,0,1,0-.488.936.936,0,0,1,.845,0" transform="translate(-11.93 -6.89)" fill="#16110d"/><path d="M97.577,52.947a.258.258,0,0,1,0,.488.936.936,0,0,1-.845,0,.257.257,0,0,1,0-.488.936.936,0,0,1,.845,0" transform="translate(-12.251 -6.705)" fill="#16110d"/><path d="M74.8,63.176a.258.258,0,0,1,0,.488.936.936,0,0,1-.845,0,.257.257,0,0,1,0-.488.936.936,0,0,1,.845,0" transform="translate(-9.36 -8.003)" fill="#16110d"/><path d="M77.327,61.715a.258.258,0,0,1,0,.488.936.936,0,0,1-.845,0,.258.258,0,0,1,0-.488.936.936,0,0,1,.845,0" transform="translate(-9.682 -7.817)" fill="#16110d"/><path d="M79.859,60.253a.258.258,0,0,1,0,.488.936.936,0,0,1-.845,0,.258.258,0,0,1,0-.488.936.936,0,0,1,.845,0" transform="translate(-10.003 -7.632)" fill="#16110d"/><path d="M82.39,58.792a.258.258,0,0,1,0,.488.936.936,0,0,1-.845,0,.258.258,0,0,1,0-.488.936.936,0,0,1,.845,0" transform="translate(-10.324 -7.447)" fill="#16110d"/><path d="M84.921,57.331a.258.258,0,0,1,0,.488.936.936,0,0,1-.845,0,.258.258,0,0,1,0-.488.936.936,0,0,1,.845,0" transform="translate(-10.645 -7.261)" fill="#16110d"/><path d="M87.452,55.869a.258.258,0,0,1,0,.488.936.936,0,0,1-.845,0,.258.258,0,0,1,0-.488.936.936,0,0,1,.845,0" transform="translate(-10.966 -7.076)" fill="#16110d"/><path d="M89.983,54.408a.258.258,0,0,1,0,.488.936.936,0,0,1-.845,0,.257.257,0,0,1,0-.488.936.936,0,0,1,.845,0" transform="translate(-11.287 -6.89)" fill="#16110d"/><path d="M92.514,52.947a.258.258,0,0,1,0,.488.936.936,0,0,1-.845,0,.258.258,0,0,1,0-.488.936.936,0,0,1,.845,0" transform="translate(-11.608 -6.705)" fill="#16110d"/><path d="M95.046,51.485a.258.258,0,0,1,0,.488.936.936,0,0,1-.845,0,.258.258,0,0,1,0-.488.936.936,0,0,1,.845,0" transform="translate(-11.93 -6.52)" fill="#16110d"/><path d="M97.577,50.024a.258.258,0,0,1,0,.488.936.936,0,0,1-.845,0,.258.258,0,0,1,0-.488.936.936,0,0,1,.845,0" transform="translate(-12.251 -6.334)" fill="#16110d"/><path d="M72.265,61.715a.258.258,0,0,1,0,.488.936.936,0,0,1-.845,0,.258.258,0,0,1,0-.488.936.936,0,0,1,.845,0" transform="translate(-9.039 -7.817)" fill="#16110d"/><path d="M74.8,60.253a.258.258,0,0,1,0,.488.936.936,0,0,1-.845,0,.257.257,0,0,1,0-.488.936.936,0,0,1,.845,0" transform="translate(-9.36 -7.632)" fill="#16110d"/><path d="M77.327,58.792a.258.258,0,0,1,0,.488.936.936,0,0,1-.845,0,.258.258,0,0,1,0-.488.936.936,0,0,1,.845,0" transform="translate(-9.682 -7.447)" fill="#16110d"/><path d="M92.514,50.024a.258.258,0,0,1,0,.488.936.936,0,0,1-.845,0,.257.257,0,0,1,0-.488.936.936,0,0,1,.845,0" transform="translate(-11.608 -6.334)" fill="#16110d"/><path d="M95.046,48.563a.258.258,0,0,1,0,.488.936.936,0,0,1-.845,0,.258.258,0,0,1,0-.488.936.936,0,0,1,.845,0" transform="translate(-11.93 -6.149)" fill="#16110d"/><path d="M97.577,47.1a.258.258,0,0,1,0,.488.936.936,0,0,1-.845,0,.258.258,0,0,1,0-.488.936.936,0,0,1,.845,0" transform="translate(-12.251 -5.963)" fill="#16110d"/><path d="M69.734,60.253a.258.258,0,0,1,0,.488.936.936,0,0,1-.845,0,.257.257,0,0,1,0-.488.936.936,0,0,1,.845,0" transform="translate(-8.718 -7.632)" fill="#16110d"/><path d="M72.265,58.792a.258.258,0,0,1,0,.488.936.936,0,0,1-.845,0,.258.258,0,0,1,0-.488.936.936,0,0,1,.845,0" transform="translate(-9.039 -7.447)" fill="#16110d"/><path d="M68.787,51.944c-1.585-1.921-2.451-4.734-2.451-8.226a27.671,27.671,0,0,1,1.442-8.4l-.758-.455a28.582,28.582,0,0,0-1.558,8.859,14.835,14.835,0,0,0,1.806,7.6l1.284.868Z" transform="translate(-8.306 -4.423)" fill="#ffbe2e"/></g></g></g></svg>