<svg xmlns="http://www.w3.org/2000/svg" xmlns:xlink="http://www.w3.org/1999/xlink" width="140" height="140" viewBox="0 0 140 140"><defs><clipPath id="a"><rect width="95.584" height="140" fill="none"/></clipPath></defs><g transform="translate(6282 10416)"><rect width="140" height="140" transform="translate(-6282 -10416)" fill="none"/><g transform="translate(-6260 -10416)" style="isolation:isolate"><g clip-path="url(#a)"><path d="M76.981,259.193a.214.214,0,0,1,0,.406.777.777,0,0,1-.7,0,.214.214,0,0,1,0-.406.776.776,0,0,1,.7,0" transform="translate(-36.99 -125.89)" fill="#16110d"/><path d="M80.556,257.129a.214.214,0,0,1,0,.406.777.777,0,0,1-.7,0,.214.214,0,0,1,0-.406.777.777,0,0,1,.7,0" transform="translate(-38.727 -124.887)" fill="#16110d"/><path d="M73.406,257.129a.214.214,0,0,1,0,.406.776.776,0,0,1-.7,0,.214.214,0,0,1,0-.406.776.776,0,0,1,.7,0" transform="translate(-35.253 -124.887)" fill="#16110d"/><path d="M76.981,255.065a.214.214,0,0,1,0,.406.777.777,0,0,1-.7,0,.214.214,0,0,1,0-.406.777.777,0,0,1,.7,0" transform="translate(-36.99 -123.885)" fill="#16110d"/><path d="M69.832,255.065a.214.214,0,0,1,0,.406.777.777,0,0,1-.7,0,.214.214,0,0,1,0-.406.777.777,0,0,1,.7,0" transform="translate(-33.516 -123.885)" fill="#16110d"/><path d="M73.406,253a.214.214,0,0,1,0,.406.777.777,0,0,1-.7,0,.214.214,0,0,1,0-.406.777.777,0,0,1,.7,0" transform="translate(-35.253 -122.882)" fill="#16110d"/><path d="M66.257,253a.214.214,0,0,1,0,.406.777.777,0,0,1-.7,0,.214.214,0,0,1,0-.406.777.777,0,0,1,.7,0" transform="translate(-31.779 -122.882)" fill="#16110d"/><path d="M69.832,250.937a.214.214,0,0,1,0,.406.777.777,0,0,1-.7,0,.214.214,0,0,1,0-.406.777.777,0,0,1,.7,0" transform="translate(-33.516 -121.879)" fill="#16110d"/><path d="M66.257,248.874a.214.214,0,0,1,0,.406.777.777,0,0,1-.7,0,.214.214,0,0,1,0-.406.777.777,0,0,1,.7,0" transform="translate(-31.779 -120.877)" fill="#16110d"/><path d="M105.749,271.267a.214.214,0,0,1,0,.406.777.777,0,0,1-.7,0,.214.214,0,0,1,0-.406.777.777,0,0,1,.7,0" transform="translate(-50.967 -131.757)" fill="#16110d"/><path d="M109.324,269.2a.214.214,0,0,1,0,.406.777.777,0,0,1-.7,0,.214.214,0,0,1,0-.406.776.776,0,0,1,.7,0" transform="translate(-52.704 -130.754)" fill="#16110d"/><path d="M112.9,267.139a.214.214,0,0,1,0,.406.777.777,0,0,1-.7,0,.214.214,0,0,1,0-.406.778.778,0,0,1,.7,0" transform="translate(-54.44 -129.751)" fill="#16110d"/><path d="M123.623,260.948a.214.214,0,0,1,0,.406.777.777,0,0,1-.7,0,.214.214,0,0,1,0-.406.777.777,0,0,1,.7,0" transform="translate(-59.651 -126.743)" fill="#16110d"/><path d="M127.2,258.884a.214.214,0,0,1,0,.406.777.777,0,0,1-.7,0,.214.214,0,0,1,0-.406.777.777,0,0,1,.7,0" transform="translate(-61.388 -125.74)" fill="#16110d"/><path d="M130.772,256.82a.214.214,0,0,1,0,.406.777.777,0,0,1-.7,0,.214.214,0,0,1,0-.406.776.776,0,0,1,.7,0" transform="translate(-63.125 -124.737)" fill="#16110d"/><path d="M134.347,254.756a.214.214,0,0,1,0,.406.777.777,0,0,1-.7,0,.214.214,0,0,1,0-.406.776.776,0,0,1,.7,0" transform="translate(-64.861 -123.735)" fill="#16110d"/><path d="M116.473,265.076a.214.214,0,0,1,0,.406.777.777,0,0,1-.7,0,.214.214,0,0,1,0-.406.777.777,0,0,1,.7,0" transform="translate(-56.177 -128.749)" fill="#16110d"/><path d="M120.048,263.012a.214.214,0,0,1,0,.406.777.777,0,0,1-.7,0,.214.214,0,0,1,0-.406.777.777,0,0,1,.7,0" transform="translate(-57.914 -127.746)" fill="#16110d"/><path d="M98.6,271.267a.214.214,0,0,1,0,.406.777.777,0,0,1-.7,0,.214.214,0,0,1,0-.406.777.777,0,0,1,.7,0" transform="translate(-47.493 -131.757)" fill="#16110d"/><path d="M102.175,269.2a.214.214,0,0,1,0,.406.778.778,0,0,1-.7,0,.214.214,0,0,1,0-.406.777.777,0,0,1,.7,0" transform="translate(-49.23 -130.754)" fill="#16110d"/><path d="M105.749,267.14a.214.214,0,0,1,0,.406.777.777,0,0,1-.7,0,.214.214,0,0,1,0-.406.777.777,0,0,1,.7,0" transform="translate(-50.967 -129.751)" fill="#16110d"/><path d="M109.324,265.076a.214.214,0,0,1,0,.406.776.776,0,0,1-.7,0,.214.214,0,0,1,0-.406.777.777,0,0,1,.7,0" transform="translate(-52.704 -128.749)" fill="#16110d"/><path d="M112.9,263.012a.214.214,0,0,1,0,.406.778.778,0,0,1-.7,0,.214.214,0,0,1,0-.406.778.778,0,0,1,.7,0" transform="translate(-54.44 -127.746)" fill="#16110d"/><path d="M123.623,256.82a.214.214,0,0,1,0,.406.777.777,0,0,1-.7,0,.214.214,0,0,1,0-.406.777.777,0,0,1,.7,0" transform="translate(-59.651 -124.737)" fill="#16110d"/><path d="M127.2,254.756a.214.214,0,0,1,0,.406.777.777,0,0,1-.7,0,.214.214,0,0,1,0-.406.777.777,0,0,1,.7,0" transform="translate(-61.388 -123.735)" fill="#16110d"/><path d="M130.772,252.693a.214.214,0,0,1,0,.406.777.777,0,0,1-.7,0,.214.214,0,0,1,0-.406.776.776,0,0,1,.7,0" transform="translate(-63.125 -122.732)" fill="#16110d"/><path d="M134.347,250.629a.214.214,0,0,1,0,.406.776.776,0,0,1-.7,0,.214.214,0,0,1,0-.406.777.777,0,0,1,.7,0" transform="translate(-64.861 -121.729)" fill="#16110d"/><path d="M116.473,260.948a.214.214,0,0,1,0,.406.777.777,0,0,1-.7,0,.214.214,0,0,1,0-.406.777.777,0,0,1,.7,0" transform="translate(-56.177 -126.743)" fill="#16110d"/><path d="M120.048,258.884a.214.214,0,0,1,0,.406.777.777,0,0,1-.7,0,.214.214,0,0,1,0-.406.777.777,0,0,1,.7,0" transform="translate(-57.914 -125.74)" fill="#16110d"/><path d="M95.025,269.2a.214.214,0,0,1,0,.406.777.777,0,0,1-.7,0,.214.214,0,0,1,0-.406.776.776,0,0,1,.7,0" transform="translate(-45.757 -130.754)" fill="#16110d"/><path d="M98.6,267.14a.214.214,0,0,1,0,.406.777.777,0,0,1-.7,0,.214.214,0,0,1,0-.406.777.777,0,0,1,.7,0" transform="translate(-47.493 -129.751)" fill="#16110d"/><path d="M102.175,265.076a.214.214,0,0,1,0,.406.776.776,0,0,1-.7,0,.214.214,0,0,1,0-.406.777.777,0,0,1,.7,0" transform="translate(-49.23 -128.749)" fill="#16110d"/><path d="M105.749,263.012a.214.214,0,0,1,0,.406.78.78,0,0,1-.7,0,.214.214,0,0,1,0-.406.777.777,0,0,1,.7,0" transform="translate(-50.967 -127.746)" fill="#16110d"/><path d="M109.324,260.948a.214.214,0,0,1,0,.406.776.776,0,0,1-.7,0,.214.214,0,0,1,0-.406.776.776,0,0,1,.7,0" transform="translate(-52.704 -126.743)" fill="#16110d"/><path d="M112.9,258.884a.214.214,0,0,1,0,.406.777.777,0,0,1-.7,0,.214.214,0,0,1,0-.406.777.777,0,0,1,.7,0" transform="translate(-54.441 -125.74)" fill="#16110d"/><path d="M123.623,252.693a.214.214,0,0,1,0,.406.777.777,0,0,1-.7,0,.214.214,0,0,1,0-.406.777.777,0,0,1,.7,0" transform="translate(-59.651 -122.732)" fill="#16110d"/><path d="M127.2,250.629a.214.214,0,0,1,0,.406.777.777,0,0,1-.7,0,.214.214,0,0,1,0-.406.777.777,0,0,1,.7,0" transform="translate(-61.388 -121.729)" fill="#16110d"/><path d="M130.772,248.565a.215.215,0,0,1,0,.406.78.78,0,0,1-.7,0,.214.214,0,0,1,0-.406.777.777,0,0,1,.7,0" transform="translate(-63.125 -120.727)" fill="#16110d"/><path d="M116.473,256.82a.214.214,0,0,1,0,.406.777.777,0,0,1-.7,0,.214.214,0,0,1,0-.406.777.777,0,0,1,.7,0" transform="translate(-56.177 -124.737)" fill="#16110d"/><path d="M120.048,254.756a.214.214,0,0,1,0,.406.777.777,0,0,1-.7,0,.214.214,0,0,1,0-.406.777.777,0,0,1,.7,0" transform="translate(-57.914 -123.735)" fill="#16110d"/><path d="M91.419,267.118a.214.214,0,0,1,0,.406.777.777,0,0,1-.7,0,.214.214,0,0,1,0-.406.777.777,0,0,1,.7,0" transform="translate(-44.005 -129.741)" fill="#16110d"/><path d="M94.994,265.054a.214.214,0,0,1,0,.406.777.777,0,0,1-.7,0,.214.214,0,0,1,0-.406.776.776,0,0,1,.7,0" transform="translate(-45.741 -128.738)" fill="#16110d"/><path d="M102.25,260.987a.214.214,0,0,1,0,.406.777.777,0,0,1-.7,0c-.194-.112.508-.518.7-.406" transform="translate(-49.321 -126.793)" fill="#16110d"/><path d="M105.824,258.923a.214.214,0,0,1,0,.406.777.777,0,0,1-.7,0c-.194-.112.509-.518.7-.406" transform="translate(-51.058 -125.791)" fill="#16110d"/><path d="M109.4,256.86a.214.214,0,0,1,0,.406.776.776,0,0,1-.7,0c-.194-.112.508-.518.7-.406" transform="translate(-52.795 -124.788)" fill="#16110d"/><path d="M112.974,254.8a.214.214,0,0,1,0,.406.777.777,0,0,1-.7,0c-.194-.112.508-.518.7-.406" transform="translate(-54.532 -123.785)" fill="#16110d"/><path d="M87.845,265.054a.214.214,0,0,1,0,.406.777.777,0,0,1-.7,0,.214.214,0,0,1,0-.406.777.777,0,0,1,.7,0" transform="translate(-42.268 -128.738)" fill="#16110d"/><path d="M91.419,262.99a.214.214,0,0,1,0,.406.777.777,0,0,1-.7,0,.214.214,0,0,1,0-.406.777.777,0,0,1,.7,0" transform="translate(-44.005 -127.735)" fill="#16110d"/><path d="M84.27,262.99a.214.214,0,0,1,0,.406.777.777,0,0,1-.7,0,.214.214,0,0,1,0-.406.777.777,0,0,1,.7,0" transform="translate(-40.531 -127.735)" fill="#16110d"/><path d="M87.845,260.926a.214.214,0,0,1,0,.406.777.777,0,0,1-.7,0,.214.214,0,0,1,0-.406.777.777,0,0,1,.7,0" transform="translate(-42.268 -126.732)" fill="#16110d"/><path d="M80.7,260.926a.214.214,0,0,1,0,.406.78.78,0,0,1-.7,0,.214.214,0,0,1,0-.406.777.777,0,0,1,.7,0" transform="translate(-38.795 -126.732)" fill="#16110d"/><path d="M84.27,258.863a.214.214,0,0,1,0,.406.777.777,0,0,1-.7,0,.214.214,0,0,1,0-.406.777.777,0,0,1,.7,0" transform="translate(-40.531 -125.73)" fill="#16110d"/><path d="M99.217,240.488h0l-.069-3.989H66.227l.044,3.887c-.01.1,0,0,.013.1h0a2.423,2.423,0,0,0,1.344,1.639l12.283,7.092a6.161,6.161,0,0,0,5.541.23l12.818-7.4a1.584,1.584,0,0,0,.947-1.56" transform="translate(-32.177 -114.905)" fill="#febd33"/><path d="M82.806,250.01a6.7,6.7,0,0,1-3.261-.812l-12.282-7.092a2.774,2.774,0,0,1-1.443-1.677l-.04-.308-.048-4.113,33.46.523.037,3.7a1.844,1.844,0,0,1-1.072,1.8l-12.818,7.4a5.164,5.164,0,0,1-2.533.583m-16.523-9.852a.583.583,0,0,1,.011.058,2.187,2.187,0,0,0,1.221,1.454L79.8,248.761a5.893,5.893,0,0,0,5.289.23l12.818-7.4a1.348,1.348,0,0,0,.823-1.309l0-.028-.065-3.741H66.242Z" transform="translate(-31.936 -114.667)" fill="#15100c"/><path d="M98.218,229.263l-12.818,7.4a6.16,6.16,0,0,1-5.54-.23l-12.283-7.092c-1.64-.947-1.818-2.379-.4-3.2L80,218.743a6.158,6.158,0,0,1,5.54.229l12.283,7.092c1.64.947,1.818,2.379.4,3.2" transform="translate(-32.174 -106.009)" fill="#febd33"/><path d="M98.11,229.664l-12.283-7.092a6.161,6.161,0,0,0-5.541-.23l-12.818,7.4a2.14,2.14,0,0,0-.7.624l0,1.576a3.1,3.1,0,0,0,1.107,1l12.283,7.092a6.16,6.16,0,0,0,5.54.23l12.818-7.4c1.42-.82,1.242-2.252-.4-3.2" transform="translate(-32.436 -107.758)" fill="#fec"/><path d="M82.755,237.23a6.7,6.7,0,0,1-3.26-.812l-12.283-7.092a2.528,2.528,0,0,1-1.483-2.028,1.893,1.893,0,0,1,1.085-1.608l12.818-7.4a6.441,6.441,0,0,1,5.793.23l12.283,7.092a2.527,2.527,0,0,1,1.483,2.028,1.9,1.9,0,0,1-1.085,1.608l-12.818,7.4a5.167,5.167,0,0,1-2.533.583m-.591-19.025a4.66,4.66,0,0,0-2.28.522l-12.818,7.4a1.42,1.42,0,0,0-.832,1.171,2.062,2.062,0,0,0,1.23,1.591l12.283,7.092a5.892,5.892,0,0,0,5.288.229l12.818-7.4a1.417,1.417,0,0,0,.832-1.171,2.06,2.06,0,0,0-1.23-1.591l-12.282-7.092a6.2,6.2,0,0,0-3.009-.752" transform="translate(-31.935 -105.775)" fill="#15100c"/><path d="M91.244,235.2l-1.418-4.542a10.783,10.783,0,0,0-4.237,1.277c-3.123,1.8-3.123,4.726,0,6.53a12.5,12.5,0,0,0,11.31,0c3.023-1.745,3.111-4.537.283-6.35Z" transform="translate(-40.446 -112.068)" fill="#febd33"/><path d="M104.634,228.589c-.088-.057-.171-.115-.265-.17a11.43,11.43,0,0,0-6.648-1.2l1.333,4.269Z" transform="translate(-47.479 -110.363)" fill="#febd33"/><path d="M98.1,229.076l-1.514-4.851.306-.031a11.7,11.7,0,0,1,6.8,1.232c.068.04.132.082.2.123l.446.288Zm-.847-4.409,1.15,3.683,4.917-2.555a11.183,11.183,0,0,0-6.067-1.128" transform="translate(-46.925 -108.893)" fill="#15100c"/><path d="M98.324,247.191v3.783h1.685l14.226-8.231.588-.978V238.5L100.8,246.835l-1.672.387Z" transform="translate(-47.772 -115.877)" fill="#15100c"/><path d="M90.514,237.273a11.815,11.815,0,0,1-5.781-1.38,3.692,3.692,0,0,1,0-6.967,11.017,11.017,0,0,1,4.337-1.31l.206-.021,1.39,4.451,5.8-3.013.123.079a4.032,4.032,0,0,1,2.17,3.372,4.243,4.243,0,0,1-2.463,3.408,11.819,11.819,0,0,1-5.782,1.38m-1.6-9.132a10.385,10.385,0,0,0-3.932,1.222,3.2,3.2,0,0,0,0,6.093,12.236,12.236,0,0,0,11.058,0,3.77,3.77,0,0,0,2.211-2.983,3.487,3.487,0,0,0-1.817-2.856l-6.074,3.155Z" transform="translate(-39.969 -110.579)" fill="#15100c"/><path d="M45.111,152.647a.214.214,0,0,1,0,.406.777.777,0,0,1-.7,0,.214.214,0,0,1,0-.406.777.777,0,0,1,.7,0" transform="translate(-21.505 -74.124)" fill="#16110d"/><path d="M48.686,150.584a.214.214,0,0,1,0,.406.777.777,0,0,1-.7,0,.214.214,0,0,1,0-.406.777.777,0,0,1,.7,0" transform="translate(-23.242 -73.122)" fill="#16110d"/><path d="M52.261,148.52a.214.214,0,0,1,0,.406.78.78,0,0,1-.7,0,.214.214,0,0,1,0-.406.777.777,0,0,1,.7,0" transform="translate(-24.979 -72.119)" fill="#16110d"/><path d="M55.835,146.456a.214.214,0,0,1,0,.406.777.777,0,0,1-.7,0,.214.214,0,0,1,0-.406.777.777,0,0,1,.7,0" transform="translate(-26.716 -71.116)" fill="#16110d"/><path d="M41.537,150.584a.214.214,0,0,1,0,.406.777.777,0,0,1-.7,0,.214.214,0,0,1,0-.406.777.777,0,0,1,.7,0" transform="translate(-19.769 -73.122)" fill="#16110d"/><path d="M45.111,148.52a.214.214,0,0,1,0,.406.78.78,0,0,1-.7,0,.214.214,0,0,1,0-.406.777.777,0,0,1,.7,0" transform="translate(-21.505 -72.119)" fill="#16110d"/><path d="M48.686,146.456a.214.214,0,0,1,0,.406.777.777,0,0,1-.7,0,.214.214,0,0,1,0-.406.777.777,0,0,1,.7,0" transform="translate(-23.242 -71.116)" fill="#16110d"/><path d="M52.261,144.392a.214.214,0,0,1,0,.406.777.777,0,0,1-.7,0,.214.214,0,0,1,0-.406.777.777,0,0,1,.7,0" transform="translate(-24.979 -70.113)" fill="#16110d"/><path d="M37.962,148.52a.215.215,0,0,1,0,.406.78.78,0,0,1-.7,0,.214.214,0,0,1,0-.406.777.777,0,0,1,.7,0" transform="translate(-18.032 -72.119)" fill="#16110d"/><path d="M41.537,146.456a.214.214,0,0,1,0,.406.777.777,0,0,1-.7,0,.214.214,0,0,1,0-.406.777.777,0,0,1,.7,0" transform="translate(-19.769 -71.116)" fill="#16110d"/><path d="M45.112,144.392a.214.214,0,0,1,0,.406.777.777,0,0,1-.7,0,.214.214,0,0,1,0-.406.777.777,0,0,1,.7,0" transform="translate(-21.505 -70.113)" fill="#16110d"/><path d="M48.686,142.328a.214.214,0,0,1,0,.406.777.777,0,0,1-.7,0,.214.214,0,0,1,0-.406.777.777,0,0,1,.7,0" transform="translate(-23.242 -69.11)" fill="#16110d"/><path d="M33.684,146.456a.777.777,0,0,1,.7,0,.214.214,0,0,1,0,.406.777.777,0,0,1-.7,0,.214.214,0,0,1,0-.406" transform="translate(-16.295 -71.116)" fill="#16110d"/><path d="M37.962,144.392a.214.214,0,0,1,0,.406.777.777,0,0,1-.7,0,.214.214,0,0,1,0-.406.777.777,0,0,1,.7,0" transform="translate(-18.032 -70.113)" fill="#16110d"/><path d="M41.537,142.328a.214.214,0,0,1,0,.406.777.777,0,0,1-.7,0,.214.214,0,0,1,0-.406.777.777,0,0,1,.7,0" transform="translate(-19.769 -69.11)" fill="#16110d"/><path d="M45.112,140.264a.214.214,0,0,1,0,.406.777.777,0,0,1-.7,0,.214.214,0,0,1,0-.406.777.777,0,0,1,.7,0h0" transform="translate(-21.505 -68.108)" fill="#16110d"/><path d="M33.684,142.328a.777.777,0,0,1,.7,0,.214.214,0,0,1,0,.406.777.777,0,0,1-.7,0,.214.214,0,0,1,0-.406" transform="translate(-16.295 -69.11)" fill="#16110d"/><path d="M37.962,140.264a.214.214,0,0,1,0,.406.777.777,0,0,1-.7,0,.214.214,0,0,1,0-.406.777.777,0,0,1,.7,0" transform="translate(-18.032 -68.108)" fill="#16110d"/><path d="M33.653,138.179a.777.777,0,0,1,.7,0,.214.214,0,0,1,0,.406.777.777,0,0,1-.7,0,.214.214,0,0,1,0-.406" transform="translate(-16.28 -67.094)" fill="#16110d"/><path d="M84.635,199.829a.214.214,0,0,1,0,.406.778.778,0,0,1-.7,0,.214.214,0,0,1,0-.406.778.778,0,0,1,.7,0" transform="translate(-40.708 -97.048)" fill="#16110d"/><path d="M88.209,197.765a.214.214,0,0,1,0,.406.777.777,0,0,1-.7,0,.214.214,0,0,1,0-.406.777.777,0,0,1,.7,0" transform="translate(-42.445 -96.045)" fill="#16110d"/><path d="M91.784,195.7a.214.214,0,0,1,0,.406.777.777,0,0,1-.7,0,.214.214,0,0,1,0-.406.777.777,0,0,1,.7,0" transform="translate(-44.182 -95.042)" fill="#16110d"/><path d="M95.358,193.637a.214.214,0,0,1,0,.406.777.777,0,0,1-.7,0,.214.214,0,0,1,0-.406.777.777,0,0,1,.7,0" transform="translate(-45.918 -94.039)" fill="#16110d"/><path d="M98.933,191.573a.214.214,0,0,1,0,.406.78.78,0,0,1-.7,0,.214.214,0,0,1,0-.406.777.777,0,0,1,.7,0" transform="translate(-47.655 -93.036)" fill="#16110d"/><path d="M102.508,189.51a.214.214,0,0,1,0,.406.777.777,0,0,1-.7,0,.214.214,0,0,1,0-.406.777.777,0,0,1,.7,0" transform="translate(-49.392 -92.034)" fill="#16110d"/><path d="M106.082,187.446a.214.214,0,0,1,0,.406.777.777,0,0,1-.7,0,.214.214,0,0,1,0-.406.777.777,0,0,1,.7,0" transform="translate(-51.129 -91.031)" fill="#16110d"/><path d="M109.657,185.382a.214.214,0,0,1,0,.406.777.777,0,0,1-.7,0,.214.214,0,0,1,0-.406.777.777,0,0,1,.7,0" transform="translate(-52.866 -90.029)" fill="#16110d"/><path d="M113.232,183.318a.214.214,0,0,1,0,.406.777.777,0,0,1-.7,0,.214.214,0,0,1,0-.406.777.777,0,0,1,.7,0" transform="translate(-54.603 -89.026)" fill="#16110d"/><path d="M116.807,181.254a.214.214,0,0,1,0,.406.777.777,0,0,1-.7,0,.214.214,0,0,1,0-.406.777.777,0,0,1,.7,0" transform="translate(-56.34 -88.023)" fill="#16110d"/><path d="M120.381,179.19a.214.214,0,0,1,0,.406.777.777,0,0,1-.7,0,.214.214,0,0,1,0-.406.777.777,0,0,1,.7,0" transform="translate(-58.076 -87.02)" fill="#16110d"/><path d="M81.06,197.765a.214.214,0,0,1,0,.406.777.777,0,0,1-.7,0,.214.214,0,0,1,0-.406.777.777,0,0,1,.7,0" transform="translate(-38.971 -96.045)" fill="#16110d"/><path d="M84.635,195.7a.214.214,0,0,1,0,.406.778.778,0,0,1-.7,0,.214.214,0,0,1,0-.406.778.778,0,0,1,.7,0" transform="translate(-40.708 -95.042)" fill="#16110d"/><path d="M88.209,193.637a.214.214,0,0,1,0,.406.777.777,0,0,1-.7,0,.214.214,0,0,1,0-.406.777.777,0,0,1,.7,0" transform="translate(-42.445 -94.039)" fill="#16110d"/><path d="M91.784,191.573a.214.214,0,0,1,0,.406.777.777,0,0,1-.7,0,.214.214,0,0,1,0-.406.777.777,0,0,1,.7,0" transform="translate(-44.182 -93.036)" fill="#16110d"/><path d="M95.358,189.51a.214.214,0,0,1,0,.406.777.777,0,0,1-.7,0,.214.214,0,0,1,0-.406.777.777,0,0,1,.7,0" transform="translate(-45.918 -92.034)" fill="#16110d"/><path d="M98.933,187.446a.214.214,0,0,1,0,.406.777.777,0,0,1-.7,0,.214.214,0,0,1,0-.406.777.777,0,0,1,.7,0" transform="translate(-47.655 -91.031)" fill="#16110d"/><path d="M102.508,185.382a.214.214,0,0,1,0,.406.777.777,0,0,1-.7,0,.214.214,0,0,1,0-.406.777.777,0,0,1,.7,0" transform="translate(-49.392 -90.029)" fill="#16110d"/><path d="M106.082,183.318a.214.214,0,0,1,0,.406.777.777,0,0,1-.7,0,.214.214,0,0,1,0-.406.777.777,0,0,1,.7,0" transform="translate(-51.129 -89.026)" fill="#16110d"/><path d="M109.657,181.254a.214.214,0,0,1,0,.406.777.777,0,0,1-.7,0,.214.214,0,0,1,0-.406.777.777,0,0,1,.7,0" transform="translate(-52.866 -88.023)" fill="#16110d"/><path d="M113.232,179.19a.214.214,0,0,1,0,.406.777.777,0,0,1-.7,0,.214.214,0,0,1,0-.406.777.777,0,0,1,.7,0" transform="translate(-54.603 -87.02)" fill="#16110d"/><path d="M116.807,177.126a.214.214,0,0,1,0,.406.78.78,0,0,1-.7,0,.214.214,0,0,1,0-.406.777.777,0,0,1,.7,0" transform="translate(-56.34 -86.017)" fill="#16110d"/><path d="M77.485,195.7a.214.214,0,0,1,0,.406.777.777,0,0,1-.7,0,.214.214,0,0,1,0-.406.777.777,0,0,1,.7,0" transform="translate(-37.235 -95.042)" fill="#16110d"/><path d="M81.06,193.637a.214.214,0,0,1,0,.406.777.777,0,0,1-.7,0,.214.214,0,0,1,0-.406.777.777,0,0,1,.7,0" transform="translate(-38.971 -94.039)" fill="#16110d"/><path d="M84.635,191.573a.214.214,0,0,1,0,.406.778.778,0,0,1-.7,0,.214.214,0,0,1,0-.406.778.778,0,0,1,.7,0" transform="translate(-40.708 -93.036)" fill="#16110d"/><path d="M88.209,189.51a.214.214,0,0,1,0,.406.777.777,0,0,1-.7,0,.214.214,0,0,1,0-.406.777.777,0,0,1,.7,0" transform="translate(-42.445 -92.034)" fill="#16110d"/><path d="M91.784,187.446a.214.214,0,0,1,0,.406.777.777,0,0,1-.7,0,.214.214,0,0,1,0-.406.777.777,0,0,1,.7,0" transform="translate(-44.182 -91.031)" fill="#16110d"/><path d="M95.358,185.382a.214.214,0,0,1,0,.406.777.777,0,0,1-.7,0,.214.214,0,0,1,0-.406.777.777,0,0,1,.7,0" transform="translate(-45.918 -90.029)" fill="#16110d"/><path d="M98.933,183.318a.214.214,0,0,1,0,.406.777.777,0,0,1-.7,0,.214.214,0,0,1,0-.406.777.777,0,0,1,.7,0" transform="translate(-47.655 -89.026)" fill="#16110d"/><path d="M102.508,181.254a.214.214,0,0,1,0,.406.777.777,0,0,1-.7,0,.214.214,0,0,1,0-.406.777.777,0,0,1,.7,0" transform="translate(-49.392 -88.023)" fill="#16110d"/><path d="M106.082,179.19a.214.214,0,0,1,0,.406.777.777,0,0,1-.7,0,.214.214,0,0,1,0-.406.777.777,0,0,1,.7,0" transform="translate(-51.129 -87.02)" fill="#16110d"/><path d="M109.657,177.127a.214.214,0,0,1,0,.406.777.777,0,0,1-.7,0,.214.214,0,0,1,0-.406.777.777,0,0,1,.7,0" transform="translate(-52.866 -86.018)" fill="#16110d"/><path d="M113.232,175.063a.214.214,0,0,1,0,.406.777.777,0,0,1-.7,0,.214.214,0,0,1,0-.406.777.777,0,0,1,.7,0" transform="translate(-54.603 -85.015)" fill="#16110d"/><path d="M73.91,193.637a.214.214,0,0,1,0,.406.777.777,0,0,1-.7,0,.214.214,0,0,1,0-.406.777.777,0,0,1,.7,0" transform="translate(-35.498 -94.039)" fill="#16110d"/><path d="M77.485,191.573a.214.214,0,0,1,0,.406.777.777,0,0,1-.7,0,.214.214,0,0,1,0-.406.777.777,0,0,1,.7,0" transform="translate(-37.235 -93.036)" fill="#16110d"/><path d="M81.06,189.51a.214.214,0,0,1,0,.406.777.777,0,0,1-.7,0,.214.214,0,0,1,0-.406.777.777,0,0,1,.7,0" transform="translate(-38.971 -92.034)" fill="#16110d"/><path d="M84.635,187.446a.214.214,0,0,1,0,.406.778.778,0,0,1-.7,0,.214.214,0,0,1,0-.406.778.778,0,0,1,.7,0" transform="translate(-40.708 -91.031)" fill="#16110d"/><path d="M88.209,185.382a.214.214,0,0,1,0,.406.777.777,0,0,1-.7,0,.214.214,0,0,1,0-.406.777.777,0,0,1,.7,0" transform="translate(-42.445 -90.029)" fill="#16110d"/><path d="M91.784,183.318a.214.214,0,0,1,0,.406.777.777,0,0,1-.7,0,.214.214,0,0,1,0-.406.777.777,0,0,1,.7,0" transform="translate(-44.182 -89.026)" fill="#16110d"/><path d="M95.358,181.254a.214.214,0,0,1,0,.406.777.777,0,0,1-.7,0,.214.214,0,0,1,0-.406.777.777,0,0,1,.7,0" transform="translate(-45.918 -88.023)" fill="#16110d"/><path d="M98.933,179.19a.214.214,0,0,1,0,.406.777.777,0,0,1-.7,0,.214.214,0,0,1,0-.406.777.777,0,0,1,.7,0" transform="translate(-47.655 -87.02)" fill="#16110d"/><path d="M102.508,177.127a.214.214,0,0,1,0,.406.777.777,0,0,1-.7,0,.214.214,0,0,1,0-.406.777.777,0,0,1,.7,0" transform="translate(-49.392 -86.018)" fill="#16110d"/><path d="M106.082,175.063a.214.214,0,0,1,0,.406.777.777,0,0,1-.7,0,.214.214,0,0,1,0-.406.777.777,0,0,1,.7,0" transform="translate(-51.129 -85.015)" fill="#16110d"/><path d="M109.657,173.465a.777.777,0,0,1-.7,0,.214.214,0,0,1,0-.406c.194-.112.9.294.7.406" transform="translate(-52.866 -84.073)" fill="#16110d"/><path d="M70.336,191.573a.214.214,0,0,1,0,.406.777.777,0,0,1-.7,0,.214.214,0,0,1,0-.406.777.777,0,0,1,.7,0" transform="translate(-33.761 -93.036)" fill="#16110d"/><path d="M73.91,189.51a.214.214,0,0,1,0,.406.777.777,0,0,1-.7,0,.214.214,0,0,1,0-.406.777.777,0,0,1,.7,0" transform="translate(-35.498 -92.034)" fill="#16110d"/><path d="M77.485,187.446a.214.214,0,0,1,0,.406.777.777,0,0,1-.7,0,.214.214,0,0,1,0-.406.777.777,0,0,1,.7,0" transform="translate(-37.235 -91.031)" fill="#16110d"/><path d="M81.06,185.382a.214.214,0,0,1,0,.406.777.777,0,0,1-.7,0,.214.214,0,0,1,0-.406.777.777,0,0,1,.7,0" transform="translate(-38.971 -90.029)" fill="#16110d"/><path d="M84.635,183.318a.214.214,0,0,1,0,.406.778.778,0,0,1-.7,0,.214.214,0,0,1,0-.406.778.778,0,0,1,.7,0" transform="translate(-40.708 -89.026)" fill="#16110d"/><path d="M88.209,181.254a.214.214,0,0,1,0,.406.777.777,0,0,1-.7,0,.214.214,0,0,1,0-.406.777.777,0,0,1,.7,0" transform="translate(-42.445 -88.023)" fill="#16110d"/><path d="M91.784,179.19a.214.214,0,0,1,0,.406.777.777,0,0,1-.7,0,.214.214,0,0,1,0-.406.777.777,0,0,1,.7,0" transform="translate(-44.182 -87.02)" fill="#16110d"/><path d="M95.359,177.127a.214.214,0,0,1,0,.406.777.777,0,0,1-.7,0,.214.214,0,0,1,0-.406.777.777,0,0,1,.7,0" transform="translate(-45.919 -86.018)" fill="#16110d"/><path d="M98.933,175.063a.214.214,0,0,1,0,.406.777.777,0,0,1-.7,0,.214.214,0,0,1,0-.406.777.777,0,0,1,.7,0" transform="translate(-47.655 -85.015)" fill="#16110d"/><path d="M102.508,173a.214.214,0,0,1,0,.406.777.777,0,0,1-.7,0,.214.214,0,0,1,0-.406.777.777,0,0,1,.7,0" transform="translate(-49.392 -84.012)" fill="#16110d"/><path d="M66.73,189.488a.214.214,0,0,1,0,.406.777.777,0,0,1-.7,0,.214.214,0,0,1,0-.406.777.777,0,0,1,.7,0" transform="translate(-32.009 -92.023)" fill="#16110d"/><path d="M70.305,187.424a.214.214,0,0,1,0,.406.777.777,0,0,1-.7,0,.214.214,0,0,1,0-.406.777.777,0,0,1,.7,0" transform="translate(-33.746 -91.021)" fill="#16110d"/><path d="M73.88,185.36a.214.214,0,0,1,0,.406.778.778,0,0,1-.7,0,.214.214,0,0,1,0-.406.778.778,0,0,1,.7,0" transform="translate(-35.483 -90.018)" fill="#16110d"/><path d="M77.454,183.3a.214.214,0,0,1,0,.406.78.78,0,0,1-.7,0,.214.214,0,0,1,0-.406.777.777,0,0,1,.7,0" transform="translate(-37.219 -89.015)" fill="#16110d"/><path d="M81.029,181.233a.214.214,0,0,1,0,.406.777.777,0,0,1-.7,0,.214.214,0,0,1,0-.406.777.777,0,0,1,.7,0" transform="translate(-38.956 -88.013)" fill="#16110d"/><path d="M84.6,179.169a.214.214,0,0,1,0,.406.778.778,0,0,1-.7,0,.214.214,0,0,1,0-.406.778.778,0,0,1,.7,0" transform="translate(-40.693 -87.01)" fill="#16110d"/><path d="M88.178,177.1a.215.215,0,0,1,0,.406.78.78,0,0,1-.7,0,.214.214,0,0,1,0-.406.777.777,0,0,1,.7,0" transform="translate(-42.43 -86.007)" fill="#16110d"/><path d="M91.753,175.041a.214.214,0,0,1,0,.406.777.777,0,0,1-.7,0,.214.214,0,0,1,0-.406.776.776,0,0,1,.7,0" transform="translate(-44.167 -85.004)" fill="#16110d"/><path d="M95.328,172.977a.214.214,0,0,1,0,.406.777.777,0,0,1-.7,0,.214.214,0,0,1,0-.406.776.776,0,0,1,.7,0" transform="translate(-45.904 -84.001)" fill="#16110d"/><path d="M98.9,170.913a.214.214,0,0,1,0,.406.777.777,0,0,1-.7,0,.214.214,0,0,1,0-.406.777.777,0,0,1,.7,0" transform="translate(-47.64 -82.999)" fill="#16110d"/><path d="M63.155,187.424a.214.214,0,0,1,0,.406.777.777,0,0,1-.7,0,.214.214,0,0,1,0-.406.777.777,0,0,1,.7,0" transform="translate(-30.272 -91.021)" fill="#16110d"/><path d="M66.73,185.36a.214.214,0,0,1,0,.406.78.78,0,0,1-.7,0,.214.214,0,0,1,0-.406.777.777,0,0,1,.7,0" transform="translate(-32.009 -90.018)" fill="#16110d"/><path d="M70.305,183.3a.214.214,0,0,1,0,.406.78.78,0,0,1-.7,0,.214.214,0,0,1,0-.406.777.777,0,0,1,.7,0" transform="translate(-33.746 -89.015)" fill="#16110d"/><path d="M73.88,181.233a.214.214,0,0,1,0,.406.778.778,0,0,1-.7,0,.214.214,0,0,1,0-.406.778.778,0,0,1,.7,0" transform="translate(-35.483 -88.013)" fill="#16110d"/><path d="M77.454,179.169a.214.214,0,0,1,0,.406.777.777,0,0,1-.7,0,.214.214,0,0,1,0-.406.777.777,0,0,1,.7,0" transform="translate(-37.219 -87.01)" fill="#16110d"/><path d="M81.029,177.1a.214.214,0,0,1,0,.406.78.78,0,0,1-.7,0,.214.214,0,0,1,0-.406.777.777,0,0,1,.7,0" transform="translate(-38.956 -86.007)" fill="#16110d"/><path d="M84.6,175.041a.214.214,0,0,1,0,.406.778.778,0,0,1-.7,0,.214.214,0,0,1,0-.406.778.778,0,0,1,.7,0" transform="translate(-40.693 -85.004)" fill="#16110d"/><path d="M88.178,172.977a.214.214,0,0,1,0,.406.777.777,0,0,1-.7,0,.214.214,0,0,1,0-.406.777.777,0,0,1,.7,0" transform="translate(-42.43 -84.001)" fill="#16110d"/><path d="M91.753,170.913a.214.214,0,0,1,0,.406.778.778,0,0,1-.7,0,.214.214,0,0,1,0-.406.776.776,0,0,1,.7,0" transform="translate(-44.167 -82.999)" fill="#16110d"/><path d="M95.328,168.849a.214.214,0,0,1,0,.406.78.78,0,0,1-.7,0,.214.214,0,0,1,0-.406.777.777,0,0,1,.7,0" transform="translate(-45.904 -81.996)" fill="#16110d"/><path d="M59.581,185.36a.214.214,0,0,1,0,.406.78.78,0,0,1-.7,0,.214.214,0,0,1,0-.406.777.777,0,0,1,.7,0" transform="translate(-28.536 -90.018)" fill="#16110d"/><path d="M63.155,183.3a.214.214,0,0,1,0,.406.777.777,0,0,1-.7,0,.214.214,0,0,1,0-.406.777.777,0,0,1,.7,0" transform="translate(-30.272 -89.015)" fill="#16110d"/><path d="M66.73,181.233a.214.214,0,0,1,0,.406.777.777,0,0,1-.7,0,.214.214,0,0,1,0-.406.777.777,0,0,1,.7,0" transform="translate(-32.009 -88.013)" fill="#16110d"/><path d="M70.305,179.169a.214.214,0,0,1,0,.406.777.777,0,0,1-.7,0,.214.214,0,0,1,0-.406.777.777,0,0,1,.7,0" transform="translate(-33.746 -87.01)" fill="#16110d"/><path d="M73.88,177.1a.214.214,0,0,1,0,.406.781.781,0,0,1-.7,0,.215.215,0,0,1,0-.406.778.778,0,0,1,.7,0" transform="translate(-35.483 -86.007)" fill="#16110d"/><path d="M77.454,175.041a.214.214,0,0,1,0,.406.777.777,0,0,1-.7,0,.214.214,0,0,1,0-.406.777.777,0,0,1,.7,0" transform="translate(-37.219 -85.004)" fill="#16110d"/><path d="M81.029,172.977a.214.214,0,0,1,0,.406.777.777,0,0,1-.7,0,.214.214,0,0,1,0-.406.777.777,0,0,1,.7,0" transform="translate(-38.956 -84.001)" fill="#16110d"/><path d="M84.6,170.913a.215.215,0,0,1,0,.406.78.78,0,0,1-.7,0,.214.214,0,0,1,0-.406.777.777,0,0,1,.7,0" transform="translate(-40.693 -82.999)" fill="#16110d"/><path d="M88.178,168.85a.214.214,0,0,1,0,.406.777.777,0,0,1-.7,0,.214.214,0,0,1,0-.406.777.777,0,0,1,.7,0" transform="translate(-42.43 -81.996)" fill="#16110d"/><path d="M91.753,166.786a.214.214,0,0,1,0,.406.777.777,0,0,1-.7,0,.214.214,0,0,1,0-.406.777.777,0,0,1,.7,0" transform="translate(-44.167 -80.993)" fill="#16110d"/><path d="M59.581,181.233a.214.214,0,0,1,0,.406.777.777,0,0,1-.7,0,.214.214,0,0,1,0-.406.777.777,0,0,1,.7,0" transform="translate(-28.536 -88.013)" fill="#16110d"/><path d="M63.156,179.169a.214.214,0,0,1,0,.406.78.78,0,0,1-.7,0,.214.214,0,0,1,0-.406.777.777,0,0,1,.7,0" transform="translate(-30.273 -87.01)" fill="#16110d"/><path d="M73.176,172.977a.777.777,0,0,1,.7,0,.214.214,0,0,1,0,.406.777.777,0,0,1-.7,0,.214.214,0,0,1,0-.406h0" transform="translate(-35.483 -84.001)" fill="#16110d"/><path d="M77.454,170.913a.214.214,0,0,1,0,.406.78.78,0,0,1-.7,0,.214.214,0,0,1,0-.406.777.777,0,0,1,.7,0" transform="translate(-37.219 -82.999)" fill="#16110d"/><path d="M81.029,168.85a.214.214,0,0,1,0,.406.777.777,0,0,1-.7,0,.214.214,0,0,1,0-.406.777.777,0,0,1,.7,0" transform="translate(-38.956 -81.996)" fill="#16110d"/><path d="M84.6,166.786a.214.214,0,0,1,0,.406.777.777,0,0,1-.7,0,.214.214,0,0,1,0-.406.777.777,0,0,1,.7,0" transform="translate(-40.693 -80.993)" fill="#16110d"/><path d="M88.178,165.188a.777.777,0,0,1-.7,0,.214.214,0,0,1,0-.406c.194-.112.9.294.7.406" transform="translate(-42.43 -80.052)" fill="#16110d"/><path d="M73.88,168.85a.214.214,0,0,1,0,.406.776.776,0,0,1-.7,0,.214.214,0,0,1,0-.406.777.777,0,0,1,.7,0" transform="translate(-35.483 -81.996)" fill="#16110d"/><path d="M77.454,166.786a.214.214,0,0,1,0,.406.777.777,0,0,1-.7,0,.214.214,0,0,1,0-.406.777.777,0,0,1,.7,0" transform="translate(-37.219 -80.993)" fill="#16110d"/><path d="M81.029,164.722a.214.214,0,0,1,0,.406.777.777,0,0,1-.7,0,.214.214,0,0,1,0-.406.777.777,0,0,1,.7,0" transform="translate(-38.956 -79.991)" fill="#16110d"/><path d="M84.6,163.063a.777.777,0,0,1-.7,0,.214.214,0,0,1,0-.406.777.777,0,0,1,.7,0,.214.214,0,0,1,0,.406" transform="translate(-40.693 -78.988)" fill="#16110d"/><path d="M70.305,166.786a.214.214,0,0,1,0,.406.777.777,0,0,1-.7,0,.214.214,0,0,1,0-.406.777.777,0,0,1,.7,0" transform="translate(-33.746 -80.993)" fill="#16110d"/><path d="M73.88,164.722a.214.214,0,0,1,0,.406.777.777,0,0,1-.7,0,.214.214,0,0,1,0-.406.776.776,0,0,1,.7,0" transform="translate(-35.483 -79.991)" fill="#16110d"/><path d="M77.454,162.658a.214.214,0,0,1,0,.406.777.777,0,0,1-.7,0,.214.214,0,0,1,0-.406.777.777,0,0,1,.7,0" transform="translate(-37.219 -78.988)" fill="#16110d"/><path d="M81.029,160.594a.214.214,0,0,1,0,.406.777.777,0,0,1-.7,0,.214.214,0,0,1,0-.406.777.777,0,0,1,.7,0" transform="translate(-38.956 -77.985)" fill="#16110d"/><path d="M66.73,164.722a.214.214,0,0,1,0,.406.777.777,0,0,1-.7,0,.214.214,0,0,1,0-.406.777.777,0,0,1,.7,0" transform="translate(-32.009 -79.991)" fill="#16110d"/><path d="M70.305,162.658a.214.214,0,0,1,0,.406.777.777,0,0,1-.7,0,.214.214,0,0,1,0-.406.777.777,0,0,1,.7,0" transform="translate(-33.746 -78.988)" fill="#16110d"/><path d="M73.88,160.594a.214.214,0,0,1,0,.406.777.777,0,0,1-.7,0,.214.214,0,0,1,0-.406.776.776,0,0,1,.7,0" transform="translate(-35.483 -77.985)" fill="#16110d"/><path d="M77.454,158.53a.214.214,0,0,1,0,.406.777.777,0,0,1-.7,0,.214.214,0,0,1,0-.406.777.777,0,0,1,.7,0" transform="translate(-37.219 -76.982)" fill="#16110d"/><path d="M63.156,162.658a.214.214,0,0,1,0,.406.777.777,0,0,1-.7,0,.214.214,0,0,1,0-.406.777.777,0,0,1,.7,0" transform="translate(-30.273 -78.988)" fill="#16110d"/><path d="M66.73,160.594a.214.214,0,0,1,0,.406.777.777,0,0,1-.7,0,.214.214,0,0,1,0-.406.777.777,0,0,1,.7,0" transform="translate(-32.009 -77.985)" fill="#16110d"/><path d="M70.305,158.53a.214.214,0,0,1,0,.406.777.777,0,0,1-.7,0,.214.214,0,0,1,0-.406.777.777,0,0,1,.7,0" transform="translate(-33.746 -76.982)" fill="#16110d"/><path d="M73.88,156.466a.214.214,0,0,1,0,.406.776.776,0,0,1-.7,0,.214.214,0,0,1,0-.406.777.777,0,0,1,.7,0" transform="translate(-35.483 -75.979)" fill="#16110d"/><path d="M59.55,160.572a.214.214,0,0,1,0,.406.777.777,0,0,1-.7,0,.214.214,0,0,1,0-.406.777.777,0,0,1,.7,0" transform="translate(-28.521 -77.974)" fill="#16110d"/><path d="M63.125,158.509a.214.214,0,0,1,0,.406.777.777,0,0,1-.7,0,.214.214,0,0,1,0-.406.777.777,0,0,1,.7,0" transform="translate(-30.258 -76.972)" fill="#16110d"/><path d="M66.7,156.445a.214.214,0,0,1,0,.406.776.776,0,0,1-.7,0,.214.214,0,0,1,0-.406.777.777,0,0,1,.7,0" transform="translate(-31.994 -75.969)" fill="#16110d"/><path d="M70.274,154.381a.214.214,0,0,1,0,.406.777.777,0,0,1-.7,0,.214.214,0,0,1,0-.406.777.777,0,0,1,.7,0" transform="translate(-33.731 -74.966)" fill="#16110d"/><path d="M55.975,158.509a.214.214,0,0,1,0,.406.777.777,0,0,1-.7,0,.214.214,0,0,1,0-.406.777.777,0,0,1,.7,0" transform="translate(-26.784 -76.972)" fill="#16110d"/><path d="M59.55,156.445a.214.214,0,0,1,0,.406.777.777,0,0,1-.7,0,.214.214,0,0,1,0-.406.777.777,0,0,1,.7,0" transform="translate(-28.521 -75.969)" fill="#16110d"/><path d="M63.125,154.381a.214.214,0,0,1,0,.406.777.777,0,0,1-.7,0,.214.214,0,0,1,0-.406.777.777,0,0,1,.7,0" transform="translate(-30.258 -74.966)" fill="#16110d"/><path d="M66.7,152.317a.214.214,0,0,1,0,.406.777.777,0,0,1-.7,0,.214.214,0,0,1,0-.406.776.776,0,0,1,.7,0" transform="translate(-31.994 -73.964)" fill="#16110d"/><path d="M52.4,156.445a.214.214,0,0,1,0,.406.777.777,0,0,1-.7,0,.214.214,0,0,1,0-.406.777.777,0,0,1,.7,0" transform="translate(-25.047 -75.969)" fill="#16110d"/><path d="M55.975,154.381a.214.214,0,0,1,0,.406.777.777,0,0,1-.7,0,.214.214,0,0,1,0-.406.777.777,0,0,1,.7,0" transform="translate(-26.784 -74.966)" fill="#16110d"/><path d="M59.55,152.317a.214.214,0,0,1,0,.406.777.777,0,0,1-.7,0,.214.214,0,0,1,0-.406.777.777,0,0,1,.7,0" transform="translate(-28.521 -73.964)" fill="#16110d"/><path d="M63.125,150.253a.214.214,0,0,1,0,.406.777.777,0,0,1-.7,0,.214.214,0,0,1,0-.406.777.777,0,0,1,.7,0" transform="translate(-30.258 -72.961)" fill="#16110d"/><path d="M48.826,154.381a.214.214,0,0,1,0,.406.777.777,0,0,1-.7,0,.214.214,0,0,1,0-.406.777.777,0,0,1,.7,0" transform="translate(-23.31 -74.966)" fill="#16110d"/><path d="M52.4,152.317a.214.214,0,0,1,0,.406.777.777,0,0,1-.7,0,.214.214,0,0,1,0-.406.777.777,0,0,1,.7,0" transform="translate(-25.047 -73.964)" fill="#16110d"/><path d="M55.975,150.253a.214.214,0,0,1,0,.406.777.777,0,0,1-.7,0,.214.214,0,0,1,0-.406.777.777,0,0,1,.7,0" transform="translate(-26.784 -72.961)" fill="#16110d"/><path d="M59.55,148.189a.214.214,0,0,1,0,.406.777.777,0,0,1-.7,0,.214.214,0,0,1,0-.406.777.777,0,0,1,.7,0h0" transform="translate(-28.521 -71.958)" fill="#16110d"/><path d="M174.1,218.348a.214.214,0,0,1,0,.406.78.78,0,0,1-.7,0,.214.214,0,0,1,0-.406.776.776,0,0,1,.7,0" transform="translate(-84.177 -106.045)" fill="#16110d"/><path d="M177.676,216.284a.214.214,0,0,1,0,.406.777.777,0,0,1-.7,0,.214.214,0,0,1,0-.406.777.777,0,0,1,.7,0" transform="translate(-85.913 -105.043)" fill="#16110d"/><path d="M181.251,214.22a.214.214,0,0,1,0,.406.776.776,0,0,1-.7,0,.214.214,0,0,1,0-.406.777.777,0,0,1,.7,0" transform="translate(-87.65 -104.04)" fill="#16110d"/><path d="M184.826,212.157a.214.214,0,0,1,0,.406.777.777,0,0,1-.7,0,.214.214,0,0,1,0-.406.777.777,0,0,1,.7,0" transform="translate(-89.387 -103.037)" fill="#16110d"/><path d="M166.952,218.348a.214.214,0,0,1,0,.406.78.78,0,0,1-.7,0,.214.214,0,0,1,0-.406.777.777,0,0,1,.7,0" transform="translate(-80.703 -106.045)" fill="#16110d"/><path d="M170.527,216.284a.214.214,0,0,1,0,.406.777.777,0,0,1-.7,0,.214.214,0,0,1,0-.406.777.777,0,0,1,.7,0" transform="translate(-82.44 -105.043)" fill="#16110d"/><path d="M174.1,214.22a.214.214,0,0,1,0,.406.776.776,0,0,1-.7,0,.214.214,0,0,1,0-.406.777.777,0,0,1,.7,0" transform="translate(-84.177 -104.04)" fill="#16110d"/><path d="M177.676,212.157a.214.214,0,0,1,0,.406.778.778,0,0,1-.7,0,.214.214,0,0,1,0-.406.777.777,0,0,1,.7,0" transform="translate(-85.913 -103.037)" fill="#16110d"/><path d="M181.251,210.093a.215.215,0,0,1,0,.406.78.78,0,0,1-.7,0,.214.214,0,0,1,0-.406.776.776,0,0,1,.7,0" transform="translate(-87.65 -102.035)" fill="#16110d"/><path d="M184.826,208.029a.214.214,0,0,1,0,.406.777.777,0,0,1-.7,0,.214.214,0,0,1,0-.406.776.776,0,0,1,.7,0" transform="translate(-89.387 -101.032)" fill="#16110d"/><path d="M159.1,218.754a.215.215,0,0,1,0-.406.78.78,0,0,1,.7,0,.214.214,0,0,1,0,.406.777.777,0,0,1-.7,0h0" transform="translate(-77.23 -106.046)" fill="#16110d"/><path d="M163.378,216.284a.214.214,0,0,1,0,.406.776.776,0,0,1-.7,0,.214.214,0,0,1,0-.406.776.776,0,0,1,.7,0" transform="translate(-78.966 -105.043)" fill="#16110d"/><path d="M166.952,214.22a.214.214,0,0,1,0,.406.777.777,0,0,1-.7,0,.214.214,0,0,1,0-.406.777.777,0,0,1,.7,0" transform="translate(-80.703 -104.04)" fill="#16110d"/><path d="M170.527,212.157a.214.214,0,0,1,0,.406.78.78,0,0,1-.7,0,.214.214,0,0,1,0-.406.777.777,0,0,1,.7,0" transform="translate(-82.44 -103.037)" fill="#16110d"/><path d="M174.1,210.093a.214.214,0,0,1,0,.406.777.777,0,0,1-.7,0,.214.214,0,0,1,0-.406.776.776,0,0,1,.7,0" transform="translate(-84.177 -102.035)" fill="#16110d"/><path d="M177.677,208.029a.214.214,0,0,1,0,.406.778.778,0,0,1-.7,0,.214.214,0,0,1,0-.406.778.778,0,0,1,.7,0" transform="translate(-85.913 -101.032)" fill="#16110d"/><path d="M181.251,205.965a.214.214,0,0,1,0,.406.776.776,0,0,1-.7,0,.214.214,0,0,1,0-.406.776.776,0,0,1,.7,0" transform="translate(-87.65 -100.029)" fill="#16110d"/><path d="M156.228,216.284a.214.214,0,0,1,0,.406.777.777,0,0,1-.7,0,.214.214,0,0,1,0-.406.777.777,0,0,1,.7,0" transform="translate(-75.493 -105.043)" fill="#16110d"/><path d="M159.8,214.22a.214.214,0,0,1,0,.406.777.777,0,0,1-.7,0,.214.214,0,0,1,0-.406.777.777,0,0,1,.7,0" transform="translate(-77.23 -104.04)" fill="#16110d"/><path d="M163.378,212.157a.214.214,0,0,1,0,.406.78.78,0,0,1-.7,0,.214.214,0,0,1,0-.406.777.777,0,0,1,.7,0" transform="translate(-78.966 -103.037)" fill="#16110d"/><path d="M152.654,214.22a.215.215,0,0,1,0,.406.78.78,0,0,1-.7,0,.214.214,0,0,1,0-.406.777.777,0,0,1,.7,0" transform="translate(-73.756 -104.04)" fill="#16110d"/><path d="M156.228,212.157a.214.214,0,0,1,0,.406.777.777,0,0,1-.7,0,.214.214,0,0,1,0-.406.777.777,0,0,1,.7,0" transform="translate(-75.493 -103.037)" fill="#16110d"/><path d="M159.8,210.093a.214.214,0,0,1,0,.406.777.777,0,0,1-.7,0,.214.214,0,0,1,0-.406.777.777,0,0,1,.7,0" transform="translate(-77.23 -102.035)" fill="#16110d"/><path d="M149.048,212.135a.214.214,0,0,1,0,.406.777.777,0,0,1-.7,0,.214.214,0,0,1,0-.406.777.777,0,0,1,.7,0" transform="translate(-72.004 -103.027)" fill="#16110d"/><path d="M152.623,210.071a.214.214,0,0,1,0,.406.78.78,0,0,1-.7,0,.214.214,0,0,1,0-.406.777.777,0,0,1,.7,0" transform="translate(-73.741 -102.024)" fill="#16110d"/><path d="M156.2,208.007a.214.214,0,0,1,0,.406.777.777,0,0,1-.7,0,.214.214,0,0,1,0-.406.776.776,0,0,1,.7,0" transform="translate(-75.478 -101.021)" fill="#16110d"/><path d="M145.473,210.071a.214.214,0,0,1,0,.406.78.78,0,0,1-.7,0,.214.214,0,0,1,0-.406.777.777,0,0,1,.7,0" transform="translate(-70.267 -102.024)" fill="#16110d"/><path d="M149.048,208.007a.214.214,0,0,1,0,.406.777.777,0,0,1-.7,0,.214.214,0,0,1,0-.406.777.777,0,0,1,.7,0" transform="translate(-72.004 -101.021)" fill="#16110d"/><path d="M152.623,205.943a.214.214,0,0,1,0,.406.777.777,0,0,1-.7,0,.214.214,0,0,1,0-.406.776.776,0,0,1,.7,0" transform="translate(-73.741 -100.018)" fill="#16110d"/><path d="M141.9,208.007a.214.214,0,0,1,0,.406.777.777,0,0,1-.7,0,.214.214,0,0,1,0-.406.776.776,0,0,1,.7,0" transform="translate(-68.531 -101.021)" fill="#16110d"/><path d="M145.473,205.943a.214.214,0,0,1,0,.406.777.777,0,0,1-.7,0,.214.214,0,0,1,0-.406.776.776,0,0,1,.7,0" transform="translate(-70.267 -100.018)" fill="#16110d"/><path d="M149.048,203.88a.214.214,0,0,1,0,.406.777.777,0,0,1-.7,0,.214.214,0,0,1,0-.406.777.777,0,0,1,.7,0" transform="translate(-72.004 -99.016)" fill="#16110d"/><path d="M138.324,205.943a.214.214,0,0,1,0,.406.777.777,0,0,1-.7,0,.214.214,0,0,1,0-.406.777.777,0,0,1,.7,0" transform="translate(-66.794 -100.018)" fill="#16110d"/><path d="M141.9,203.88a.214.214,0,0,1,0,.406.776.776,0,0,1-.7,0,.214.214,0,0,1,0-.406.777.777,0,0,1,.7,0" transform="translate(-68.531 -99.016)" fill="#16110d"/><path d="M145.473,201.816a.214.214,0,0,1,0,.406.777.777,0,0,1-.7,0,.214.214,0,0,1,0-.406.777.777,0,0,1,.7,0" transform="translate(-70.267 -98.013)" fill="#16110d"/><path d="M134.749,203.88a.214.214,0,0,1,0,.406.776.776,0,0,1-.7,0,.214.214,0,0,1,0-.406.777.777,0,0,1,.7,0" transform="translate(-65.057 -99.016)" fill="#16110d"/><path d="M138.324,201.816a.214.214,0,0,1,0,.406.777.777,0,0,1-.7,0,.214.214,0,0,1,0-.406.777.777,0,0,1,.7,0" transform="translate(-66.794 -98.013)" fill="#16110d"/><path d="M141.9,199.752a.214.214,0,0,1,0,.406.777.777,0,0,1-.7,0,.214.214,0,0,1,0-.406.777.777,0,0,1,.7,0" transform="translate(-68.531 -97.01)" fill="#16110d"/><path d="M144.876,197.688a.777.777,0,0,1,.7,0,.214.214,0,0,1,0,.406c-.194.112-.9-.294-.7-.406" transform="translate(-70.373 -96.007)" fill="#16110d"/><path d="M131.175,201.816a.214.214,0,0,1,0,.406.777.777,0,0,1-.7,0,.214.214,0,0,1,0-.406.777.777,0,0,1,.7,0" transform="translate(-63.32 -98.013)" fill="#16110d"/><path d="M134.749,199.752a.214.214,0,0,1,0,.406.778.778,0,0,1-.7,0,.214.214,0,0,1,0-.406.777.777,0,0,1,.7,0" transform="translate(-65.057 -97.01)" fill="#16110d"/><path d="M138.324,197.688a.214.214,0,0,1,0,.406.78.78,0,0,1-.7,0,.214.214,0,0,1,0-.406.777.777,0,0,1,.7,0" transform="translate(-66.794 -96.007)" fill="#16110d"/><path d="M127.6,199.752a.214.214,0,0,1,0,.406.78.78,0,0,1-.7,0,.214.214,0,0,1,0-.406.777.777,0,0,1,.7,0" transform="translate(-61.583 -97.01)" fill="#16110d"/><path d="M131.175,197.688a.214.214,0,0,1,0,.406.777.777,0,0,1-.7,0,.214.214,0,0,1,0-.406.777.777,0,0,1,.7,0" transform="translate(-63.32 -96.007)" fill="#16110d"/><path d="M134.749,195.624a.214.214,0,0,1,0,.406.777.777,0,0,1-.7,0,.214.214,0,0,1,0-.406.776.776,0,0,1,.7,0" transform="translate(-65.057 -95.005)" fill="#16110d"/><path d="M124.025,197.688a.214.214,0,0,1,0,.406.777.777,0,0,1-.7,0,.214.214,0,0,1,0-.406.777.777,0,0,1,.7,0" transform="translate(-59.846 -96.007)" fill="#16110d"/><path d="M127.6,195.624a.214.214,0,0,1,0,.406.777.777,0,0,1-.7,0,.214.214,0,0,1,0-.406.777.777,0,0,1,.7,0" transform="translate(-61.583 -95.005)" fill="#16110d"/><path d="M131.175,193.56a.214.214,0,0,1,0,.406.777.777,0,0,1-.7,0,.214.214,0,0,1,0-.406.777.777,0,0,1,.7,0" transform="translate(-63.32 -94.002)" fill="#16110d"/><path d="M134.046,191.5a.777.777,0,0,1,.7,0,.214.214,0,0,1,0,.406.777.777,0,0,1-.7,0,.214.214,0,0,1,0-.406" transform="translate(-65.057 -93)" fill="#16110d"/><path d="M120.42,195.6a.214.214,0,0,1,0,.406.78.78,0,0,1-.7,0,.214.214,0,0,1,0-.406.777.777,0,0,1,.7,0" transform="translate(-58.095 -94.994)" fill="#16110d"/><path d="M123.994,193.539a.214.214,0,0,1,0,.406.776.776,0,0,1-.7,0,.214.214,0,0,1,0-.406.777.777,0,0,1,.7,0" transform="translate(-59.831 -93.992)" fill="#16110d"/><path d="M127.569,191.475a.214.214,0,0,1,0,.406.777.777,0,0,1-.7,0,.214.214,0,0,1,0-.406.777.777,0,0,1,.7,0" transform="translate(-61.568 -92.989)" fill="#16110d"/><path d="M130.547,189.411a.777.777,0,0,1,.7,0,.214.214,0,0,1,0,.406c-.194.112-.9-.294-.7-.406" transform="translate(-63.411 -91.986)" fill="#16110d"/><path d="M116.845,193.539a.214.214,0,0,1,0,.406.777.777,0,0,1-.7,0,.214.214,0,0,1,0-.406.777.777,0,0,1,.7,0" transform="translate(-56.358 -93.992)" fill="#16110d"/><path d="M120.42,191.475a.214.214,0,0,1,0,.406.777.777,0,0,1-.7,0,.214.214,0,0,1,0-.406.777.777,0,0,1,.7,0" transform="translate(-58.095 -92.989)" fill="#16110d"/><path d="M124,189.411a.215.215,0,0,1,0,.406.78.78,0,0,1-.7,0,.214.214,0,0,1,0-.406.777.777,0,0,1,.7,0" transform="translate(-59.832 -91.986)" fill="#16110d"/><path d="M127.569,187.347a.214.214,0,0,1,0,.406.777.777,0,0,1-.7,0,.214.214,0,0,1,0-.406.777.777,0,0,1,.7,0" transform="translate(-61.568 -90.983)" fill="#16110d"/><path d="M94.695,202.2a.214.214,0,0,1,0-.406.777.777,0,0,1,.7,0,.214.214,0,0,1,0,.406.777.777,0,0,1-.7,0" transform="translate(-45.938 -98.003)" fill="#16110d"/><path d="M98.972,199.73a.214.214,0,0,1,0,.406.777.777,0,0,1-.7,0,.214.214,0,0,1,0-.406.777.777,0,0,1,.7,0" transform="translate(-47.674 -97)" fill="#16110d"/><path d="M102.547,197.666a.214.214,0,0,1,0,.406.781.781,0,0,1-.7,0,.215.215,0,0,1,0-.406.778.778,0,0,1,.7,0" transform="translate(-49.411 -95.997)" fill="#16110d"/><path d="M106.121,195.6a.214.214,0,0,1,0,.406.777.777,0,0,1-.7,0,.214.214,0,0,1,0-.406.777.777,0,0,1,.7,0" transform="translate(-51.148 -94.994)" fill="#16110d"/><path d="M109.7,193.539a.214.214,0,0,1,0,.406.777.777,0,0,1-.7,0,.214.214,0,0,1,0-.406.777.777,0,0,1,.7,0" transform="translate(-52.885 -93.992)" fill="#16110d"/><path d="M113.271,191.475a.214.214,0,0,1,0,.406.778.778,0,0,1-.7,0,.214.214,0,0,1,0-.406.778.778,0,0,1,.7,0" transform="translate(-54.621 -92.989)" fill="#16110d"/><path d="M116.845,189.411a.214.214,0,0,1,0,.406.78.78,0,0,1-.7,0,.214.214,0,0,1,0-.406.777.777,0,0,1,.7,0" transform="translate(-56.358 -91.986)" fill="#16110d"/><path d="M120.42,187.347a.214.214,0,0,1,0,.406.777.777,0,0,1-.7,0,.214.214,0,0,1,0-.406.777.777,0,0,1,.7,0" transform="translate(-58.095 -90.983)" fill="#16110d"/><path d="M124,185.283a.214.214,0,0,1,0,.406.777.777,0,0,1-.7,0,.214.214,0,0,1,0-.406.777.777,0,0,1,.7,0" transform="translate(-59.832 -89.98)" fill="#16110d"/><path d="M127.569,183.686a.777.777,0,0,1-.7,0,.214.214,0,0,1,0-.406c.194-.112.9.294.7.406" transform="translate(-61.568 -89.039)" fill="#16110d"/><path d="M88.248,201.794a.214.214,0,0,1,0,.406.777.777,0,0,1-.7,0,.214.214,0,0,1,0-.406.777.777,0,0,1,.7,0" transform="translate(-42.464 -98.002)" fill="#16110d"/><path d="M91.822,199.73a.214.214,0,0,1,0,.406.777.777,0,0,1-.7,0,.214.214,0,0,1,0-.406.777.777,0,0,1,.7,0" transform="translate(-44.2 -97)" fill="#16110d"/><path d="M95.4,197.666a.214.214,0,0,1,0,.406.78.78,0,0,1-.7,0,.214.214,0,0,1,0-.406.777.777,0,0,1,.7,0" transform="translate(-45.937 -95.997)" fill="#16110d"/><path d="M98.972,195.6a.214.214,0,0,1,0,.406.777.777,0,0,1-.7,0,.214.214,0,0,1,0-.406.777.777,0,0,1,.7,0" transform="translate(-47.674 -94.994)" fill="#16110d"/><path d="M102.547,193.539a.214.214,0,0,1,0,.406.778.778,0,0,1-.7,0,.214.214,0,0,1,0-.406.778.778,0,0,1,.7,0" transform="translate(-49.411 -93.992)" fill="#16110d"/><path d="M106.121,191.475a.214.214,0,0,1,0,.406.777.777,0,0,1-.7,0,.214.214,0,0,1,0-.406.777.777,0,0,1,.7,0" transform="translate(-51.148 -92.989)" fill="#16110d"/><path d="M109.7,189.411a.214.214,0,0,1,0,.406.777.777,0,0,1-.7,0,.214.214,0,0,1,0-.406.777.777,0,0,1,.7,0" transform="translate(-52.885 -91.986)" fill="#16110d"/><path d="M113.271,187.347a.214.214,0,0,1,0,.406.778.778,0,0,1-.7,0,.214.214,0,0,1,0-.406.778.778,0,0,1,.7,0" transform="translate(-54.621 -90.983)" fill="#16110d"/><path d="M116.845,185.283a.214.214,0,0,1,0,.406.777.777,0,0,1-.7,0,.214.214,0,0,1,0-.406.777.777,0,0,1,.7,0" transform="translate(-56.358 -89.98)" fill="#16110d"/><path d="M120.42,183.22a.214.214,0,0,1,0,.406.777.777,0,0,1-.7,0,.214.214,0,0,1,0-.406.777.777,0,0,1,.7,0" transform="translate(-58.095 -88.978)" fill="#16110d"/><path d="M124,181.156a.214.214,0,0,1,0,.406.777.777,0,0,1-.7,0,.214.214,0,0,1,0-.406.777.777,0,0,1,.7,0" transform="translate(-59.832 -87.975)" fill="#16110d"/><path d="M27.214,158.937a.214.214,0,0,1,0,.406.78.78,0,0,1-.7,0,.214.214,0,0,1,0-.406.777.777,0,0,1,.7,0" transform="translate(-12.81 -77.18)" fill="#16110d"/><path d="M30.789,156.874a.214.214,0,0,1,0,.406.777.777,0,0,1-.7,0,.214.214,0,0,1,0-.406.777.777,0,0,1,.7,0" transform="translate(-14.547 -76.178)" fill="#16110d"/><path d="M34.364,154.81a.214.214,0,0,1,0,.406.777.777,0,0,1-.7,0,.214.214,0,0,1,0-.406.777.777,0,0,1,.7,0" transform="translate(-16.284 -75.175)" fill="#16110d"/><path d="M37.938,152.746a.214.214,0,0,1,0,.406.78.78,0,0,1-.7,0,.214.214,0,0,1,0-.406.777.777,0,0,1,.7,0" transform="translate(-18.02 -74.172)" fill="#16110d"/><path d="M23.64,156.874a.214.214,0,0,1,0,.406.777.777,0,0,1-.7,0,.214.214,0,0,1,0-.406.777.777,0,0,1,.7,0" transform="translate(-11.073 -76.178)" fill="#16110d"/><path d="M27.215,154.81a.214.214,0,0,1,0,.406.778.778,0,0,1-.7,0,.214.214,0,0,1,0-.406.778.778,0,0,1,.7,0" transform="translate(-12.81 -75.175)" fill="#16110d"/><path d="M20.065,154.81a.214.214,0,0,1,0,.406.777.777,0,0,1-.7,0,.214.214,0,0,1,0-.406.777.777,0,0,1,.7,0" transform="translate(-9.337 -75.175)" fill="#16110d"/><path d="M23.64,152.746a.214.214,0,0,1,0,.406.78.78,0,0,1-.7,0,.214.214,0,0,1,0-.406.777.777,0,0,1,.7,0" transform="translate(-11.073 -74.172)" fill="#16110d"/><path d="M16.49,152.746a.214.214,0,0,1,0,.406.777.777,0,0,1-.7,0,.214.214,0,0,1,0-.406.777.777,0,0,1,.7,0" transform="translate(-7.6 -74.172)" fill="#16110d"/><path d="M20.065,150.682a.214.214,0,0,1,0,.406.777.777,0,0,1-.7,0,.214.214,0,0,1,0-.406.777.777,0,0,1,.7,0" transform="translate(-9.337 -73.169)" fill="#16110d"/><path d="M12.916,150.682a.214.214,0,0,1,0,.406.777.777,0,0,1-.7,0,.214.214,0,0,1,0-.406.777.777,0,0,1,.7,0" transform="translate(-5.863 -73.169)" fill="#16110d"/><path d="M16.49,148.618a.214.214,0,0,1,0,.406.777.777,0,0,1-.7,0,.214.214,0,0,1,0-.406.777.777,0,0,1,.7,0" transform="translate(-7.6 -72.166)" fill="#16110d"/><path d="M9.31,148.6a.214.214,0,0,1,0,.406.777.777,0,0,1-.7,0,.214.214,0,0,1,0-.406.777.777,0,0,1,.7,0" transform="translate(-4.111 -72.156)" fill="#16110d"/><path d="M12.885,146.533a.214.214,0,0,1,0,.406.777.777,0,0,1-.7,0,.214.214,0,0,1,0-.406.777.777,0,0,1,.7,0" transform="translate(-5.848 -71.153)" fill="#16110d"/><path d="M5.735,146.533a.214.214,0,0,1,0,.406.777.777,0,0,1-.7,0,.214.214,0,0,1,0-.406.777.777,0,0,1,.7,0" transform="translate(-2.374 -71.153)" fill="#16110d"/><path d="M9.31,144.469a.215.215,0,0,1,0,.406.78.78,0,0,1-.7,0,.214.214,0,0,1,0-.406.777.777,0,0,1,.7,0" transform="translate(-4.111 -70.151)" fill="#16110d"/><path d="M2.161,144.469a.214.214,0,0,1,0,.406.78.78,0,0,1-.7,0,.214.214,0,0,1,0-.406.777.777,0,0,1,.7,0" transform="translate(-0.638 -70.151)" fill="#16110d"/><path d="M5.735,142.4a.214.214,0,0,1,0,.406.777.777,0,0,1-.7,0,.214.214,0,0,1,0-.406.777.777,0,0,1,.7,0" transform="translate(-2.374 -69.148)" fill="#16110d"/><path d="M2.161,140.341a.214.214,0,0,1,0,.406.777.777,0,0,1-.7,0,.214.214,0,0,1,0-.406.777.777,0,0,1,.7,0" transform="translate(-0.638 -68.145)" fill="#16110d"/><path d="M34.5,158.607a.214.214,0,0,1,0,.406.777.777,0,0,1-.7,0,.214.214,0,0,1,0-.406.777.777,0,0,1,.7,0" transform="translate(-16.352 -77.02)" fill="#16110d"/><path d="M38.079,156.543a.214.214,0,0,1,0,.406.777.777,0,0,1-.7,0,.214.214,0,0,1,0-.406.777.777,0,0,1,.7,0" transform="translate(-18.088 -76.017)" fill="#16110d"/><path d="M41.653,154.479a.214.214,0,0,1,0,.406.777.777,0,0,1-.7,0,.214.214,0,0,1,0-.406.777.777,0,0,1,.7,0" transform="translate(-19.825 -75.014)" fill="#16110d"/><path d="M100.242,40.493,30.992,1A1.917,1.917,0,0,0,28.779.968L25.384,3,27.9,6.578V60.267a7.293,7.293,0,0,0,3.094,5.84l64.665,36.878,3.33,4.737,3.205-1.922a2.63,2.63,0,0,0,1.145-2.511V46.333a7.293,7.293,0,0,0-3.094-5.84" transform="translate(-12.333 -0.308)" fill="#ffbe2e"/><path d="M83.857,38.432,26.3,6.229l-.919-2.107,2.557-1.531a1.916,1.916,0,0,1,2.213.032L99.4,42.115a6.31,6.31,0,0,1,2.367,2.8l.085.35-4.1,2.46Z" transform="translate(-12.333 -1.096)" fill="#fec"/><path d="M171.486,89.952l-3.725,2.214.329,1.394,3.4-2.091Z" transform="translate(-81.508 -43.704)" fill="#fec"/><path d="M28.131.4a2.25,2.25,0,0,1,2.578.006L99.959,39.9a7.666,7.666,0,0,1,3.26,6.124v56.957a2.939,2.939,0,0,1-1.3,2.792l-3.467,2.079-3.463-4.927-64.6-36.841a7.668,7.668,0,0,1-3.26-6.124V6.374l-2.657-3.78ZM27.78,6.166V59.959a6.944,6.944,0,0,0,2.929,5.555l64.665,36.877,3.259,4.585.69-.413.129-1.022,2.532-1.562a1.183,1.183,0,0,0,.579-.99V46.025a6.944,6.944,0,0,0-2.929-5.555L30.383.977A1.622,1.622,0,0,0,28.5.942L25.409,2.794Z" transform="translate(-11.888 0)" fill="#16110d"/><path d="M64.942,164.5l14.041-7.971a5.764,5.764,0,0,1,5.2.2l8.542,4.874,4.06,1.813v1.856h-.027a1.846,1.846,0,0,1-.981,1.221l-17.3,9.831a4.686,4.686,0,0,1-2.285.528,6.03,6.03,0,0,1-2.916-.728L62.032,169.71a2.359,2.359,0,0,1-1.354-1.788c0-.059,0-.116,0-.151v-1.507Z" transform="translate(-29.48 -75.794)" fill="#16110d"/><path d="M95.923,163.751l-17.3,9.83a5.48,5.48,0,0,1-4.876-.2L62.5,166.969c-1.443-.823-1.6-2.068-.35-2.78l17.3-9.83a5.48,5.48,0,0,1,4.876.2l11.245,6.413c1.443.823,1.6,2.068.35,2.78" transform="translate(-29.787 -74.763)" fill="#ffbe2e"/><path d="M65.843,173.446l4.7-2.784a4.967,4.967,0,0,1,4.99-.042l11.778,6.735L80.193,181.4a5.477,5.477,0,0,1-4.876-.2l-9.124-4.973c-1.443-.823-1.6-2.068-.35-2.78" transform="translate(-31.58 -82.581)" fill="#fec"/><path d="M76.189,174.081a4.683,4.683,0,0,0,2.285-.529l17.3-9.83a1.749,1.749,0,0,0,1.009-1.492,2.3,2.3,0,0,0-1.359-1.859l-11.244-6.412a5.766,5.766,0,0,0-5.2-.2l-17.3,9.83a1.75,1.75,0,0,0-1.01,1.493,2.3,2.3,0,0,0,1.359,1.858l11.245,6.413a6.029,6.029,0,0,0,2.916.728m19.262-10.929-17.3,9.83a5.122,5.122,0,0,1-4.551-.2L62.354,166.37c-.653-.372-1.028-.842-1.028-1.287A1.148,1.148,0,0,1,62,164.16l17.3-9.83a5.124,5.124,0,0,1,4.551.2L95.1,160.942c.653.373,1.028.842,1.028,1.288a1.148,1.148,0,0,1-.678.922Z" transform="translate(-29.477 -74.449)" fill="#16110d"/><path d="M24.225,4.231a2.321,2.321,0,0,1,2.362.154L95.838,43.877A7.665,7.665,0,0,1,99.1,50v56.957a2.195,2.195,0,0,1-.947,2.092,1.937,1.937,0,0,1-.983.243,4.089,4.089,0,0,1-1.969-.605L26.262,70.061A7.666,7.666,0,0,1,23,63.937V6.98a3.03,3.03,0,0,1,1.223-2.75" transform="translate(-11.176 -1.931)" fill="#16110d"/><path d="M23.641,107.723v6.9a7.242,7.242,0,0,0,3.325,5.688l68.789,39.229c1.837,1.047,3.325.2,3.325-1.9v-6.9Z" transform="translate(-11.486 -52.338)" fill="#ffbe2e"/><path d="M96.93,159.789a2.044,2.044,0,0,0,1.041-.27,2.614,2.614,0,0,0,1.126-2.4v-7.094l-.166-.1L23,106.624v7.469a7.615,7.615,0,0,0,3.49,5.973L95.281,159.3a3.376,3.376,0,0,0,1.649.493m1.511-9.388v6.714a2,2,0,0,1-.8,1.836,2.04,2.04,0,0,1-2.034-.225L26.818,119.5a6.892,6.892,0,0,1-3.159-5.4v-6.339Z" transform="translate(-11.176 -51.804)" fill="#16110d"/><path d="M97.8,98.289,31.364,60.4a2.572,2.572,0,0,1-1.091-2.059v-43.5c0-.794.488-1.159,1.091-.815L97.8,51.91a2.574,2.574,0,0,1,1.092,2.06v43.5c0,.794-.489,1.159-1.092.815" transform="translate(-14.708 -6.75)" fill="#ffbe2e"/><path d="M97.925,98.435a.883.883,0,0,0,.449-.12,1.27,1.27,0,0,0,.537-1.153v-43.5a2.893,2.893,0,0,0-1.257-2.344L31.218,13.426a1.02,1.02,0,0,0-1.045-.054,1.27,1.27,0,0,0-.537,1.154v43.5a2.9,2.9,0,0,0,1.257,2.344L97.328,98.262a1.213,1.213,0,0,0,.6.173M30.622,13.91a.588.588,0,0,1,.27.086L97.328,51.884a2.25,2.25,0,0,1,.926,1.774v43.5a.687.687,0,0,1-.21.587.427.427,0,0,1-.39-.057L31.218,59.8a2.25,2.25,0,0,1-.926-1.775v-43.5a.684.684,0,0,1,.21-.586.234.234,0,0,1,.12-.03" transform="translate(-14.398 -6.439)" fill="#16110d"/><path d="M162.613,164.776v-9.638l-13.642-7.9v9.638s.2,4.845-1.857,5.992l-2.052,1.148,13.642,7.9,2.052-1.147c2.052-1.148,1.857-5.992,1.857-5.992" transform="translate(-70.479 -71.535)" fill="#ffbe2e"/><path d="M165.965,170.54V160.9L152.323,153v9.639s.2,4.845-1.857,5.992l-2.052,1.148,13.642,7.9,2.052-1.147c2.052-1.148,1.857-5.992,1.857-5.992" transform="translate(-72.108 -74.335)" fill="#fec"/><path d="M158.007,171.738l-14.371-8.327,2.608-1.459c1.525-.851,1.724-4.375,1.673-5.661V146.01l14.367,8.325v9.84c.011.295.156,5.086-2.043,6.316ZM145.1,163.422l12.913,7.482,1.872-1.046c1.524-.852,1.724-4.375,1.671-5.661v-9.444l-12.917-7.485v9.009c.008.193.178,5.068-2.043,6.309Z" transform="translate(-69.787 -70.94)" fill="#16110d"/><path d="M163.1,170.187l.921-3.7a6.009,6.009,0,0,0-.921-.668c-2.089-1.207-3.784-.228-3.784,2.185a8.365,8.365,0,0,0,3.784,6.554c2.09,1.207,3.784.228,3.784-2.185a5.922,5.922,0,0,0-.094-1.011Z" transform="translate(-77.406 -80.313)" fill="#febd33"/><path d="M168.816,170.4l3.69,1.174a8.81,8.81,0,0,0-2.769-4.875Z" transform="translate(-82.021 -80.994)" fill="#febd33"/><path d="M171.173,168.883l-4.5-1.43,1.124-4.515.4.349a9.078,9.078,0,0,1,2.877,5.066Zm-3.713-1.867,2.859.91a8.708,8.708,0,0,0-2.147-3.772Z" transform="translate(-80.982 -79.164)" fill="#16110d"/><path d="M162.632,172.963a3.758,3.758,0,0,1-1.854-.562,8.736,8.736,0,0,1-3.948-6.837A2.625,2.625,0,0,1,161.1,163.1a6.369,6.369,0,0,1,.972.7l.151.132-.9,3.6,3.586,1.141.033.2a6.2,6.2,0,0,1,.1,1.067,2.966,2.966,0,0,1-1.271,2.733,2.266,2.266,0,0,1-1.149.3m-3.379-9.775a1.623,1.623,0,0,0-.824.209,2.356,2.356,0,0,0-.944,2.167,8.013,8.013,0,0,0,3.62,6.271,1.99,1.99,0,0,0,3.293-1.9,5.271,5.271,0,0,0-.058-.76l-3.79-1.206.946-3.8a5.392,5.392,0,0,0-.718-.5,3.116,3.116,0,0,0-1.525-.474" transform="translate(-76.197 -78.968)" fill="#16110d"/><path d="M50,63.114l3.378-5.681,2.355,5.884L60.814,46.2l3.873,16.669,2.411-.626,8.445,22.809L61.354,85.3l-13.04-18.5Z" transform="translate(-23.474 -22.446)" fill="#febd33"/><path d="M60.952,84.618l-.077-.11L47.751,65.887l1.762-3.834,3.639-6.12,2.276,5.685L60.57,44.278,64.6,61.625l2.381-.618L75.63,84.364ZM48.33,65.833,61.21,84.108l13.7-.236L66.667,61.611l-2.441.633L60.51,46.253,55.5,63.153l-2.435-6.084L49.954,62.3Z" transform="translate(-23.2 -21.513)" fill="#15100c"/><path d="M8.693,70.456l4.966-10.105,3.11,3.759,9.051-14.591L36.487,73.53l1.776-3.038,7.174,14.363,10.282-9.988,4.764,14.48,2.838-.325,4.413,15.52Z" transform="translate(-4.224 -24.059)" fill="#febd33"/><path d="M14.267,73.446l4.966-9.715,3.11,3.759L31.395,52.9,42.06,76.911l1.776-3.038L51.01,88.236l10.282-9.988,4.764,14.48,2.838-.325,4.357,14.938Z" transform="translate(-6.932 -25.702)" fill="#fdeccc"/><path d="M67.833,104.564,8.05,70.048l5.243-10.667,3.135,3.79,9.118-14.7,10.66,24,1.762-3.015L45.2,83.925,55.52,73.9l4.825,14.668,2.847-.326.058.206ZM8.711,69.847l58.3,33.657L62.823,88.789l-2.829.324-4.7-14.292-10.24,9.947L37.933,70.513l-1.789,3.061L25.471,49.549,16.487,64.032,13.4,60.3Z" transform="translate(-3.911 -23.551)" fill="#15100c"/><path d="M8.693,71.991l5.27-4.681,3.277,4.584,5.844-19.215,5.372,22.648,4.763-.184,3.267,6.737L46.7,72.135l4.669,12.177L55.009,81.7l5.169,15.339,7.555,9.043Z" transform="translate(-4.224 -25.594)" fill="#febd33"/><path d="M68.433,106.094,7.858,71.121l5.741-5.1,3.143,4.4L22.708,50.8l5.539,23.355,4.721-.183,3.188,6.574,10.236-9.767L51.08,83l3.654-2.625L60,96ZM8.717,71.034l57.505,33.2L59.533,96.2,54.474,81.186,50.843,83.8l-4.65-12.129L36.005,81.387l-3.347-6.9-4.806.186-5.2-21.942L16.927,71.544l-3.412-4.772Z" transform="translate(-3.818 -24.681)" fill="#15100c"/><path d="M18.568,116.447,4.35,108.238a.77.77,0,0,0-.743-.077.709.709,0,0,0-.079.049l-2.058,1.241a.177.177,0,0,0-.062.237L2.521,111.7v7.779A2.821,2.821,0,0,0,3.7,121.727l11.2,6.468,2.2,2.78,2.213-1.338a1.022,1.022,0,0,0,.434-.967V118.7a2.823,2.823,0,0,0-1.178-2.251" transform="translate(-0.674 -52.52)" fill="#febd33"/><path d="M18.413,118.119,4.194,109.91a.767.767,0,0,0-.743-.077.671.671,0,0,0-.079.049l-2.057,1.241a.177.177,0,0,0-.062.237l1.112,2.009v7.779A2.822,2.822,0,0,0,3.544,123.4l11.2,6.468,1.172.983,2.366-.464c.264-.135,1.306.447,1.306-.043v-9.972a2.822,2.822,0,0,0-1.178-2.251" transform="translate(-0.598 -53.332)" fill="#feedcc"/><path d="M16.8,131.068,14.5,128.151,3.334,121.706a3.055,3.055,0,0,1-1.3-2.469v-7.714L.95,109.571A.429.429,0,0,1,1.1,109l2.06-1.242a.659.659,0,0,1,.1-.058,1.016,1.016,0,0,1,.983.083l14.218,8.209a3.056,3.056,0,0,1,1.3,2.469v9.972a1.26,1.26,0,0,1-.57,1.191ZM1.426,109.39l1.108,2v7.845a2.588,2.588,0,0,0,1.052,2.033l11.275,6.53,2.06,2.606,2.023-1.223a.8.8,0,0,0,.311-.751V118.46a2.588,2.588,0,0,0-1.051-2.033L3.985,108.218a.544.544,0,0,0-.5-.07.458.458,0,0,0-.048.029Z" transform="translate(-0.435 -52.281)" fill="#15100c"/><path d="M15.887,132.2,1.669,123.994a2.822,2.822,0,0,1-1.178-2.251V111.77c0-.867.528-1.266,1.178-.89l14.218,8.209a2.822,2.822,0,0,1,1.178,2.251v9.972c0,.868-.528,1.267-1.178.891" transform="translate(-0.239 -53.803)" fill="#febd33"/><path d="M16.117,132.358a1.2,1.2,0,0,1-.595-.176h0L1.3,123.973A3.056,3.056,0,0,1,0,121.5v-9.972a1.289,1.289,0,0,1,.533-1.172,1,1,0,0,1,1.024.062l14.218,8.209a3.057,3.057,0,0,1,1.3,2.47v9.972a1.287,1.287,0,0,1-.534,1.171.845.845,0,0,1-.429.114m-.342-.613a.53.53,0,0,0,.519.062.832.832,0,0,0,.281-.734V121.1a2.588,2.588,0,0,0-1.052-2.033L1.3,110.859a.533.533,0,0,0-.519-.062.832.832,0,0,0-.281.734V121.5a2.589,2.589,0,0,0,1.052,2.033l14.218,8.209Z" transform="translate(0 -53.564)" fill="#15100c"/><path d="M16.548,133.926l-1.129-.652a1.219,1.219,0,0,1-.509-.973v-7.53c0-.375.228-.548.509-.385l1.129.652a1.218,1.218,0,0,1,.509.973v7.53c0,.375-.228.548-.509.385" transform="translate(-7.244 -60.404)" fill="#feedcc"/><path d="M15.378,131.67a.664.664,0,0,1-.329-.1l-1.129-.652a1.452,1.452,0,0,1-.635-1.191V122.2a.693.693,0,0,1,.3-.63.581.581,0,0,1,.586.026l1.129.652a1.456,1.456,0,0,1,.635,1.191v7.53a.693.693,0,0,1-.3.631.513.513,0,0,1-.256.068m-1.534-9.662h-.005c-.008,0-.049.054-.049.193v7.53a.973.973,0,0,0,.383.754l1.13.652c.049.029.076.03.08.027s.05-.054.05-.193v-7.53a.974.974,0,0,0-.384-.755l-1.128-.651a.175.175,0,0,0-.076-.027" transform="translate(-6.455 -59.034)" fill="#15100c"/><path d="M22.666,140.147l-1.316-.76a1,1,0,0,1-.415-.794V133.7c0-.306.186-.446.415-.314l1.316.76a.994.994,0,0,1,.415.793v4.892c0,.306-.186.447-.415.314" transform="translate(-10.171 -64.783)" fill="#feedcc"/><path d="M21.459,137.879a.584.584,0,0,1-.293-.084l-1.316-.76a1.236,1.236,0,0,1-.542-1.012v-4.892a.61.61,0,0,1,.269-.554.515.515,0,0,1,.524.022l1.316.76a1.236,1.236,0,0,1,.542,1.012v4.892a.609.609,0,0,1-.27.554.461.461,0,0,1-.232.062m-.04-.52a.192.192,0,0,0,.032.014.754.754,0,0,1,.005-.11v-4.892a.752.752,0,0,0-.289-.575l-1.316-.76c-.021-.02-.037.02-.037.1v4.892a.753.753,0,0,0,.288.575Z" transform="translate(-9.381 -63.413)" fill="#15100c"/><path d="M10.878,136.244l-1.429-.825a.859.859,0,0,1-.359-.686v-1.9c0-.264.161-.386.359-.271l1.429.825a.859.859,0,0,1,.359.686v1.9c0,.264-.16.386-.359.271" transform="translate(-4.416 -64.387)" fill="#feedcc"/><path d="M9.65,133.97a.541.541,0,0,1-.269-.077h0l-1.429-.825a1.1,1.1,0,0,1-.485-.9v-1.9a.561.561,0,0,1,.25-.51.481.481,0,0,1,.487.02l1.429.825a1.1,1.1,0,0,1,.485.9v1.9a.561.561,0,0,1-.25.509.429.429,0,0,1-.219.058m-1.676-3.744a.3.3,0,0,0,0,.041v1.9a.622.622,0,0,0,.233.468l1.407.812a.309.309,0,0,0,0-.041v-1.9a.619.619,0,0,0-.232-.467Z" transform="translate(-3.628 -63.016)" fill="#15100c"/><path d="M32.238,127.9l2.246-1.358.252,1.116L34.7,137.983l-.4.617-1.986,1.109.173-9.971Z" transform="translate(-15.663 -61.484)" fill="#16110d"/><path d="M123.644,93.8,121.282,81.08a6.148,6.148,0,0,0-4.482.175l0,0-.119.063c-.059.03-.118.06-.175.093l-2.128,1.128.244.795a6.815,6.815,0,0,0-.444.9c-1.959,4.907.692,13.167,5.921,18.449,2.652,2.679,5.458,4.075,7.836,4.162l.484.605,1.932-1.041a4.746,4.746,0,0,0,.66-.356l.006,0v0a5.575,5.575,0,0,0,2.1-2.688,9.01,9.01,0,0,0,.547-2.184Z" transform="translate(-55.159 -39.231)" fill="#febd33"/><path d="M123.626,94.927,121.264,82.21a6.145,6.145,0,0,0-4.482.175l0,0-.119.063c-.059.03-.117.06-.175.093l-2.128,1.128.244.794a6.791,6.791,0,0,0-.444.9c-1.96,4.907.691,13.167,5.921,18.449,2.652,2.679,5.458,4.075,7.835,4.161l-.125-1.03-.969-1.305c.229-.1,1.63.495,1.841.358l-1.534-.78.359.063c.892-.579-.485.3,0-.915.267-.67.044-.7.145-1.48Z" transform="translate(-55.15 -39.78)" fill="#fcebcc"/><path d="M128.117,107.534l-.544-.681c-2.521-.134-5.317-1.633-7.889-4.231-5.285-5.338-7.966-13.735-5.976-18.719a6.946,6.946,0,0,1,.405-.842l-.273-.889,2.313-1.225c.042-.025.094-.051.146-.078l.377-.2.009.018a6.515,6.515,0,0,1,4.438-.087l.148.044,2.371,12.771,10.056,7.408-.019.148a9.266,9.266,0,0,1-.564,2.246A5.823,5.823,0,0,1,130.963,106l-.052.035a5.026,5.026,0,0,1-.693.372ZM114.446,82.423l.215.7-.056.1a6.592,6.592,0,0,0-.428.872c-1.922,4.814.709,12.969,5.866,18.177,2.521,2.547,5.244,4,7.665,4.087l.116,0,.425.531,1.748-.941a4.746,4.746,0,0,0,.624-.333l.024-.016a5.311,5.311,0,0,0,2-2.571,8.629,8.629,0,0,0,.512-1.976l-9.976-7.35L120.83,81.042a5.848,5.848,0,0,0-4.152.2l-.114.055c-.079.041-.123.063-.167.088Z" transform="translate(-54.927 -38.994)" fill="#15100c"/><path d="M119.136,96.19l-2.361-12.717c-3.152-.942-5.884.089-7.107,3.154-1.959,4.907.692,13.167,5.921,18.448s11.058,5.586,13.017.679a9.016,9.016,0,0,0,.547-2.184Z" transform="translate(-52.969 -40.393)" fill="#febd33"/><path d="M123.439,109.255c-2.568,0-5.569-1.522-8.263-4.243-5.285-5.338-7.966-13.736-5.975-18.72,1.232-3.086,4-4.32,7.414-3.3l.147.044,2.371,12.771,10.056,7.409-.02.148a9.286,9.286,0,0,1-.563,2.245,5.387,5.387,0,0,1-3.984,3.532,5.932,5.932,0,0,1-1.184.116m-9.044-26.1a4.9,4.9,0,0,0-4.725,3.33c-1.922,4.814.708,12.969,5.865,18.177,3,3.03,6.361,4.518,8.988,3.988a4.906,4.906,0,0,0,3.616-3.226,8.669,8.669,0,0,0,.511-1.976l-9.975-7.35-2.352-12.662a7.156,7.156,0,0,0-1.928-.281" transform="translate(-52.737 -40.151)" fill="#15100c"/><path d="M124.1,82.627l2.318-1.231,2.361,12.717-2.318,1.231Z" transform="translate(-60.296 -39.547)" fill="#15100c"/><path d="M138.71,114.742l2.318-1.231-10.016-7.379-2.318,1.231Z" transform="translate(-62.527 -51.565)" fill="#febd33"/><path d="M139.229,115.9l1.116-.582-9.229-6.8-1.354.72Z" transform="translate(-63.046 -52.727)" fill="#fcebcc"/><path d="M139.178,100.971l-10.434-7.365-2.406-12.957-2.785,1.48,2.361,12.717.052.28.208.153,10.016,7.379ZM124.117,82.4l1.85-.983,2.265,12.2-1.85.983Zm4.375,11.647,9.566,7.047-1.824.969-9.565-7.048Z" transform="translate(-60.029 -39.184)" fill="#15100c"/><path d="M142.352,96.632a21.377,21.377,0,0,0-2.524-8.023,23.6,23.6,0,0,0-3.984-5.445,14.465,14.465,0,0,0-5.91-3.832l-2.318,1.231,2.318,5.133,1.633,2.429.714,3.847a.061.061,0,0,0,.085.045l.019-.009a.044.044,0,0,0,0,.08h-.005a.009.009,0,0,0-.01.016l3.71,2.733,3.915,5.824,2.318-1.231a13.055,13.055,0,0,0,.04-2.8" transform="translate(-62.004 -38.545)" fill="#febd33"/><path d="M142.425,98.611a21.383,21.383,0,0,0-2.524-8.023,23.59,23.59,0,0,0-3.984-5.444,14.465,14.465,0,0,0-5.91-3.832l-2.318,1.231,2.318,5.133,1.633,2.429.714,3.847a.061.061,0,0,0,.085.045l.019-.009a.044.044,0,0,0,0,.08h-.005a.009.009,0,0,0-.01.016l3.71,2.733,3.915,4.6,2.28-1.026a5.232,5.232,0,0,0,.077-1.78" transform="translate(-62.039 -39.506)" fill="#fcebcc"/><path d="M139.6,100.734l-4.018-5.976-3.856-2.841.031-.057a.3.3,0,0,1-.035-.1l-.7-3.8-1.6-2.385L126.981,80.2l2.618-1.391.1.029a14.744,14.744,0,0,1,6.016,3.9,23.667,23.667,0,0,1,4.027,5.5,21.771,21.771,0,0,1,2.553,8.12,13.3,13.3,0,0,1-.041,2.852l-.017.129Zm-6.691-8.572,3.068,2.279,3.788,5.635,2-1.063a12.913,12.913,0,0,0,.023-2.614,21.268,21.268,0,0,0-2.494-7.925,23.5,23.5,0,0,0-3.941-5.386,14.348,14.348,0,0,0-5.7-3.738l-2.017,1.071,2.221,4.918,1.65,2.486.7,3.795,1.053.575Zm-.808-.4.012,0,.091-.118.008.006a.219.219,0,0,0-.016-.035l0,0,0,0a.19.19,0,0,0-.079-.076.2.2,0,0,0-.141-.014l.195.08Z" transform="translate(-61.695 -38.288)" fill="#15100c"/><path d="M130.05,94.413,137.511,91a23.581,23.581,0,0,0-3.984-5.444,14.462,14.462,0,0,0-5.909-3.832l2.347,12.641a.061.061,0,0,0,.085.044" transform="translate(-62.004 -39.708)" fill="#febd33"/><path d="M129.719,94.331a.315.315,0,0,1-.145-.036.311.311,0,0,1-.163-.222l-2.423-13.045.4.118a14.736,14.736,0,0,1,6.016,3.9,23.662,23.662,0,0,1,4.027,5.5l.127.237-7.7,3.52a.308.308,0,0,1-.131.029m-2.082-12.572,2.226,11.983,6.992-3.194a23.452,23.452,0,0,0-3.813-5.15,14.666,14.666,0,0,0-5.405-3.639" transform="translate(-61.698 -39.368)" fill="#15100c"/><path d="M142.292,113.878a13.023,13.023,0,0,0,.04-2.8l-9.972-4.544a.01.01,0,0,0-.01.016Z" transform="translate(-64.301 -51.761)" fill="#febd33"/><path d="M142.176,114.033l-10.47-7.714.228-.4.22.09,10.106,4.6.013.147a13.333,13.333,0,0,1-.041,2.851Zm-8.11-6.6,7.711,5.681a13.051,13.051,0,0,0,0-2.166Z" transform="translate(-63.991 -51.459)" fill="#15100c"/><path d="M132.36,103.253l9.966,4.541a21.385,21.385,0,0,0-2.523-8.023l-7.442,3.4a.045.045,0,0,0,0,.082" transform="translate(-64.296 -48.475)" fill="#febd33"/><path d="M134.9,105.578l7.9,3.623a18.354,18.354,0,0,0-2.012-6.179Z" transform="translate(-65.544 -50.054)" fill="#fcebcc"/><path d="M142.377,107.892,131.87,103.1l-.026-.365.173-.108,7.658-3.5.111.209a21.771,21.771,0,0,1,2.553,8.12ZM132.64,102.9l9.152,4.17a21.479,21.479,0,0,0-2.34-7.282Z" transform="translate(-64.058 -48.164)" fill="#15100c"/><path d="M149.68,104.981,152,103.764l.9,3.412.19,3.659-.214.547-1.921,1.093-.292-3.547Z" transform="translate(-72.723 -50.415)" fill="#16110d"/><path d="M145.09,126.035l1.856-1.139,1.2-1.584.667-1.924.181-.9-2.318,1.231-.865,2.921Z" transform="translate(-70.494 -58.539)" fill="#16110d"/><path d="M18.527,189.064a.214.214,0,0,1,0,.406.777.777,0,0,1-.7,0,.214.214,0,0,1,0-.406.777.777,0,0,1,.7,0" transform="translate(-8.589 -91.817)" fill="#16110d"/><path d="M22.1,187a.214.214,0,0,1,0,.406.777.777,0,0,1-.7,0,.214.214,0,0,1,0-.406.777.777,0,0,1,.7,0" transform="translate(-10.326 -90.815)" fill="#16110d"/><path d="M25.676,184.936a.214.214,0,0,1,0,.406.777.777,0,0,1-.7,0,.214.214,0,0,1,0-.406.777.777,0,0,1,.7,0" transform="translate(-12.063 -89.812)" fill="#16110d"/><path d="M11.377,189.064a.214.214,0,0,1,0,.406.777.777,0,0,1-.7,0,.214.214,0,0,1,0-.406.777.777,0,0,1,.7,0" transform="translate(-5.115 -91.817)" fill="#16110d"/><path d="M14.952,187a.214.214,0,0,1,0,.406.777.777,0,0,1-.7,0,.214.214,0,0,1,0-.406.777.777,0,0,1,.7,0" transform="translate(-6.852 -90.815)" fill="#16110d"/><path d="M18.527,184.936a.214.214,0,0,1,0,.406.777.777,0,0,1-.7,0,.214.214,0,0,1,0-.406.777.777,0,0,1,.7,0" transform="translate(-8.589 -89.812)" fill="#16110d"/><path d="M22.1,182.872a.214.214,0,0,1,0,.406.777.777,0,0,1-.7,0,.214.214,0,0,1,0-.406.777.777,0,0,1,.7,0" transform="translate(-10.326 -88.809)" fill="#16110d"/><path d="M25.676,180.808a.214.214,0,0,1,0,.406.777.777,0,0,1-.7,0,.214.214,0,0,1,0-.406.777.777,0,0,1,.7,0" transform="translate(-12.063 -87.806)" fill="#16110d"/><path d="M7.8,187a.214.214,0,0,1,0,.406.777.777,0,0,1-.7,0,.214.214,0,0,1,0-.406.777.777,0,0,1,.7,0" transform="translate(-3.379 -90.815)" fill="#16110d"/><path d="M11.377,184.936a.214.214,0,0,1,0,.406.777.777,0,0,1-.7,0,.214.214,0,0,1,0-.406.777.777,0,0,1,.7,0" transform="translate(-5.115 -89.812)" fill="#16110d"/><path d="M4.228,184.936a.214.214,0,0,1,0,.406.777.777,0,0,1-.7,0,.214.214,0,0,1,0-.406.777.777,0,0,1,.7,0" transform="translate(-1.642 -89.812)" fill="#16110d"/><path d="M7.8,182.872a.214.214,0,0,1,0,.406.777.777,0,0,1-.7,0,.214.214,0,0,1,0-.406.777.777,0,0,1,.7,0" transform="translate(-3.379 -88.809)" fill="#16110d"/><path d="M4.2,180.787a.214.214,0,0,1,0,.406.777.777,0,0,1-.7,0,.214.214,0,0,1,0-.406.777.777,0,0,1,.7,0" transform="translate(-1.627 -87.796)" fill="#16110d"/><path d="M15.046,172.861h0l-.033-6.327H5.833l.029,6.242a.356.356,0,0,0,0,.084.676.676,0,0,0,.375.457l3.425,1.977a1.716,1.716,0,0,0,1.545.064l3.574-2.064a.442.442,0,0,0,.264-.435" transform="translate(-2.834 -80.912)" fill="#febd33"/><path d="M10.3,175.527a2.037,2.037,0,0,1-1-.252L5.873,173.3a.916.916,0,0,1-.5-.643.612.612,0,0,1,0-.141l-.03-6.105a.363.363,0,0,1,.363-.365h8.959a.363.363,0,0,1,.363.361l.032,6.2a.692.692,0,0,1-.39.668L11.1,175.339a1.624,1.624,0,0,1-.8.188m-4.448-8.979.028,5.989,0,.052c.009.066.079.172.251.271l3.425,1.978a1.467,1.467,0,0,0,1.293.064l3.575-2.064c.069-.04.15-.1.14-.185l0-.031-.031-6.075Z" transform="translate(-2.596 -80.674)" fill="#15100c"/><path d="M14.755,164.516,11.18,166.58a1.717,1.717,0,0,1-1.546-.064L6.21,164.538c-.457-.264-.507-.663-.111-.892l3.575-2.064a1.716,1.716,0,0,1,1.545.064l3.425,1.977c.458.264.507.663.111.892" transform="translate(-2.833 -78.431)" fill="#febd33"/><path d="M10.269,166.748a2.039,2.039,0,0,1-1-.252l-3.425-1.977a.879.879,0,0,1-.5-.723.7.7,0,0,1,.394-.606l3.574-2.064a1.965,1.965,0,0,1,1.8.064l3.425,1.977a.876.876,0,0,1,.5.723.7.7,0,0,1-.393.606l-3.574,2.064a1.627,1.627,0,0,1-.8.188m-.165-5.307a1.114,1.114,0,0,0-.543.122l-3.575,2.064c-.052.03-.141.093-.141.169s.066.178.252.286l3.425,1.978a1.467,1.467,0,0,0,1.293.064l3.574-2.064c.053-.03.141-.093.141-.169s-.066-.178-.252-.286l-3.425-1.978a1.554,1.554,0,0,0-.75-.186" transform="translate(-2.594 -78.193)" fill="#15100c"/><path d="M11.209,165.818a.929.929,0,0,0,0,1.759,3.37,3.37,0,0,0,3.047,0,.929.929,0,0,0,0-1.759l-1.523.88Z" transform="translate(-5.14 -80.564)" fill="#fcebcc"/><path d="M11.858,164.64l1.523.88,1.523-.88a3.367,3.367,0,0,0-3.047,0" transform="translate(-5.761 -79.815)" fill="#fcebcc"/><path d="M13.143,164.72l-1.776-1.026.19-.109a3.511,3.511,0,0,1,3.173,0l.189.109ZM11.884,163.7l1.259.727L14.4,163.7a3.338,3.338,0,0,0-2.517,0" transform="translate(-5.523 -79.295)" fill="#15100c"/><path d="M14.822,169.456v6.3l1.06-.251,3.508-2.232-.008-6.239-3.834,2.27Z" transform="translate(-7.201 -81.155)" fill="#15100c"/><path d="M12.613,167.1a3.245,3.245,0,0,1-1.586-.379,1.052,1.052,0,0,1,0-1.978l.063-.036,1.523.88,1.523-.88.063.036a1.052,1.052,0,0,1,0,1.978,3.246,3.246,0,0,1-1.587.379M11.091,165a.916.916,0,0,0-.506.733.953.953,0,0,0,.568.771,3.23,3.23,0,0,0,2.921,0,.952.952,0,0,0,.568-.771.915.915,0,0,0-.506-.733l-1.522.879Z" transform="translate(-5.02 -80.023)" fill="#15100c"/></g></g></g></svg>