<svg xmlns="http://www.w3.org/2000/svg" width="53.991" height="54" viewBox="0 0 53.991 54"><g transform="translate(3008 13414)"><path d="M7.624,27.383l4.363,7.58H42l4.363-7.58a1.474,1.474,0,0,1,1.277-.739h6.347A27,27,0,0,0,0,26.645H6.347a1.474,1.474,0,0,1,1.277.739m-.205-8.927,4.7-8.128a3.544,3.544,0,0,1,3.068-1.769H38.8a3.544,3.544,0,0,1,3.136,1.892l4.249,8.061a1.618,1.618,0,0,1-1.431,2.372H8.82a1.618,1.618,0,0,1-1.4-2.428" transform="translate(-3008 -13414.001)" fill="#66c3f2"/><path d="M44.247,158.239a3.674,3.674,0,0,1-3.189,1.85H23.618a3.675,3.675,0,0,1-3.183-1.839l-3.808-7.093H7.121a27.008,27.008,0,0,0,50.551,0H48.018Z" transform="translate(-3013.401 -13528.646)" fill="#66c3f2"/></g></svg>