<svg xmlns="http://www.w3.org/2000/svg" xmlns:xlink="http://www.w3.org/1999/xlink" width="261.613" height="54" viewBox="0 0 261.613 54"><defs><clipPath id="a"><rect width="261.613" height="54" fill="none"/></clipPath></defs><g clip-path="url(#a)"><path d="M325.928,53.265v4.982c0,5.186-2.859,6.942-8.984,6.942h-4.369V75.194h-4.982V46.608h9.27c5.88-.041,9.066,1.47,9.066,6.656m-4.982.327c0-2.328-.694-3.757-4.125-3.757h-4.247V61.963h4.247c3.43.041,4.125-1.429,4.125-3.716Z" transform="translate(-233.297 -35.35)"/><path d="M401.015,89.942V93c0,2.123,1.062,3.226,3.676,3.226,2.654,0,3.634-.817,3.634-2.491V92.6h4.655v1.1c0,4.574-3.267,5.595-8.29,5.595-5.1,0-8.331-1.225-8.331-6.371V84.429c0-5.145,3.185-6.371,8.29-6.371,5.023,0,8.331,1.225,8.331,6.371v5.513Zm0-5.513V87h7.31V84.429c0-2.246-1.062-3.308-3.676-3.308-2.654,0-3.634,1.062-3.634,3.308" transform="translate(-300.624 -59.204)"/><path d="M493.376,84.918V83.775c0-1.715-1.021-2.655-3.634-2.655-2.655,0-3.676,1.062-3.676,3.226V93c0,2.123,1.062,3.226,3.676,3.226,2.654,0,3.634-.817,3.634-2.491V92.6h4.655v1.1c0,4.288-2.9,5.472-7.392,5.595l-.817,1.552a3.847,3.847,0,0,1,1.225-.2c1.552,0,3.1.367,3.1,2.409v2.287c0,2.042-2.164,2.614-4.492,2.614-2.491,0-4.41-.572-4.41-2.287v-1.021h2.859v.286c0,.531.327.939,1.552.939s1.674-.408,1.674-1.143v-1.348c0-.776-.245-1.184-1.389-1.184a1.148,1.148,0,0,0-1.1.613l-1.92-.9,1.266-2.654c-4.206-.245-6.779-1.715-6.779-6.33V84.429c0-5.146,3.185-6.371,8.29-6.371,5.064,0,8.331,1.021,8.331,5.717v1.143Z" transform="translate(-365.131 -59.204)"/><path d="M580.753,83.776V99.049h-3.839l-.653-2.042a6.289,6.289,0,0,1-5.309,2.287c-4,0-6.86-.9-6.86-5.391V92.066c0-4.451,2.9-5.431,6.86-5.431a7.69,7.69,0,0,1,5.1,1.47V83.9c0-1.919-1.348-2.736-3.675-2.736s-3.634.817-3.634,2.45V84.8h-4.655V83.531c0-4.451,3.471-5.472,8.29-5.472,4.941,0,8.372,1.021,8.372,5.717m-4.7,9.883V92.148c0-1.756-1.266-2.573-3.675-2.573s-3.634.735-3.634,2.45v1.634c0,1.8,1.266,2.573,3.675,2.573,2.082,0,3.634-.776,3.634-2.573" transform="translate(-427.842 -59.205)"/><path d="M687.568,53.714V68.089c0,5.635-3.185,7.106-9.066,7.106h-9.474V46.608H678.5c5.88-.041,9.066,1.47,9.066,7.106m-4.982.367c0-2.818-.694-4.247-4.124-4.247H674.01V71.968h4.451c3.43,0,4.124-1.47,4.124-4.288Z" transform="translate(-507.432 -35.35)"/><path d="M763.547,51.288a2.818,2.818,0,1,1,2.818,2.818,2.823,2.823,0,0,1-2.818-2.818m.49,4.737h4.655V76.607h-4.655Z" transform="translate(-579.121 -36.763)"/><path d="M819.129,83.617v1.348h-4.655V83.9c0-1.756-.654-2.573-2.45-2.573-1.919,0-2.737,1.266-2.737,3.349v14.5h-4.655V78.595h4l.449,1.878a5.134,5.134,0,0,1,4.7-2.246c3.471,0,5.35,1.307,5.35,5.39" transform="translate(-610.283 -59.332)"/><path d="M879.626,89.942V93c0,2.123,1.062,3.226,3.676,3.226,2.654,0,3.634-.817,3.634-2.491V92.6h4.655v1.1c0,4.574-3.267,5.595-8.29,5.595-5.1,0-8.331-1.225-8.331-6.371V84.429c0-5.145,3.185-6.371,8.29-6.371,5.023,0,8.331,1.225,8.331,6.371v5.513Zm0-5.513V87h7.31V84.429c0-2.246-1.062-3.308-3.676-3.308-2.654,0-3.634,1.062-3.634,3.308" transform="translate(-663.632 -59.204)"/><path d="M966.1,62.93h-3.757v17.4h-4.655V62.93h-3.757V59.745h3.757V53.374h4.655v6.371H966.1Z" transform="translate(-723.523 -40.482)"/><path d="M1030.792,83.776V99.049h-3.838l-.653-2.042a6.289,6.289,0,0,1-5.309,2.287c-4,0-6.86-.9-6.86-5.391V92.066c0-4.451,2.9-5.431,6.86-5.431a7.691,7.691,0,0,1,5.1,1.47V83.9c0-1.919-1.348-2.736-3.675-2.736s-3.634.817-3.634,2.45V84.8h-4.656V83.531c0-4.451,3.471-5.472,8.29-5.472,4.941,0,8.371,1.021,8.371,5.717m-4.7,9.883V92.148c0-1.756-1.266-2.573-3.675-2.573s-3.634.735-3.634,2.45v1.634c0,1.8,1.266,2.573,3.675,2.573,2.083,0,3.634-.776,3.634-2.573" transform="translate(-769.179 -59.205)"/><path d="M7.624,27.383l4.363,7.58H42l4.363-7.58a1.474,1.474,0,0,1,1.277-.739h6.347A27,27,0,0,0,0,26.645H6.347a1.474,1.474,0,0,1,1.277.739m-.205-8.927,4.7-8.128a3.544,3.544,0,0,1,3.068-1.769H38.8a3.544,3.544,0,0,1,3.136,1.892l4.249,8.061a1.618,1.618,0,0,1-1.431,2.372H8.82a1.618,1.618,0,0,1-1.4-2.428" transform="translate(0 -0.001)" fill="#66c3f2"/><path d="M44.247,158.239a3.674,3.674,0,0,1-3.189,1.85H23.618a3.675,3.675,0,0,1-3.183-1.839l-3.808-7.093H7.121a27.008,27.008,0,0,0,50.551,0H48.018Z" transform="translate(-5.401 -114.647)" fill="#66c3f2"/></g></svg>