<svg xmlns="http://www.w3.org/2000/svg" xmlns:xlink="http://www.w3.org/1999/xlink" width="100" height="92.504" viewBox="0 0 100 92.504"><defs><clipPath id="a"><rect width="100" height="92.504" fill="#fff"/></clipPath></defs><g clip-path="url(#a)"><path d="M11.242,380.6v2.646c0,2.755-1.518,3.687-4.772,3.687H4.149v5.314H1.5V377.06H6.427c3.124-.022,4.815.781,4.815,3.536m-2.646.174c0-1.236-.369-2-2.191-2H4.149v6.442H6.4c1.822.022,2.191-.759,2.191-1.974Z" transform="translate(-1.249 -313.442)" fill="#fff"/><path d="M71.474,407.287v1.627c0,1.128.564,1.714,1.952,1.714,1.41,0,1.93-.434,1.93-1.323V408.7h2.473v.586c0,2.429-1.735,2.971-4.4,2.971-2.711,0-4.425-.651-4.425-3.384v-4.512c0-2.733,1.692-3.384,4.4-3.384,2.668,0,4.425.651,4.425,3.384v2.928Zm0-2.928v1.366h3.883v-1.366c0-1.193-.564-1.757-1.952-1.757-1.41,0-1.93.564-1.93,1.757" transform="translate(-57.359 -333.323)" fill="#fff"/><path d="M140.026,404.619v-.607c0-.911-.542-1.41-1.93-1.41-1.41,0-1.952.564-1.952,1.713v4.6c0,1.128.564,1.714,1.952,1.714,1.41,0,1.93-.434,1.93-1.323V408.7H142.5v.586c0,2.277-1.54,2.906-3.926,2.971l-.434.824a2.039,2.039,0,0,1,.651-.109c.824,0,1.648.2,1.648,1.28v1.215c0,1.085-1.149,1.388-2.386,1.388-1.323,0-2.343-.3-2.343-1.215V415.1h1.518v.152c0,.282.174.5.824.5s.889-.217.889-.607v-.716c0-.412-.13-.629-.738-.629a.609.609,0,0,0-.585.325l-1.02-.477.672-1.41c-2.234-.13-3.6-.911-3.6-3.362v-4.512c0-2.733,1.692-3.384,4.4-3.384,2.69,0,4.425.542,4.425,3.036v.607Z" transform="translate(-111.118 -333.323)" fill="#fff"/><path d="M205.392,404.012v8.112h-2.039l-.347-1.085a3.34,3.34,0,0,1-2.82,1.215c-2.126,0-3.644-.477-3.644-2.863v-.976c0-2.364,1.54-2.885,3.644-2.885a4.084,4.084,0,0,1,2.711.781v-2.234c0-1.019-.716-1.453-1.952-1.453s-1.931.434-1.931,1.3v.629h-2.473v-.672c0-2.364,1.843-2.907,4.4-2.907,2.624,0,4.446.542,4.446,3.037m-2.494,5.249v-.8c0-.933-.672-1.367-1.952-1.367s-1.931.39-1.931,1.3v.868c0,.954.673,1.366,1.952,1.366,1.106,0,1.93-.412,1.93-1.366" transform="translate(-163.382 -333.323)" fill="#fff"/><path d="M286.181,380.834v7.635c0,2.993-1.692,3.774-4.815,3.774h-5.032V377.06h5.032c3.124-.022,4.815.781,4.815,3.774m-2.646.2c0-1.5-.369-2.256-2.191-2.256H278.98V390.53h2.364c1.822,0,2.191-.781,2.191-2.277Z" transform="translate(-229.711 -313.442)" fill="#fff"/><path d="M348.2,379.974a1.5,1.5,0,1,1,1.5,1.5,1.5,1.5,0,0,1-1.5-1.5m.26,2.516h2.473v10.932h-2.473Z" transform="translate(-289.456 -314.62)" fill="#fff"/><path d="M387.146,403.965v.716h-2.473v-.564c0-.933-.347-1.367-1.3-1.367-1.02,0-1.454.672-1.454,1.779v7.7h-2.473V401.3h2.126l.239,1A2.727,2.727,0,0,1,384.3,401.1c1.844,0,2.841.694,2.841,2.863" transform="translate(-315.426 -333.428)" fill="#fff"/><path d="M435.4,407.287v1.627c0,1.128.564,1.714,1.952,1.714,1.41,0,1.93-.434,1.93-1.323V408.7h2.473v.586c0,2.429-1.735,2.971-4.4,2.971-2.711,0-4.425-.651-4.425-3.384v-4.512c0-2.733,1.692-3.384,4.4-3.384,2.668,0,4.425.651,4.425,3.384v2.928Zm0-2.928v1.366h3.883v-1.366c0-1.193-.564-1.757-1.952-1.757-1.41,0-1.93.564-1.93,1.757" transform="translate(-359.886 -333.323)" fill="#fff"/><path d="M499.438,387.28h-2v9.24h-2.473v-9.24h-2v-1.692h2V382.2h2.473v3.384h2Z" transform="translate(-409.799 -317.719)" fill="#fff"/><path d="M547.594,404.012v8.112h-2.039l-.347-1.085a3.34,3.34,0,0,1-2.82,1.215c-2.125,0-3.644-.477-3.644-2.863v-.976c0-2.364,1.54-2.885,3.644-2.885a4.085,4.085,0,0,1,2.711.781v-2.234c0-1.019-.716-1.453-1.952-1.453s-1.93.434-1.93,1.3v.629h-2.473v-.672c0-2.364,1.844-2.907,4.4-2.907,2.624,0,4.446.542,4.446,3.037m-2.494,5.249v-.8c0-.933-.672-1.367-1.952-1.367s-1.93.39-1.93,1.3v.868c0,.954.672,1.366,1.952,1.366,1.106,0,1.931-.412,1.931-1.366" transform="translate(-447.848 -333.323)" fill="#fff"/><path d="M161.65,24.059l3.833,6.66h26.374l3.833-6.66a1.3,1.3,0,0,1,1.122-.649h5.577a23.721,23.721,0,0,0-47.438,0h5.577a1.3,1.3,0,0,1,1.122.649m-.18-7.844L165.6,9.074a3.114,3.114,0,0,1,2.7-1.555h20.748A3.115,3.115,0,0,1,191.8,9.182l3.733,7.083a1.422,1.422,0,0,1-1.257,2.085H162.7a1.422,1.422,0,0,1-1.23-2.134" transform="translate(-128.808)" fill="#fff"/><path d="M196.529,196.354a3.229,3.229,0,0,1-2.8,1.625H178.4a3.228,3.228,0,0,1-2.8-1.615l-3.346-6.232h-8.353a23.73,23.73,0,0,0,44.416,0h-8.482Z" transform="translate(-136.254 -158.053)" fill="#fff"/><path d="M3.18,509.423v.655c0,.947-.615,1.112-1.365,1.112H0v-5.523H1.736c.749,0,1.365.166,1.365,1.113v.537c0,.663-.229.931-.607,1.041.426.095.686.363.686,1.065m-1.444-3.235H.7V508.1H1.736c.434,0,.663-.2.663-.592v-.726c0-.394-.229-.592-.663-.592m.742,3c0-.394-.229-.592-.663-.592H.7v2.075H1.815c.434,0,.663-.2.663-.592Z" transform="translate(0 -420.351)" fill="#fff"/><path d="M28,514.833v3.977h-.568l-.071-.434a1.226,1.226,0,0,1-.963.481c-.631,0-1.239-.158-1.239-1.168v-2.856h.647v2.817c0,.513.237.71.789.71a.687.687,0,0,0,.757-.75v-2.777Z" transform="translate(-20.915 -427.971)" fill="#fff"/><path d="M48.075,517.551v-.2h.647v.2c0,.355.26.552.773.552s.765-.2.765-.513v-.41c0-.268-.166-.387-.5-.395l-.655-.024c-.608-.008-1.026-.221-1.026-.773v-.426c0-.828.663-1.01,1.412-1.01s1.42.181,1.42,1.049v.142H50.26V515.6c0-.355-.26-.552-.773-.552s-.765.2-.765.513v.331c0,.268.166.363.5.371l.655.024c.608.008,1.026.26,1.026.813v.489c0,.828-.663,1.01-1.412,1.01-.765,0-1.42-.181-1.42-1.049" transform="translate(-39.964 -427.738)" fill="#fff"/><path d="M70.475,517.433v-1.712c0-.986.576-1.168,1.42-1.168s1.42.126,1.42,1.034v.166h-.647v-.166c0-.394-.245-.536-.773-.536s-.773.2-.773.671v1.712c0,.473.252.671.781.671s.765-.15.765-.544v-.174h.647v.174c0,.907-.568,1.041-1.412,1.041s-1.428-.181-1.428-1.168" transform="translate(-58.584 -427.738)" fill="#fff"/><path d="M95.435,515.642v2.935h-.568l-.071-.418a1.109,1.109,0,0,1-.947.442c-.679,0-1.255-.166-1.255-1.073v-.3c0-.907.568-1.073,1.263-1.073a1.251,1.251,0,0,1,.931.315v-.828c0-.395-.252-.592-.781-.592s-.765.2-.765.513v.182H92.6v-.182c0-.828.568-1.01,1.412-1.01s1.428.181,1.428,1.089m-.647,1.87v-.284c0-.394-.252-.576-.781-.576s-.765.181-.765.576v.3c0,.395.244.576.773.576.458,0,.773-.181.773-.592" transform="translate(-76.972 -427.738)" fill="#fff"/><path d="M118.349,505.668v5.523h-.568l-.063-.387a1.128,1.128,0,0,1-.907.426c-.726,0-1.3-.189-1.3-1.176v-1.72c0-.986.576-1.168,1.254-1.168a1.215,1.215,0,0,1,.939.347v-1.846Zm-.647,4.4v-1.712a.682.682,0,0,0-.773-.694c-.529,0-.773.2-.773.671v1.72c0,.473.244.671.773.671s.773-.26.773-.655" transform="translate(-96.02 -420.352)" fill="#fff"/><path d="M138.658,517.433v-1.712c0-.986.568-1.168,1.412-1.168s1.428.182,1.428,1.168v1.712c0,.986-.568,1.168-1.412,1.168s-1.428-.181-1.428-1.168m2.194,0v-1.712c0-.473-.252-.671-.781-.671s-.765.2-.765.671v1.712c0,.473.253.671.781.671s.765-.2.765-.671" transform="translate(-115.264 -427.738)" fill="#fff"/><path d="M164.182,515.562v.182h-.647v-.182c0-.316-.118-.513-.513-.513-.434,0-.568.276-.568.671v2.856h-.647V514.6h.568l.071.324a.92.92,0,0,1,.8-.371c.631,0,.931.26.931,1.01" transform="translate(-134.507 -427.737)" fill="#fff"/><path d="M193.827,505.668v5.523h-.568l-.063-.387a1.128,1.128,0,0,1-.907.426c-.726,0-1.3-.189-1.3-1.176v-1.72c0-.986.576-1.168,1.254-1.168a1.215,1.215,0,0,1,.939.347v-1.846Zm-.647,4.4v-1.712a.682.682,0,0,0-.773-.694c-.529,0-.773.2-.773.671v1.72c0,.473.244.671.773.671s.773-.26.773-.655" transform="translate(-158.764 -420.352)" fill="#fff"/><path d="M214.783,516.786v.647c0,.473.252.671.781.671s.766-.15.766-.544v-.174h.647v.174c0,.907-.568,1.041-1.412,1.041s-1.428-.181-1.428-1.168v-1.712c0-.986.568-1.168,1.412-1.168s1.428.181,1.428,1.168v1.065Zm0-1.065v.568h1.547v-.568c0-.473-.253-.671-.781-.671s-.765.2-.765.671" transform="translate(-178.007 -427.738)" fill="#fff"/><path d="M250.46,515.642v2.935h-.568l-.071-.418a1.109,1.109,0,0,1-.947.442c-.679,0-1.255-.166-1.255-1.073v-.3c0-.907.568-1.073,1.263-1.073a1.251,1.251,0,0,1,.931.315v-.828c0-.395-.252-.592-.781-.592s-.765.2-.765.513v.182h-.647v-.182c0-.828.568-1.01,1.412-1.01s1.428.181,1.428,1.089m-.647,1.87v-.284c0-.394-.252-.576-.781-.576s-.765.181-.765.576v.3c0,.395.245.576.773.576.458,0,.773-.181.773-.592" transform="translate(-205.841 -427.738)" fill="#fff"/><path d="M273.608,514.833v3.977h-.568l-.071-.434a1.226,1.226,0,0,1-.963.481c-.631,0-1.239-.158-1.239-1.168v-2.856h.647v2.817c0,.513.237.71.789.71a.687.687,0,0,0,.757-.75v-2.777Z" transform="translate(-225.084 -427.971)" fill="#fff"/><path d="M294.527,509.266h-.678v3.48H293.2v-3.48h-.686v-.5h.686v-1.231h.647v1.231h.678Z" transform="translate(-243.162 -421.906)" fill="#fff"/><path d="M308.508,517.433v-1.712c0-.986.568-1.168,1.412-1.168s1.428.182,1.428,1.168v1.712c0,.986-.568,1.168-1.412,1.168s-1.428-.181-1.428-1.168m2.194,0v-1.712c0-.473-.252-.671-.781-.671s-.766.2-.766.671v1.712c0,.473.253.671.781.671s.765-.2.765-.671" transform="translate(-256.457 -427.738)" fill="#fff"/><path d="M334.5,515.721v1.72c0,.986-.576,1.176-1.3,1.176a1.179,1.179,0,0,1-.892-.387v1.452h-.647V514.6h.568l.063.4a1.13,1.13,0,0,1,.955-.45c.679,0,1.255.181,1.255,1.168m-.647,0c0-.473-.245-.671-.773-.671a.682.682,0,0,0-.773.694v1.712c0,.394.245.655.773.655s.773-.2.773-.671Z" transform="translate(-275.699 -427.738)" fill="#fff"/><path d="M354.984,516.786v.647c0,.473.252.671.781.671s.766-.15.766-.544v-.174h.647v.174c0,.907-.568,1.041-1.412,1.041s-1.428-.181-1.428-1.168v-1.712c0-.986.568-1.168,1.412-1.168s1.428.181,1.428,1.168v1.065Zm0-1.065v.568h1.547v-.568c0-.473-.253-.671-.781-.671s-.765.2-.765.671" transform="translate(-294.553 -427.738)" fill="#fff"/><path d="M379.212,515.751v-.166c0-.395-.245-.536-.773-.536s-.773.2-.773.671v1.712c0,.473.253.671.781.671s.766-.15.766-.544v-.174h.647v.174c0,.836-.489,1.018-1.223,1.041l-.2.323a.492.492,0,0,1,.15-.024c.26,0,.537.055.537.442v.434c0,.379-.379.466-.718.466-.379,0-.687-.087-.687-.418v-.166h.379v.055c0,.1.063.181.308.181s.347-.079.347-.229V519.4c0-.158-.055-.237-.292-.237a.217.217,0,0,0-.213.111l-.323-.158.276-.521c-.71-.039-1.184-.268-1.184-1.16V515.72c0-.986.576-1.168,1.42-1.168s1.42.126,1.42,1.034v.166Z" transform="translate(-313.408 -427.737)" fill="#fff"/><path d="M401.978,515.642v2.935h-.568l-.071-.418a1.109,1.109,0,0,1-.947.442c-.679,0-1.255-.166-1.255-1.073v-.3c0-.907.568-1.073,1.263-1.073a1.251,1.251,0,0,1,.931.315v-.828c0-.395-.252-.592-.781-.592s-.765.2-.765.513v.182h-.647v-.182c0-.828.568-1.01,1.412-1.01s1.428.181,1.428,1.089m-.647,1.87v-.284c0-.394-.252-.576-.781-.576s-.765.181-.765.576v.3c0,.395.245.576.773.576.458,0,.773-.181.773-.592" transform="translate(-331.796 -427.738)" fill="#fff"/><path d="M421.819,517.551v-.2h.647v.2c0,.355.26.552.773.552s.765-.2.765-.513v-.41c0-.268-.165-.387-.5-.395l-.655-.024c-.608-.008-1.026-.221-1.026-.773v-.426c0-.828.663-1.01,1.412-1.01s1.42.181,1.42,1.049v.142H424V515.6c0-.355-.26-.552-.773-.552s-.765.2-.765.513v.331c0,.268.166.363.505.371l.655.024c.608.008,1.026.26,1.026.813v.489c0,.828-.663,1.01-1.412,1.01-.765,0-1.42-.181-1.42-1.049" transform="translate(-350.65 -427.738)" fill="#fff"/><path d="M456.62,514.833l-1.3,3.977h-.631l-1.3-3.977h.647l1,3.251.994-3.251Z" transform="translate(-376.89 -427.97)" fill="#fff"/><path d="M476.675,507.777a.426.426,0,1,1,.426.426.424.424,0,0,1-.426-.426m.1.836h.647v3.977h-.647Z" transform="translate(-396.251 -421.751)" fill="#fff"/><path d="M490.364,515.642v2.935H489.8l-.071-.418a1.109,1.109,0,0,1-.947.442c-.679,0-1.255-.166-1.255-1.073v-.3c0-.907.568-1.073,1.263-1.073a1.251,1.251,0,0,1,.931.315v-.828c0-.395-.252-.592-.781-.592s-.765.2-.765.513v.182h-.647v-.182c0-.828.568-1.01,1.412-1.01s1.428.181,1.428,1.089m-.647,1.87v-.284c0-.394-.252-.576-.781-.576s-.765.181-.765.576v.3c0,.395.245.576.773.576.458,0,.773-.181.773-.592" transform="translate(-405.268 -427.738)" fill="#fff"/><path d="M524.56,514.833l-1.057,3.977h-.718l-.726-3.038-.749,3.038h-.718l-.986-3.977h.647l.781,3.267.828-3.267h.56l.758,3.33.844-3.33Z" transform="translate(-431.937 -427.97)" fill="#fff"/><path d="M553.362,516.786v.647c0,.473.252.671.781.671s.765-.15.765-.544v-.174h.647v.174c0,.907-.568,1.041-1.412,1.041s-1.428-.181-1.428-1.168v-1.712c0-.986.568-1.168,1.412-1.168s1.428.181,1.428,1.168v1.065Zm0-1.065v.568h1.546v-.568c0-.473-.253-.671-.781-.671s-.765.2-.765.671" transform="translate(-459.461 -427.738)" fill="#fff"/><path d="M578.7,508.335v1.72c0,.986-.576,1.176-1.3,1.176a1.162,1.162,0,0,1-.915-.418l-.055.379h-.568v-5.523h.647v1.846a1.215,1.215,0,0,1,.939-.347c.679,0,1.255.181,1.255,1.168m-.647,0c0-.473-.245-.671-.773-.671a.682.682,0,0,0-.773.695v1.712c0,.395.245.655.773.655s.773-.2.773-.671Z" transform="translate(-478.704 -420.352)" fill="#fff"/></g></svg>